<svg xmlns="http://www.w3.org/2000/svg" width="68" height="68" fill="none"><path d="M4.732 33.736H3v.109c0 1.979.192 3.954.572 5.897l1.697-.338a29.35 29.35 0 0 1-.537-5.56v-.108Zm.563 11.82a30.98 30.98 0 0 0 2.827 5.352l1.442-.957A29.276 29.276 0 0 1 6.9 44.902l-1.606.654Zm6.645 10.04a31.08 31.08 0 0 0 4.66 3.862l.969-1.438a29.077 29.077 0 0 1-4.399-3.641l-1.23 1.217ZM7.005 22.6l-1.593-.67a30.79 30.79 0 0 0-1.788 5.78l1.697.346c.38-1.87.943-3.697 1.684-5.455Zm5.139-10.655a31.065 31.065 0 0 0-3.853 4.663l1.433.97a29.323 29.323 0 0 1 3.64-4.403l-1.22-1.23Zm43.651.19a31.142 31.142 0 0 0-4.663-3.858l-.965 1.438a29.321 29.321 0 0 1 4.403 3.641l1.225-1.221Zm6.655 10.036a30.948 30.948 0 0 0-2.828-5.347l-1.441.957a28.8 28.8 0 0 1 2.667 5.044l1.602-.654ZM22.821 6.9l-.654-1.6a30.788 30.788 0 0 0-5.347 2.827l.953 1.446a29.01 29.01 0 0 1 5.048-2.671Zm22.99-1.475a30.889 30.889 0 0 0-5.78-1.788l-.346 1.697c1.869.383 3.696.948 5.455 1.688l.671-1.597Zm-11.902-.693h.09V3H33.9a31.24 31.24 0 0 0-5.884.563h-.052l.373 1.688a29.706 29.706 0 0 1 5.572-.52Zm20.461 49.86 1.222 1.23a31.067 31.067 0 0 0 3.857-4.655l-1.433-.97a29.542 29.542 0 0 1-3.645 4.395Zm-9.468 6.25.65 1.607a30.846 30.846 0 0 0 5.355-2.823l-.957-1.446a28.683 28.683 0 0 1-5.048 2.662Zm19.284-32.825v-.052l-1.702.338v.047c.356 1.832.535 3.694.537 5.56v.125h1.732v-.139a31.082 31.082 0 0 0-.567-5.88Zm-30.342 34.99h-.117v1.732h.126a31.119 31.119 0 0 0 5.892-.567l-.346-1.697a29.33 29.33 0 0 1-5.555.532ZM60.74 45.175l1.593.67a30.811 30.811 0 0 0 1.797-5.784l-1.697-.346a29.136 29.136 0 0 1-1.693 5.46ZM21.92 62.337c1.864.784 3.8 1.385 5.78 1.793l.347-1.697a29.126 29.126 0 0 1-5.456-1.689l-.67 1.593Zm15.678-45.149-7.417-4.403-.035 3.503a18.002 18.002 0 0 0-12.174 9.252l1.532.801a16.27 16.27 0 0 1 10.625-8.27l-.03 3.347 7.499-4.23Zm.026 34.256a18.003 18.003 0 0 0 12.175-9.253l-1.533-.797a16.274 16.274 0 0 1-10.63 8.266l.035-3.347-7.516 4.247 7.434 4.386.035-3.502Zm-11.261-3.181a16.27 16.27 0 0 1-8.274-10.625l3.35.03-4.247-7.516-4.385 7.439 3.502.03a18.017 18.017 0 0 0 9.257 12.18l.797-1.538Zm15.032-28.78a16.258 16.258 0 0 1 8.27 10.62l-3.347-.03 4.247 7.517 4.386-7.439-3.503-.03a18.016 18.016 0 0 0-9.252-12.183l-.801 1.545Z" fill="#EE7537"/></svg>