<svg xmlns="http://www.w3.org/2000/svg" width="68" height="68" fill="none"><g clip-path="url(#a)"><path d="M63 33.17h-8.567A20.734 20.734 0 0 0 34.82 8.87V5h-1.663v12.666A20.784 20.784 0 0 0 13.904 33.17H5v1.662h8.559a20.713 20.713 0 0 0 19.608 24.301V63h1.662V50.338a20.783 20.783 0 0 0 19.255-15.505H63v-1.662Zm-9.91-3.566a19.434 19.434 0 0 1-.337 3.567H34.83V10.533a19.122 19.122 0 0 1 18.26 19.071ZM33.167 19.328v13.843H15.64a19.122 19.122 0 0 1 17.526-13.843ZM14.906 38.4c0-1.197.115-2.391.34-3.567h17.92v22.638A19.121 19.121 0 0 1 14.907 38.4Zm19.923 10.276V34.833h17.525A19.12 19.12 0 0 1 34.83 48.676Z" fill="#EE7537"/></g><defs><clipPath id="a"><path fill="#fff" transform="translate(5 5)" d="M0 0h58v58H0z"/></clipPath></defs></svg>