<svg xmlns="http://www.w3.org/2000/svg" width="68" height="68" fill="none"><path d="M31.057 28.849c.05-.4.143-.8.15-1.209.021-1.215.028-2.43.007-3.646-.014-.951.1-1.88.45-2.839.05.108.108.215.15.322a8.37 8.37 0 0 1 .28.822c.457-.114.335-.514.421-.793.322-1.051.243-2.131.236-3.21-.007-.566.172-.844.715-1.044.33-.122.465-.272.286-.623-.214-.422-.05-.822.136-1.208.029-.05.072-.107.072-.157.071-.587.143-1.166.207-1.752.086-.78.157-1.566.236-2.352 0-.015 0-.022.007-.036.036-.708.072-1.416.1-2.13.015-.294-.1-.516-.372-.68-.328-.2-.557-.486-.486-.915.014-.072.057-.143.115-.28.121.158.2.265.286.365.05.058.15.143.178.13a.376.376 0 0 0 .165-.201c.064-.236.1-.472.143-.708.043-.007.078-.007.121-.014.072.329.143.658.23 1.044.2-.215.35-.386.514-.565.286.479.236.736-.336 1.13-.279.185-.372.386-.358.7.022.48-.014.951.015 1.43.05.858.057 1.73.228 2.567.136.658.2 1.302.208 1.96 0 .157.036.342.121.478.33.55.208 1.08-.035 1.623.2.072.386.122.557.215.3.15.45.407.45.75.008.716.015 1.43 0 2.146-.006.314.008.6.215.872.2.257.272.572.243.908-.007.107.086.222.13.329.106-.114.235-.207.307-.343.05-.093 0-.236.014-.35.029-.15.079-.294.121-.444.05 0 .108 0 .158-.007.071.286.207.565.214.85.057 2.21.093 4.42.136 6.629 0 .107.036.215.05.315.029 0 .065.007.093.007.029-.065.079-.129.086-.2.043-.408.064-.816.107-1.23.007-.079.022-.18.072-.236.064-.086.171-.2.243-.193.078.014.178.143.207.236.143.529.258 1.072.4 1.608.1.4.18.458.708.615.108-.329.222-.665.358-1.087.393.515.586.987.636 1.523.022.23.079.458.107.694.015.107.022.215.008.322-.036.35-.115.7-.122 1.044-.014 1.68.007 3.36-.014 5.04-.007.372.121.458.465.451 2.588-.014 5.17-.007 7.757 0 .322 0 .508-.057.537-.443.028-.38.379-.651.808-.665.228-.007.314-.093.4-.308.379-1.05.472-2.138.429-3.246-.021-.508 0-.5.53-.515.114 0 .228-.043.342-.064.4-.079.33-.443.415-.7.122-.387.2-.794.3-1.195.008-.036.029-.064.036-.1.043-.186.036-.515.122-.543.264-.072.557-.029.8-.029.172.708.344 1.38.487 2.052.043.193.114.25.3.265.486.028.58.143.586.643 0 .343-.028.694 0 1.037.057.68.15 1.351.23 2.03.013.115.013.237.013.358v6.185c0 .15.036.307.058.458.043.007.085.021.128.028.265-.422.537-.844.801-1.273.157-.257.243-.55.565-.693.114-.05.164-.265.214-.415.258-.794.472-1.594.765-2.374.1-.257.35-.472.58-.657.279-.23.414-.18.622.135.178.286.371.565.557.851.043 0 .08-.007.122-.007.007-.15.029-.293.021-.443-.007-.179.008-.365-.05-.53-.185-.571-.55-.993-1.13-1.193-.278-.093-.4-.272-.385-.558.007-.258-.043-.536.343-.58.15-.014.293-.1.45-.157.208.315.415.63.622.937.036-.021.072-.036.108-.057.042-.458-.108-.887-.294-1.301-.207-.487-.436-.966-.607-1.466-.236-.687-.222-1.402-.172-2.11.029-.5.143-.993.222-1.494.035-.2.15-.243.336-.164.228.1.465.178.7.271.029-.043.065-.085.093-.128-.207-.208-.386-.458-.622-.615-.214-.143-.5-.186-.75-.286-.172-.072-.365-.129-.508-.243-.307-.243 0-.565.315-.73.1-.05.221-.057.336-.085.286.336.529.707.943.872.036-.029.065-.057.1-.086-.114-.164-.2-.365-.343-.493-.679-.6-1.015-1.373-1.144-2.253a9.788 9.788 0 0 1-.114-1.122c-.043-.851-.079-1.702-.107-2.553-.015-.386.021-.393.371-.264.143.057.294.086.437.128.078-.343-.23-.715-.637-.772-.15-.021-.329-.05-.457.007-.544.244-.83-.05-1.102-.507.365-.179.73-.358 1.102-.544-.365-.672-.93-1.144-1.595-1.487-1.058-.543-1.637-1.466-2.06-2.524-.178-.45-.357-.894-.571-1.43.45.029.88.057 1.33.093-.165-.536-.3-.643-.772-.658-.458-.014-.887.015-1.316.23-.186.092-.48.042-.694-.022-.071-.022-.114-.33-.064-.472.079-.25.286-.4.572-.394h.436c-.522-.586-.994-1.108-1.694-1.215-1.03-.15-1.98-.465-2.832-1.051-.329-.229-.579-.565-.865-.844a36.695 36.695 0 0 0-.465-.436c.193-.114.394-.236.587-.358-.186-.336-.494-.436-.851-.235-.186.107-.322.293-.515.378-.207.093-.486.194-.658.122-.136-.064-.229-.379-.221-.58.007-.135.192-.335.343-.385.25-.086.536-.079.8-.107.1-.015.2-.015.3-.022.015-.036.022-.079.037-.114-.122-.043-.25-.129-.372-.129-1.588.043-2.875-.75-4.19-1.48-.208-.114-.315-.415-.48-.622a1.222 1.222 0 0 0-.328-.308c-.53-.293-1.094-.529-1.595-.865-.543-.357-1.036-.8-1.551-1.208l.021-.136c.358-.057.722-.122 1.08-.172 1.23-.178 2.324.315 3.446.68.165.057.28.1.4-.072.036-.05.144-.064.222-.071.801-.079 1.545.128 2.274.436.987.407 1.773 1.08 2.517 1.816.078.079.171.15.329.279.021-.286.036-.5.05-.822.622.393 1.194.757 1.845 1.165 0-.272-.008-.436 0-.593.021-.265.178-.415.436-.408.257 0 .4.107.407.415.007.457.072.915.122 1.373.007.064.071.121.2.178.022-.164.043-.329.072-.536.207.093.407.164.586.265.88.507 1.787.972 2.61 1.565.407.294.665.816.93 1.273.292.515.507 1.073.764 1.602.036.071.093.143.172.264.078-.278.093-.514.214-.665.108-.143.343-.286.494-.257.214.036.429.143.379.515-.065.486-.5.693-.637 1.115-.107.315-.143.587.129.908.164-.364.315-.686.465-1.008.035-.079.107-.136.164-.207.065.057.129.114.186.178.465.522.915 1.059 1.402 1.56.521.528.843 1.179 1.08 1.851.178.515.22 1.08.335 1.616.107.486.243.972.38 1.523.078-.15.164-.243.178-.343.029-.35.236-.415.536-.4.336.014.494.257.515.493.014.207-.15.443-.279.629-.071.1-.25.129-.372.207a1.05 1.05 0 0 0-.386 1.352c.243-.23.465-.437.744-.694.179.343.343.658.515.973.479.879.872 1.801 1.015 2.774.121.844.071 1.716.043 2.58-.014.394.021.509.472.601.164.036.414.108.443.208.057.243.022.515-.021.772-.008.057-.2.1-.308.114-.508.043-.858.315-1.08.751-.064.122-.057.28-.1.522.394-.171.687-.3 1.044-.457.029.45.05.85.072 1.25.043.623.078 1.252.121 1.874.043.644.2 1.309.108 1.93-.115.809-.408 1.588-.658 2.367-.129.4-.322.78-.508 1.23h1.359c0 .308.043.58-.022.822-.028.115-.25.25-.386.25-.386.008-.772-.07-1.158-.085-.544-.014-.851.279-.958.894.228-.015.45-.022.672-.036.171-.007.472-.064.493-.014.072.186.064.407.05.615-.014.2-.093.393-.1.586-.014 1.637-.493 3.103-1.523 4.39-.63.787-1.23 1.595-1.895 2.467.25.014.437.028.615.028.415.008.637.18.7.551.051.322-.135.493-.392.6-.336.15-.687.044-.873-.25-.028-.05-.043-.114-.085-.157-.115-.122-.25-.336-.35-.322a.733.733 0 0 0-.465.315c-.208.379-.322.772-.1 1.215.078.165.057.422-.015.601a22.53 22.53 0 0 1-.872 1.902c-.565 1.094-1.266 2.08-2.467 2.574a4.288 4.288 0 0 1-.98.293c-.886.129-1.48.658-1.916 1.38-.207.35-.35.744-.508 1.123-.264.629-.679 1.03-1.4 1.058-.566.021-1.052.186-1.224.844-.107.414-.5.536-.9.564-.215.015-.43-.007-.644.008-.329.028-.55.228-.536.55.035 1.051-.758 1.452-1.71 1.309-.378-.058-.757-.143-1.136-.193-.665-.086-1.33-.15-1.995-.222-.064-.007-.128.028-.293.079.193.186.329.343.486.464.465.35.872.73.994 1.33.007.043 0 .093 0 .115-1.158.379-1.902-.222-2.574-1.223-.086.164-.121.243-.157.315-.55 1.194-1.595 1.787-2.753 2.18-.98.336-1.995.558-3.039.58-.844.02-1.687.128-2.524.078a15.44 15.44 0 0 1-2.61-.393c-.893-.2-1.773-.48-2.638-.787-.951-.343-1.788-.865-2.28-1.794-.187-.343-.351-.343-.58-.015-.122.172-.25.344-.372.515-.443.644-1.072.537-1.694.422-.05-.007-.13-.179-.115-.243.115-.408.358-.722.708-.98.272-.193.493-.457.744-.693-.015-.029-.029-.065-.05-.093-.13.021-.265.036-.394.064-.128.022-.271.1-.379.057-.708-.243-1.315.15-1.952.294-.786.178-1.53.193-2.095-.494-.228-.279-.386-.608-.25-1 .022-.058-.079-.208-.143-.222a14.44 14.44 0 0 0-1.108-.215c-.658-.093-.815-.222-.994-.88-.093-.335-.457-.514-.98-.564-.55-.057-1.13-.122-1.43-.687-.121-.228-.135-.507-.221-.765a2.699 2.699 0 0 0-.229-.55c-.107-.179-.279-.33-.379-.515-.3-.565-.786-.901-1.38-.972-1.466-.172-2.395-1.08-3.175-2.21A7.528 7.528 0 0 1 8.076 50.7a3.102 3.102 0 0 0-.257-.615c-.15-.28-.136-.444.057-.758.165-.272.007-.815-.157-1.173-.079-.179-.465-.136-.687.086-.207.207-.364.45-.715.486-.421.043-.786-.129-.829-.457-.029-.243.35-.601.68-.63.142-.014.285.015.428-.007.093-.014.243-.057.265-.114a.394.394 0 0 0-.065-.322c-.185-.193-.421-.343-.614-.53-.623-.614-1.287-1.193-1.717-1.98-.107-.193-.164-.414-.221-.629-.2-.758-.43-1.516-.572-2.288-.136-.758-.179-1.537-.272-2.388.536.036.965.057 1.473.093-.243-.393-.522-.686-.894-.765-.336-.072-.708-.022-1.058.043-.322.064-.744.035-.85-.179-.144-.293-.05-.586.12-.844.194-.3.494-.243.773-.178.164.042.322.135.586.25-.071-.258-.1-.422-.164-.572-.365-.844-.715-1.68-.794-2.617-.036-.408-.207-.8-.229-1.201a4.657 4.657 0 0 1 .13-1.294c.185-.794.328-1.588.285-2.41-.007-.207 0-.415 0-.708l1.13.515c-.122-.644-.365-1.058-.873-1.316-.321-.164-.686-.271-.85-.679.286-.35.607-.608 1.15-.386.015-.157.037-.265.037-.38.007-.693.028-1.379 0-2.073-.03-.607.114-1.172.328-1.723.308-.78.644-1.544.98-2.31.064-.15.207-.257.315-.392.121.135.264.257.364.414.136.208.236.43.4.65.05-.278.294-.478.158-.829-.207-.536-.472-.98-.98-1.294a.487.487 0 0 1-.164-.679c.2-.315.472-.365.772-.164.122.078.229.185.365.3.1-.43.186-.822.286-1.216.3-1.208.786-2.316 1.601-3.267.522-.608 1.037-1.23 1.602-1.895l.543 1.022c.022.043.03.093.058.13.043.056.1.114.143.164.05-.072.135-.143.135-.215.022-.55-.107-1.051-.521-1.451-.322-.315-.336-.665-.05-.887.421-.322.743-.05.872.408.021.071.021.15.086.257.45-1.123.994-2.166 1.902-2.982.915-.822 1.994-1.33 3.117-1.773l.236.486c.243-.4.229-.75.114-1.108-.064-.214-.135-.443.115-.6.436-.28.772-.115.808.407.007.136 0 .279 0 .486.636-.364 1.2-.686 1.794-1.03.079.172.143.322.236.53.158-.143.308-.258.43-.393.75-.88 1.737-1.373 2.83-1.66.487-.128 1.002-.164 1.502-.235.308-.043.515.064.522.457.565-.279 1.094-.543 1.623-.793a.95.95 0 0 1 .372-.093c.858-.007 1.716-.007 2.574.007.122 0 .25.114.372.179-.079.085-.143.193-.236.257-.844.522-1.695 1.037-2.538 1.544-.122.072-.265.108-.386.172-.079.043-.222.1-.222.15-.014.508-.458.622-.765.844-.922.658-1.924 1.158-3.025 1.423-.25.057-.521.007-.786.021-.157.007-.315.05-.465.079l-.021.136c.472.15.95.3 1.458.464-.2.3-.364.544-.543.808-.543-.264-.965-.95-1.766-.429.207.13.372.23.593.365-.193.2-.379.379-.543.572-.608.722-1.387 1.187-2.267 1.466-.536.171-1.1.221-1.637.4-.358.122-.672.358-.994.558-.2.129-.393.279-.586.522.243.05.486.093.73.143.142.028.278.064.42.1-.05.193-.042.415-.156.558-.079.107-.308.143-.465.129-.179-.022-.358-.122-.53-.2-.721-.351-1.172-.244-1.694.493h1.209c-.215.557-.408 1.015-.572 1.494-.43 1.251-1.409 1.973-2.46 2.645a4.523 4.523 0 0 0-1.244 1.173c-.022.036-.022.086-.043.179.15.014.279 0 .393.036.215.078.444.157.615.293.086.064.107.293.064.407a.48.48 0 0 1-.336.243c-.364.029-.736 0-1.108.015-.472.014-.772.35-.672.722.257-.05.515-.1.715-.136 0 .83.036 1.616-.014 2.402-.043.701-.086 1.43-.322 2.081-.207.594-.665 1.101-1.022 1.638-.115.171-.25.321-.372.486.028.028.05.057.078.078.444-.3.894-.6 1.337-.908.08.072.108.1.143.136.394.386.294.794-.243.987-.257.093-.522.15-.779.236-.365.121-.594.364-.665.7.322-.128.622-.242.922-.364.058.3.129.572.15.85.065.823.236 1.667.122 2.467-.107.723-.543 1.395-.815 2.095a3.607 3.607 0 0 0-.236.994c.157-.136.3-.286.472-.4.372-.257.686-.215.894.107.164.243 0 .744-.293.923-.25.15-.515.293-.751.464-.358.265-.38.694-.458 1.087-.057.272-.043.55-.071.944.207-.279.379-.493.536-.722.1-.143.179-.308.272-.458.228-.372.264-.386.55-.057.508.58.973 1.194 1.18 1.952.071.257.15.536.129.794-.029.407.15.672.4.972.322.379.515.865.83 1.258.278.358.636.658.965.98.25.25.507.5.772.736.093.086.214.15.386.258.014-.2.021-.3.021-.4 0-.694.015-1.38 0-2.074-.028-1.23-.107-2.46-.093-3.69.008-.657.18-1.322.272-1.98.022-.129.029-.258.029-.393v-2.574c0-.565.186-.78.743-.794.365-.007.286-.308.337-.486.15-.58.235-1.166.378-1.745.022-.093.208-.214.308-.2.179.014.443.079.493.2.265.615.53 1.23.487 1.938-.022.4.221.593.629.608.679.028.679.028.679.715 0 .336.021.672-.007 1a3.052 3.052 0 0 0 .293 1.51c.107.235.114.521.164.779.215.057.444.057.594.164.193.136.429.343.465.55.05.344.178.444.5.444 1.523-.007 3.053-.007 4.576-.007h3.432c.143 0 .28-.014.458-.022v-.45c0-2.145-.029-4.29.014-6.435.014-.644.215-1.287.336-1.93.015-.065.115-.158.165-.15.078.006.185.07.214.142.057.136.093.293.1.443.014.258.143.344.386.365.265.022.358-.136.408-.343.143-.58.293-1.158.429-1.745.043-.193.107-.393.322-.314.114.035.207.257.228.407.072.444.1.894.15 1.345.065.028.08.02.1.02Zm-10.09 20.185c-.013.05-.028.093-.042.143.157.057.315.164.465.157.722-.043 1.15.35 1.551.886.358.48.737.959 1.48.887.494-.05.758.2.923.622.236.615.493 1.223.75 1.83.315.744.959 1.152 1.63 1.452.694.308 1.452.486 2.181.722 1.059.35 2.167.465 3.268.508 1.359.057 2.731.071 4.083-.193.658-.129 1.315-.222 1.973-.358a.619.619 0 0 0 .35-.25c.372-.579.709-1.165 1.073-1.752a43.78 43.78 0 0 1 .972-1.516c.33-.486.923-.607 1.36-.943.657-.5 1.243-1.094 1.88-1.616.15-.122.414-.215.593-.179.45.093.558.064.744-.407-8.416.007-16.825.007-25.233.007Zm6.565 7.028c0 .572.028 1.108-.007 1.638-.036.572-.05 1.172-.208 1.716-.286 1.008-.665 1.987-1.03 2.974-.107.293.022.486.194.658.121.121.293.193.457.271 1.051.53 2.08 1.087 3.268 1.338.772.157 1.544.364 2.317.379 1.637.021 3.274.1 4.89-.394 1.173-.357 2.238-.822 3.153-1.68-.114-.136-.236-.243-.314-.386-.444-.8-.737-1.673-.773-2.581-.042-1.008.036-2.017.065-3.025.007-.164 0-.322 0-.465-.937.172-1.816.45-2.71.472-.844.022-1.666.25-2.538.065-.894-.193-1.83-.158-2.746-.25a19.711 19.711 0 0 1-1.709-.258c-.743-.136-1.487-.3-2.31-.472Zm5.427-14.364c.715-.294 1.294-.494 1.78-.322.686.25.7.214.486.908-.129.407-.1.443.336.443.665 0 1.337-.014 2.002.007.336.008.472-.078.472-.457-.014-3.718-.007-7.436-.007-11.154 0-.108.029-.23-.007-.322-.036-.086-.129-.2-.215-.215-.486-.093-.579-.007-.579.5v7.151c0 .765-.007 1.523.007 2.288.008.25-.078.343-.328.329-.308-.014-.623 0-.93-.007-.422 0-.586-.165-.586-.58 0-1.036-.008-2.073 0-3.11 0-.257-.022-.429-.358-.429-.329 0-.329.18-.322.415.008 1.123-.007 2.238.008 3.36.007.308-.122.35-.38.35-.257 0-.386-.042-.386-.35.015-1.072.008-2.145 0-3.217 0-.236.115-.543-.336-.55-.45-.008-.35.286-.35.529-.007 1.072-.007 2.145.007 3.217 0 .272-.064.393-.357.372a5.77 5.77 0 0 0-.93 0c-.357.036-.472-.086-.472-.458.015-2.988.008-5.984.008-8.973 0-.143.02-.286 0-.43-.043-.27-.158-.457-.494-.428-.3.028-.422.157-.422.457v11.37c0 .25.093.335.336.335.587-.007 1.166 0 1.752 0h.75c-.178-.4-.328-.7-.485-1.03Zm1.344 6.306H38.3c.214 0 .393.007.393-.307-.014-1.416-.007-2.832 0-4.248 0-.228-.079-.314-.307-.314-2.689.007-5.377.007-8.066 0-.264 0-.343.078-.336.35.014 1.38.022 2.76 0 4.14-.007.3.072.386.365.386 1.308-.014 2.631-.007 3.954-.007Zm-13.75 7.63c.265.2.48.378.715.528.065.043.222.057.265.007.114-.107.193-.257.286-.386-.122-.057-.236-.128-.358-.171-.657-.236-1.287-.522-1.53-1.252-.121-.357-.4-.507-.708-.629-.085-.035-.186-.05-.257-.107-.544-.493-1.201-.622-1.91-.593-.285.007-.471.157-.492.45-.015.279-.186.4-.422.443-.472.086-.951.158-1.423.222-.615.086-1.13.658-.6 1.408.2.28.428.551.693.758.407.315.472.68.271 1.109-.143.307-.007.464.258.536.407.121.815.207 1.23.307.443.1.915.108.993.751.03.229.308.558.53.615.486.122 1.015.114 1.38-.2L19.152 58l-.558-.022c-.007-.035-.007-.071-.014-.107.343-.129.693-.257 1.037-.386-.015-.057-.036-.114-.05-.172-.308.036-.615.072-.93.093-.057.008-.114-.035-.179-.05.036-.064.057-.143.115-.178.057-.036.143 0 .207-.022.279-.071.558-.143.836-.221-.993-.465-1.951-.036-2.91.035l-.021-.128c.615-.18 1.237-.358 1.852-.537v-.128c-.615-.158-1.258-.008-1.91-.093.087-.13.158-.23.28-.408h-1.63c0-.029-.008-.05-.008-.079.15-.093.293-.178.45-.271-.207-.115-.364-.208-.528-.293.014-.022.021-.05.035-.072l.83-.043c.007-.028.014-.064.028-.093-.135-.114-.264-.229-.4-.343l.057-.1c.236.121.465.25.7.372.301.157.573.436.945.207.2-.121.364-.121.55.014.122.093.258.165.393.243.2.122.408.236.608.35l.05-.07c-.307-.28-.615-.551-.922-.83.05-.057.1-.122.157-.179l2.11 1.423.221-.279Zm30.11.707c-.008.021-.008.05-.015.072-.064.014-.129.035-.186.028-.429-.057-.858-.107-1.287-.172-.293-.042-.543 0-.808.265.493.129.93.25 1.359.365l-.022.143c-.9-.058-1.794-.122-2.695-.179l-.022.143c.329.236.737.186 1.108.279.386.1.758.229 1.137.35-.071.107-.129.15-.178.143-.322-.05-.644-.107-.966-.179-.243-.057-.407-.057-.429.272-.028.422-.136.837-.164 1.251-.014.243-.165.58.2.715.229.086.479.143.715.165.558.036.915-.315.93-.88.007-.429.121-.514.543-.557.493-.05.98-.129 1.466-.236.414-.093.615-.4.622-.83 0-.107-.015-.229.036-.314.285-.472.579-.944.879-1.402.35-.536.207-1.187-.408-1.387-.514-.171-1.08-.214-1.63-.243-.35-.014-.422-.136-.407-.443 0-.115-.13-.293-.236-.33-.23-.07-.487-.085-.73-.1-.936-.056-1.637.494-2.345.966a.758.758 0 0 0-.286.887c.215-.05.4-.1.687-.172-.337.422-.615.772-.894 1.116.922-.551 1.716-1.266 2.624-1.817l.114.136-1.394 1.287c.029.036.064.072.093.108.443-.265.887-.537 1.323-.801.078.128.136.228.207.357.687-.257 1.366-.615 2.102-.043-.157.1-.3.186-.465.293.143.122.265.222.386.322-.007.029-.02.065-.028.093h-1.566c0 .029-.007.05-.007.079.214.086.429.171.636.25Zm-3.554-4.59c.014.035.028.071.043.1-.422.357-.844.708-1.259 1.08-.458.414-.872.85-.65 1.558.014.057-.058.186-.122.215-.372.186-.744.357-1.123.536-.228.107-.457.222-.779.379.186.05.257.071.336.086.987.107 1.78-.4 2.596-.83.071-.035.128-.228.1-.329-.13-.436-.072-.586.35-.765.422-.186.85-.357 1.266-.572.707-.364.736-.586.243-1.144-.108-.121-.15-.379-.108-.543.165-.658.372-1.309.551-1.96a.474.474 0 0 0-.007-.314c-.33-.722-.772-.886-1.423-.407-.315.236-.53.593-.8.886-.187.2-.394.386-.602.58-.393-.573-.543-.616-.929-.122-.407.515-.744 1.094-1.065 1.666-.2.357-.193.379-.494.071-.293-.3-.5-.293-.772.022-.064.071-.121.15-.172.228-.421.73-.843 1.46-1.25 2.189-.208.378-.387.779-.608 1.215.464.029.886.129 1.144-.307.135-.23.207-.494.307-.744.064-.172.129-.35.186-.522.415.336.071.665.021 1.022.45-.207.458-.586.544-.915.178-.665.557-1.144 1.215-1.487.072.15.129.272.186.4.029-.035.057-.071.086-.1l.45-1.18.122.022c.014.279.036.565.05.844.029.007.057.014.079.021.15-.35.3-.693.45-1.044.029.007.05.014.079.022.014.164.021.329.035.486l.108.021c.193-.464.386-.93.593-1.423.065.165.107.28.157.415.487-.486.773-1.065 1.323-1.408-.05.221-.1.443-.15.672.172.035.322.064.472.1l.086.143c-.143.1-.293.193-.436.3-.322.243-.637.493-.944.75-.05.044-.065.137-.093.208.079.007.172.029.243.007.122-.021.243-.078.365-.128Zm-6.757 7.514c-.1.63.164.959.708.98.093 0 .193.014.279.05.643.315 1.28.643 1.93.944.114.05.329.028.422-.05.2-.172.386-.193.622-.122.586.172 1.187.293 1.759.5.393.144.665.08.908-.228.25-.322.293-.68.072-1.023-.194-.307-.43-.586-.673-.915.2-.157.408-.314.608-.472.157-.121.157-.221.014-.379-.35-.393-.8-.614-1.287-.786-.321-.114-.629-.25-.93-.38.223-.778.022-1.057-.721-1.014-.4.028-.801.171-1.202.257-.121.029-.243.043-.364.064a3.828 3.828 0 0 0-.129-.336c-.207-.464-.35-.529-.794-.307-.357.179-.707.393-1.05.6-.093.058-.15.165-.236.25.371.33.672-.17 1.065-.014-.365.236-.687.437-1.001.637.014.028.028.064.043.093 1.022.186 1.952-.472 2.953-.45.007.035.014.07.021.114l-1.845.579c.008.05.022.107.029.157l2.21-.107.02.114c-.314.129-.636.25-.95.38.014.056.021.106.036.164h2.903c0 .05.007.1.007.15-.422.336-.98.007-1.509.229.5.171.93.321 1.351.472-.093.085-.164.085-.228.1-.15.035-.294.078-.444.121.115.108.215.222.343.308.33.228.666.443 1.002.665-.108.078-.186.1-.244.071-.378-.164-.758-.3-1.186-.3-.194 0-.394-.136-.572-.243-.322-.186-.63-.393-1.016-.63.022.286.043.472.057.665-.028.015-.05.03-.078.043-.215-.243-.415-.5-.65-.729-.237-.222-.509-.415-.766-.615l-.086.086c.014.143.036.293.057.486-.371-.236-.686-.443-1.008-.65-.028.021-.057.042-.078.064.071.193.15.386.243.63a5.204 5.204 0 0 1-.615-.223ZM22.24 57.278c-.458.171-.916.314-1.359.507-.379.165-.815.258-1.087.751.172.143.35.286.522.43.165.142.215.264.058.478-.222.3-.415.636-.558.987a.736.736 0 0 0 .007.565c.15.3.922.565 1.251.465a21.89 21.89 0 0 0 1.509-.494c.229-.086.379-.064.579.079.15.1.4.143.572.093.2-.065.372-.243.53-.4.264-.28.585-.437.957-.48.2-.021.408 0 .608-.007.393-.007.63-.229.63-.608 0-.071-.037-.178-.087-.214-.043-.029-.143.014-.214.043-.136.05-.272.114-.465.2.122-.35.215-.593.322-.908-.272.143-.472.25-.672.357-.1-.143-.165-.243-.293-.421-.465.414-.908.807-1.395 1.236v-.55c-.107.057-.236.093-.321.164-.3.25-.587.515-.887.765-.093.08-.207.13-.35.208.007-.38-.093-.493-.43-.33-.235.108-.514.122-.772.18-.014-.022-.028-.05-.043-.072.337-.243.673-.479 1.009-.722-.015-.036-.029-.064-.043-.1-.193-.014-.386-.036-.572-.05a.434.434 0 0 0-.05-.1c.322-.33.872-.286 1.222-.608-.422-.143-.893.1-1.287-.222a.93.93 0 0 1 .444-.128c.765-.008 1.523.007 2.288 0 .136 0 .264-.029.4-.043.007-.043.007-.079.014-.122-.378-.093-.758-.178-1.136-.272.007-.05.014-.1.028-.15h2.024c0-.028.007-.05.007-.078l-1.23-.544a.364.364 0 0 0 .014-.093c.894.05 1.745.4 2.624.53.015-.03.029-.058.043-.093a8.033 8.033 0 0 0-.25-.33c.129-.142.257-.278.45-.486-.135-.107-.271-.207-.4-.314-.68-.587-1.13-.608-1.852-.093-.057.036-.129.078-.193.071-.465-.021-.944 0-1.394-.1-.465-.1-.901.193-.844.665 0 .122.036.236.072.358Zm1.422-5.113-.143.022c-.328-.6-.657-1.194-.972-1.802-.307-.586-.558-.686-1.144-.436-.093.036-.272.014-.336-.05-.279-.272-.515-.587-.794-.865-.228-.23-.472-.53-.758-.601-.557-.143-.893.307-.993.937-.1.65.157 1.208.45 1.752.157.285.215.529-.114.757-.372.265-.365.558.007.801.393.258.815.472 1.223.715.378.229.765.436.672 1.008-.022.13.178.365.329.437.636.278 1.287.536 1.944.757.258.086.544.065.823.093a.55.55 0 0 0 .014-.107c-.758-.508-1.702-.693-2.517-1.316.243-.064.379-.107.572-.157-.086-.078-.136-.136-.2-.171-.608-.4-1.223-.801-1.83-1.209-.058-.035-.065-.143-.094-.214.072 0 .158-.015.208.014.393.236.78.486 1.18.722.107.064.243.093.364.136.015-.029.036-.057.05-.086-.507-.422-1.015-.85-1.587-1.33l.508-.143c-.422-.493-.83-.965-1.23-1.437.021-.021.043-.036.071-.057.115.021.23.036.4.064-.135-.322-.242-.572-.385-.915.529.229.822.53 1.022.944.072.143.243.357.336.336.322-.064.386.1.458.343.093.33.221.644.336.965l.114-.021c.043-.086.086-.165.15-.293.172.35.322.643.465.944.05-.015.1-.036.15-.05a45.053 45.053 0 0 0-.136-.966c.05-.014.108-.028.158-.043.207.587.414 1.18.622 1.767l.078-.022a40.726 40.726 0 0 0-.128-.815c.264.107.536.207.786.336.093.05.157.172.193.279.129.4.222.815.372 1.208.079.2.25.365.379.55.036-.02.072-.05.107-.07-.05-.18-.093-.358-.143-.537-.043-.172-.078-.35-.121-.53.85 1.717 1.194 1.696 1.701 1.61 0-.022.008-.05 0-.065-.4-1.244-1-2.395-1.658-3.517-.18-.308-.565-.287-.773.007-.05.107-.114.214-.186.321Zm-5.27-.9c-.1-.387-.2-.701-.25-1.016-.05-.336-.278-.593-.621-.608-.165-.007-.35.043-.494-.014-.164-.064-.379-.193-.422-.336-.15-.508-.414-.75-.922-.615-.372.1-.665-.007-.965-.179-.33-.185-.658-.307-1.044-.279-.48.036-.78.28-.744.758.043.537.172 1.059.265 1.61a2.155 2.155 0 0 1-.172.128c-.493.372-.522.615-.157 1.137.028.035.078.064.093.107.143.343.343.68.4 1.037.079.5.2.622.694.45.093-.035.186-.064.279-.093-.043-.136-.072-.243-.122-.393.45.164.787.472 1.337.372-.307-.236-.536-.408-.765-.587.014-.035.036-.071.05-.114.265.05.53.107.8.157l.044-.085c-.2-.15-.4-.3-.586-.465-.065-.057-.158-.15-.143-.208.071-.3-.115-.414-.308-.564-.229-.186-.593-.35-.3-.765.028-.036-.007-.136-.036-.2-.122-.337-.25-.673-.379-1.009.021-.014.043-.028.057-.043.286.193.565.394.923.637v-.68l.121-.021c.107.329.229.65.308.987.093.364.121.758.55 1.022-.036-.393-.071-.708-.1-1.03.021 0 .05-.007.072-.007.25.58.5 1.152.743 1.73l.143-.042c-.007-.608-.336-1.173-.386-1.83.48.314.522.764.63 1.2.078.315.214.608.321.916l.15-.043c-.028-.265-.05-.536-.078-.8-.029-.237-.08-.473-.122-.709l.107-.021c.072.136.129.272.208.407.379.658.379.658.822.1Zm34.178 2.016c.18.486.38.629.68.529.314-.107.443-.408.343-.772a.276.276 0 0 1 .014-.186c.207-.365.386-.751.644-1.08.328-.422.364-.415 0-.8-.28-.294-.3-.63-.25-.995.042-.286.1-.579.1-.872-.008-.386-.444-.78-.758-.672a8.225 8.225 0 0 0-1.123.493c-.293.143-.558.293-.822-.043-.186-.236-.35-.064-.472.058a9.915 9.915 0 0 0-.744.815c-.129.157-.257.193-.429.093-.221-.129-.422-.086-.565.114-.128.179-.264.372-.343.572-.164.408-.286.837-.028 1.259.121.207.271.221.407.014.107-.157.215-.322.329-.486.036.014.079.021.114.035-.071.38-.136.766-.207 1.144.043.008.086.015.129.029.586-.63.55-1.566 1.058-2.238-.036.336-.136.658-.193.987-.064.329-.093.658-.136.986.05.015.1.022.15.036.444-.543.55-1.244.787-1.88.035.007.064.021.1.028-.05.33-.1.651-.143.98.036.007.078.021.114.029.215-.522.43-1.044.672-1.645.079.215.122.357.186.536.336-.25.644-.486.98-.743-.15.443-.35.815-.408 1.215-.05.393-.171.665-.515.865-.157.093-.264.272-.393.408.029.021.05.043.079.071l1.05-.493c.022.036.044.079.065.114-.472.587-1.287.758-1.787 1.309.021.029.035.057.057.086.343-.129.686-.258 1.022-.38.015.036.029.072.043.1l-.8.523.02.086c.323-.086.637-.158.973-.23ZM8.148 45.1c.057-.186.129-.336.15-.493.157-1.18-.45-2.095-1.108-2.968-.4-.529-1.03-.736-1.602-1.015-.336-.164-.708-.257-1.072-.35-.272-.065-.437.043-.394.357.072.5.1 1.008.222 1.502.143.593.315 1.18.536 1.744a8.714 8.714 0 0 0 1.323 2.253c.429.522.908.95 1.594 1.094.172-.637.05-.923-.564-1.173-.358-.143-.658-.436-.98-.665a.932.932 0 0 1 .072-.107c.5.171 1 .35 1.501.522-.558-.715-1.223-1.309-1.687-2.03-1.044-1.631-1.166-2.046-1.001-2.382.293.53.579 1.037.893 1.595.086-.158.122-.243.172-.322a3.71 3.71 0 0 1 .164-.243c.28.7.143 1.523.93 2.016.036-.264.057-.458.086-.672.286.422.093 1.108.765 1.337Zm-1.966-7.794c-.072-.607-.122-1.158-.208-1.694a43.369 43.369 0 0 0-.415-2.138c-.15-.672-.171-1.38-.529-2.002-.357-.63-.843-1.087-1.58-1.33-.093.2-.2.372-.243.565-.086.415-.057.858-.2 1.244-.25.672.107 1.308.05 1.966-.029.365.086.744.186 1.109.279 1.03.658 2.023 1.208 2.931.258.43.6.808.915 1.201.05.058.165.065.244.093.021-.071.078-.171.05-.214-.215-.393-.408-.794-.673-1.151-.25-.33-.586-.587-.872-.887-.264-.279-.257-.472.036-.65.222.314.443.621.665.936.043-.029.093-.05.136-.079-.315-.65-.63-1.294-.944-1.959h.422c-.029-.128-.036-.271-.079-.393-.2-.55-.415-1.094-.63-1.659.144-.043.273-.086.366-.114L4 32.238c.171.293.279.593.336.901.043.257.15.407.436.379v.844c0 .286-.021.572.014.858.015.143.086.35.193.407.222.122.25.28.25.5-.014.694.144.909.952 1.18Zm57.78-6.885c-.716.164-1.166.65-1.538 1.187-.515.743-.572 1.659-.758 2.51-.136.614-.136 1.265-.214 1.894-.043.358-.079.73-.193 1.066-.115.336.021.529.236.75.064-.164.078-.357.178-.421.294-.194.315-.48.322-.773.007-.364 0-.736 0-1.108.086.129.186.272.322.465.315-1.309.615-2.546.922-3.825.408.321-.071.7.15 1.044.108-.143.2-.25.286-.365-.193 1.008-.822 1.895-.807 3.024.2-.2.343-.336.478-.472a.485.485 0 0 0 .065.058c-.065.107-.129.221-.2.328-.265.4-.558.787-.801 1.202-.215.364-.315.765-.029 1.172-.322.336-.736.63-.536 1.28.536-.765 1.166-1.38 1.609-2.13-.029-.022-.057-.05-.079-.072-.272.179-.536.358-.808.53-.028-.037-.057-.072-.086-.108.215-.186.4-.436.651-.558.722-.343 1.03-.994 1.058-1.673.05-1.537-.043-3.082-.086-4.626 0-.122-.093-.25-.143-.38Zm-47.177 12.37c0-1.523 0-3.046-.007-4.57 0-.12-.057-.314-.136-.35-.186-.078-.407-.1-.622-.107-.407-.021-.586.164-.586.572v3.21c0 1.666-.057 3.34.028 4.998.05.923.086 1.18.98 1.13.3-.014.35-.129.35-.386-.007-1.494-.007-2.996-.007-4.497Zm12.205 4.833c.472.079.544.029.544-.386v-3.825c0-.272-.007-.53.207-.758.1-.108.129-.308.129-.465 0-.308-.079-.608-.079-.915.014-.772.079-1.538.079-2.31.007-2.652.007-5.312 0-7.965 0-.086.014-.172-.007-.25-.015-.057-.058-.136-.115-.158-.429-.192-.765.022-.765.472V47.21c.007.136.007.265.007.415Zm32.011-1.859c-.4.236-.772.429-1.122.658a2.79 2.79 0 0 0-.587.5c-.064.072-.035.243-.014.365.007.036.15.093.2.072.2-.093.422-.18.587-.33.507-.478 1.015-.95 1.465-1.48.315-.371.601-.8.787-1.25.279-.666.493-1.366.658-2.074.114-.494.114-1.023.164-1.545-.257.015-.443.008-.629.043-.7.122-1.387.25-1.873.865-.308.394-.658.751-.994 1.109-.665.715-1.016 1.53-.744 2.524.022.085.072.157.107.236.08-.058.208-.1.236-.172.1-.286.172-.58.258-.872.064-.215.136-.43.207-.644.036.007.065.014.1.014 0 .208-.007.415.007.63 0 .057.065.121.115.15.028.014.114-.029.143-.072.25-.372.464-.743.522-1.215.05-.386.228-.751.35-1.13l.179.043c-.057.322-.122.636-.172.958-.014.064.014.136.022.207.05-.028.128-.05.157-.093.265-.436.515-.872.78-1.308.064-.114.164-.207.243-.307-.394 1.744-1.352 3.146-2.66 4.404.629.172.915-.58 1.508-.286ZM39.68 39.138c0-2.717 0-5.427.007-8.144 0-.293-.064-.415-.393-.43-.394-.013-.415.18-.415.48.007 3.56.007 7.122 0 10.682 0 .472 0 .923.272 1.33.05.079.05.208.05.308v3.86c0 .094-.029.208.014.28.043.071.15.15.229.15.071 0 .193-.093.214-.165.036-.136.022-.286.022-.429v-7.922Zm12.434 7.257c.036.022.071.036.107.057.215-.271.415-.564.658-.815.329-.336.465-.722.457-1.18-.007-1.909 0-3.81-.007-5.72-.007-1.036.157-.858-.886-.886-.3-.007-.358.107-.358.379.007 2.617 0 5.24 0 7.858.007.1.022.2.029.307ZM4.072 25.024c.544-.022.522-.337.522-.665.007-.222.043-.45.129-.651.086-.2.365-.2.443 0 .107.265.236.522.1.844-.157.379-.264.793.158 1.137.078.064.05.278.035.414-.035.3-.107.6-.157.908.2-.028.322-.1.436-.171.522-.336.544-.901.572-1.416.057-1.065-.193-2.08-.572-3.067-.093-.25-.243-.487-.386-.723-.129-.2-.3-.243-.457-.028a9.03 9.03 0 0 0-.551.815c-.686 1.18-.644 2.488-.536 3.768.071.808.336 1.602.522 2.395.05.215.135.43.207.637.143-.093.236-.193.236-.286.014-1.309.157-2.646-.7-3.911Zm8.495 27.935c.128-.465.007-.85-.215-1.165-.55-.794-1.194-1.48-2.188-1.745-.508-.136-.972-.129-1.451.05-.165.064-.222.164-.143.365.178.407.314.836.472 1.25.593 1.553 1.687 2.56 3.303 2.983.5.135.815-.072.8-.501-.014-.357-.278-.357-.528-.393-.522-.072-1.052-.136-1.573-.215-.108-.014-.194-.121-.294-.186.015-.028.022-.057.036-.086.393.03.794.058 1.266.086-.5-.758-1.423-.593-2.038-1.208.3-.036.5-.079.7-.086.608-.014.608-.014.494-.593 0-.015.029-.029.072-.086.421.508.457 1.337 1.287 1.53Zm43.65.672a.946.946 0 0 1 .037.136c-.122.057-.243.143-.372.164a25.07 25.07 0 0 1-1.645.215c-.422.043-.557.264-.364.636.114.222.243.344.5.2.086-.042.215-.007.315-.035.443-.136.944-.2 1.322-.45 1.402-.916 1.974-2.382 2.489-3.905-.136-.064-.236-.15-.343-.157-.615-.064-1.223-.05-1.824.179-.715.272-1.215.794-1.666 1.38-.336.429-.321.894.015 1.273.407-.258.565-.673.722-1.095.064-.178.107-.364.2-.521.036-.065.164-.086.25-.122.007.086.022.164.022.25-.015.193-.036.386-.057.58a.5.5 0 0 0 .092.035c.587-.45.644-1.365 1.409-1.716l-.022.422h.537c-.522.45-.98.844-1.495 1.294.244.043.358.065.472.086l.022.086c-.722.372-1.444.736-2.167 1.108.015.036.022.072.036.107.5-.071 1.008-.107 1.516-.15Zm5.914-25.983c-.007-.129.029-.28-.029-.38-.193-.35-.107-.657.086-.965.179-.286.2-.593.1-.922-.135-.465-.25-.937-.379-1.437.158.057.265.1.408.157.029-.236.043-.429.064-.615.043-.014.079-.021.122-.035.121.278.3.55.357.843.065.308.015.644.015.994.185-.079.286-.128.393-.171-.8 1.308-.565 2.717-.594 4.175.115-.1.18-.129.194-.171.164-.487.364-.973.478-1.473.2-.844.237-1.702.237-2.574 0-1.144-.415-2.117-.901-3.096-.093-.193-.258-.286-.408-.072-.25.343-.593.68-.686 1.066-.2.843-.43 1.687-.386 2.58.028.823.307 1.517.929 2.096ZM9.156 15.85c.071.315-.129.48-.272.665-.214.293-.443.58-.643.88-.05.071-.007.207-.007.364.321-.207.586-.343.808-.529.214-.186.543-.408.557-.636.065-.901.043-1.81.015-2.71-.008-.15-.165-.365-.308-.43-.1-.042-.329.087-.436.201-.63.65-1.301 1.28-1.566 2.195-.222.758-.522 1.509-.658 2.288-.128.744-.086 1.509-.1 2.267 0 .121.065.243.1.364h.108c.05-.093.107-.193.15-.293.157-.357.314-.715.457-1.072.079-.2.165-.415.165-.63 0-.336-.057-.665-.1-1.03.414.037.443-.178.45-.485.014-.544.086-1.087.129-1.623.128.078.229.143.329.207.143-.258.264-.465.386-.672l.121.057c-.021.229-.043.458-.071.722.157-.036.257-.064.386-.1Zm51.488 5.255c.05-.007.1-.014.15-.014.043-.143.114-.279.114-.422.008-.958 0-1.909-.186-2.86-.2-1.058-.514-2.066-1.122-2.946-.315-.457-.694-.893-1.237-1.122-1.094 1.687-.636 3.596.922 4.318-.178-.722-.765-1.18-.88-1.866.151.129.301.265.508.45 0-.3.015-.5 0-.7-.014-.193-.057-.379-.092-.658.393.315.157.951.75.973.079.507.143 1.022.236 1.53.065.357.179.7.236 1.058.05.35.029.7.222 1.03.129.221.129.514.207.772.029.157.107.307.172.457ZM22.856 43.006c0-1.466-.008-2.931.007-4.397.007-.358-.208-.322-.436-.336-.236-.007-.372.021-.372.321.007 2.896.007 5.792 0 8.688 0 .329.164.386.45.393.3.007.358-.114.358-.379-.015-1.43-.008-2.86-.008-4.29Zm25.826 0c0 1.43.007 2.86-.008 4.29-.007.343.15.38.43.386.3.007.379-.1.379-.393-.008-2.831-.008-5.67-.008-8.502 0-.257-.007-.493-.35-.5-.3 0-.443.157-.443.508v4.211Zm-26.956 4.62v-4.942c0-1.308.007-2.617-.007-3.925 0-.122-.058-.307-.136-.343-.408-.172-.65.014-.65.45v8.18c0 .636.07.694.793.58Zm-8.459-35.48c.036.022.072.036.107.057.18-.228.358-.45.53-.679.622-.808 1.115-1.644 1.28-2.703.135-.879-.143-.908-.808-.7-.122.036-.244.1-.35.171-.594.386-1.13.83-1.56 1.416-.543.744-.993 1.509-1.194 2.41-.035.164.015.35.022.522.043.007.086.021.128.028.358-.536.73-1.065 1.073-1.616.35-.564.68-1.15 1.037-1.759.028.136.043.23.079.394.378-.365.722-.694 1.065-1.023.043.029.079.057.121.086-.05.107-.078.236-.157.322-.264.286-.565.55-.815.85-.129.158-.272.394-.243.558.05.28-.05.422-.236.565-.157.129-.322.243-.472.38-.15.142-.279.307-.422.464.029.029.05.064.079.093.207-.072.414-.15.636-.229.05.172.072.286.1.393Zm39.34-3.825c-.422 1.144 1.008 3.847 1.852 4.083-.036-.394-.036-.386.386-.315.093.014.193-.007.365-.021-.55-.444-1.03-.823-1.523-1.223.186-.172.443-.329.207-.636 0 0 .143-.165.193-.15a.61.61 0 0 1 .279.2c.207.314.393.643.6.958.072.107.165.193.25.293l.087-.043.043-.465.085-.021c.1.379.2.758.3 1.13.1.378.222.743.68.85.193-1.773-2.18-4.368-3.804-4.64Zm-28.25 34.614c0 1.465 0 2.924-.007 4.39 0 .264.071.35.343.35.308.007.38-.121.372-.4-.007-2.867-.007-5.735 0-8.602 0-.257-.05-.393-.35-.4-.294-.007-.365.107-.358.379.007 1.43 0 2.86 0 4.283Zm21.672.064c0 1.43.007 2.86-.007 4.29 0 .293.078.393.379.393.364.007.336-.221.336-.443 0-2.824 0-5.649.007-8.473 0-.25-.043-.465-.35-.472-.336-.007-.365.229-.365.486.007 1.402 0 2.81 0 4.219Zm-2.21.007c0 1.43.008 2.86 0 4.29 0 .265.065.38.358.38.3 0 .35-.122.35-.387-.007-2.846-.007-5.699-.007-8.544 0-.058.022-.136-.007-.172-.093-.107-.2-.279-.3-.272-.129 0-.279.129-.372.243-.057.065-.021.208-.021.315v4.147Zm-20.563-.071c-.007 0-.007 0 0 0-.007 1.465 0 2.924-.007 4.39 0 .257.071.357.343.35.243-.007.365-.043.365-.329-.008-2.903-.008-5.806 0-8.709 0-.25-.058-.357-.336-.364-.294 0-.365.107-.365.379v4.283ZM8.763 49.212l.186-.021c.114-.636.236-1.28.35-1.916.1-.572.143-1.173.315-1.724.25-.793.572-1.58.922-2.33.222-.465.243-.901.064-1.352-.028-.064-.271-.136-.322-.093-.507.458-.922.994-1.1 1.666-.158.6-.265 1.216-.401 1.824-.093.4-.243.793-.272 1.194-.05.629-.035 1.265 0 1.894.029.28.172.565.258.858Zm48.241-7.407c-.464.236-.743.894-.564 1.351.278.715.579 1.416.879 2.124.365.858.622 1.744.622 2.688 0 .408-.007.808.007 1.216 0 .078.079.157.129.236.071-.043.172-.072.222-.136.314-.436.507-.908.436-1.459-.022-.186-.1-.364-.129-.543-.079-.5-.107-1.008-.229-1.494a27.95 27.95 0 0 0-.672-2.288c-.193-.58-.465-1.13-.7-1.695ZM45.63 43.006v-4.319c0-.207.014-.4-.3-.414-.315-.015-.408.093-.408.407.007 2.867.007 5.742.007 8.609 0 .05-.022.107.007.143.072.086.143.215.236.229.393.064.458 0 .458-.4v-4.255Zm-18.39-.036c0-1.444-.008-2.881 0-4.325 0-.236-.03-.372-.322-.372-.3-.007-.35.128-.35.386.007 2.881.007 5.763 0 8.651 0 .244.028.365.321.372.3 0 .35-.114.35-.379-.007-1.444 0-2.888 0-4.333Zm19.941 4.662c.644.079.65.079.65-.515v-8.322c0-.55-.07-.6-.65-.45v9.287Zm-3.775-4.654c0-1.452-.007-2.903.007-4.355 0-.264-.086-.343-.35-.343-.336-.007-.33.193-.33.415 0 1.058.008 2.116.008 3.174v5.32c0 .279.036.493.4.486.372 0 .265-.264.265-.45.007-1.416 0-2.832 0-4.248Zm-1.759 4.654c.665.086.665.086.672-.522v-5.248c0-1.058.007-2.116-.007-3.182 0-.121-.079-.322-.164-.343a.474.474 0 0 0-.408.107c-.079.079-.086.258-.086.394-.007 2.366 0 4.74 0 7.107-.007.55-.007 1.108-.007 1.687Zm-21.55-4.576c0-1.43-.008-2.86.007-4.283 0-.272-.072-.386-.365-.386-.336 0-.343.2-.343.443 0 2.825.007 5.642 0 8.466 0 .265.05.386.35.386.293 0 .358-.1.358-.372-.015-1.422-.007-2.838-.007-4.254Zm5.377-.014c0 1.43.007 2.86-.008 4.29 0 .264.086.343.35.35.372.007.33-.236.33-.457v-8.43c0-.236-.022-.415-.337-.415-.321 0-.335.172-.335.415.007 1.408 0 2.831 0 4.247Zm-6.843-5.148c-.458-.072-.522-.022-.522.393v8.78c0 .122-.029.25.007.35.036.094.129.215.222.237.293.071.314-.122.314-.35-.007-3.025-.007-6.05-.007-9.067.007-.114-.007-.236-.014-.343Zm-8.995 10.31c0 .236-.029.48.014.708.029.15.165.279.25.415a8.62 8.62 0 0 0 .272-.48c.007-.02 0-.05 0-.07.05-.416.05-.852.165-1.245.3-1.022.665-2.03.994-3.046.135-.422.521-.843.071-1.308a4.37 4.37 0 0 0-.179-.193c-.071.064-.178.121-.214.2-.207.436-.4.88-.594 1.323a9.677 9.677 0 0 0-.779 3.696Zm47.19 1.416c.551-.1.644-.243.537-.68-.029-.128-.065-.257-.065-.378-.007-.858.058-1.73-.235-2.56-.272-.765-.537-1.523-.83-2.28-.05-.13-.243-.194-.372-.294a10.84 10.84 0 0 0-.228.386c-.022.05-.008.114-.015.179-.093.55.258.972.43 1.444.4 1.108.764 2.224.779 3.418v.765Zm2.846-23.295c.2-.043.322-.072.444-.1-.036-.115-.072-.236-.115-.35-.014-.043-.064-.065-.1-.1-.3-.344-.608-.687-.95-1.08.728-.136.185-.687.371-1.051.486.336.644.829.837 1.344.343-.25.128-.558.078-.722-.243-.801-.722-1.423-1.63-1.723-.057.2-.136.371-.143.55-.021.694.021 1.38.215 2.067a7.056 7.056 0 0 0 1.072 2.259c.05.071.136.114.207.171.022-.021.043-.035.065-.057a24.318 24.318 0 0 0-.35-1.208Zm-9.016 21.35c.014-.143.036-.243.036-.35 0-2.975 0-5.956-.007-8.93 0-.165-.072-.33-.115-.494-.043-.007-.093-.014-.136-.022-.064.144-.193.287-.193.43-.014 2.967-.007 5.934-.007 8.894 0 .265.122.393.422.472Zm3.79-6.528c-.008-.98 0-1.952-.015-2.931 0-.122-.114-.244-.171-.365-.122.086-.272.15-.365.264-.064.08-.064.222-.064.337v5.255c0 .107-.029.243.021.314.115.136.272.236.408.35.064-.135.171-.264.171-.4.022-.936.015-1.88.015-2.824ZM7.405 27.355c.15-.15.27-.25.357-.38.186-.257.386-.514.507-.807.23-.558.48-1.123.58-1.71.1-.593.028-1.208.021-1.815 0-.294-.186-.415-.436-.272a2.951 2.951 0 0 0-1.337 1.602c-.05.15.043.35.064.521.129-.1.279-.185.379-.314.164-.215.279-.465.45-.672.058-.072.222-.1.315-.079.05.014.093.179.093.272 0 .622-.214 1.137-.73 1.516-.128.093-.192.279-.3.45.25-.029.415-.05.572-.064-.078.164-.143.329-.228.493-.029.064-.093.107-.13.172-.142.322-.37.6-.178 1.087Zm7.264 18.24.193-.022c.021-.143.05-.286.05-.429.007-2.274.007-4.547 0-6.814 0-.093.021-.207-.022-.279-.043-.086-.15-.186-.229-.186-.078.007-.164.115-.221.2-.036.05-.007.136-.007.208 0 2.102-.015 4.211.007 6.313.007.343.15.672.229 1.008Zm-6.207-4.32c.437.201.258.544.28.809.028.3.006.6.006.972.437-.479.43-1.015.3-1.466-.328-1.137-.943-2.088-2.037-2.667-.744-.393-.722-.4-.744.436-.007.408.2.694.458.98l-.086-.415c.293-.121.515-.028.615.186.129.265.279.33.572.18.107.571.215 1.107.315 1.644.028-.008.057-.015.093-.022l.228-.636Zm5.535 4.806c0 .386-.065.707.014.986.079.28.307.508.672.608 0-.2.036-.357-.007-.5-.272-.958-.83-1.73-1.573-2.381-.172-.15-.293-.13-.393.064-.222.422-.394.865-.358 1.351.029.4.064.794.122 1.187.043.25.25.315.464.25.258-.078.136-.25.072-.4-.222-.5-.2-.63.179-.965.321.379.5-.014.808-.2Zm45.41-5.563c.143.043.236.071.322.1.2-.329.379-.636.586-.98l.336.672c.036-.007.079-.014.114-.028.05-.422.093-.844.15-1.344-.207.078-.321.107-.421.164-1.016.594-1.795 1.402-2.253 2.503-.257.622-.178 1.23.186 1.844.065-.293.15-.522.165-.765.014-.314.114-.421.422-.228.143-.658.264-1.28.393-1.938Zm-47.341 3.975c-.129.115-.3.208-.379.35-.615 1.08-.965 2.246-.972 3.497 0 .157-.043.322-.086.48-.122.407-.007.671.364.8.172-.708.337-1.423.522-2.13.215-.809.415-1.617.68-2.403.086-.258.05-.394-.129-.594ZM47.209 6.112c.021-.022.05-.036.071-.058-.078-.135-.136-.293-.236-.414-.615-.708-1.401-1.051-2.323-1.109-.086-.007-.25.13-.25.186.014.222.042.458.135.651.293.6.665 1.151 1.187 1.573.165.129.429.222.622.193.193-.036.358-.25.594-.436-.48-.207-.808-.35-1.159-.493.179-.551-.486-.515-.615-.894.422.014.823-.129 1.173.25.215.229.53.372.8.55Zm8.923 43.672c.022.015.043.022.072.036.071-.429.164-.858.207-1.294.014-.136-.122-.286-.129-.436-.028-1.08-.293-2.095-.865-3.018-.086-.143-.25-.243-.379-.357-.107.15-.236.286-.307.45-.036.08.021.208.057.3.286.759.608 1.51.85 2.274.215.673.337 1.366.494 2.045ZM7.462 33.482c.042.022.078.036.12.057.137-.264.33-.514.394-.793.208-.908.229-1.824.007-2.732-.028-.107-.107-.293-.157-.286-.136.007-.315.058-.4.15-.265.3-.508.623-.744.944-.236.33-.207.751.107 1.173.079-.229.172-.4.186-.572a.868.868 0 0 1 .422-.708c.136.207.257.393.386.593-.743 1.209-.7 1.016-.322 2.174Zm53.06-1.423c.286-.178.394-.443.25-.679a9.299 9.299 0 0 0-.75-1.072c-.1-.115-.35-.215-.472-.172-.136.05-.279.272-.293.422-.057.643-.129 1.301-.079 1.945.029.386.265.765.429 1.136.029.065.15.086.229.122.036-.079.093-.157.1-.236.021-.25-.036-.515.036-.743.085-.265-.008-.444-.1-.665-.1-.244-.136-.515-.18-.773-.014-.085.044-.257.094-.271a.43.43 0 0 1 .322.078c.1.086.164.222.221.35.079.172.122.35.193.558ZM22.434 5.082c.021.036.035.071.057.107-.157.086-.329.165-.472.272-.129.1-.315.243-.322.365-.007.278-.164.364-.357.457-.336.165-.38.336-.1.715.05.065.3-.007.45-.043a.42.42 0 0 0 .2-.136c.315-.336.665-.65.915-1.03.244-.371.387-.807.58-1.215l-.086-.085c-.265.035-.53.085-.794.107-.586.05-1.094.286-1.544.636-.129.1-.165.329-.236.5.036.03.078.05.114.08.422-.48.908-.852 1.595-.73ZM53.98 47.818c.329.093.658-.121.65-.415a101.88 101.88 0 0 0-.092-2.087.67.67 0 0 0-.079-.23c-.107-.242-.265-.264-.436-.07a7.151 7.151 0 0 0-.465.578c-.336.472-.686.93-.972 1.43-.243.408-.022.701.5.715.007-.214.007-.421.036-.636.029-.2.086-.393.143-.63.093.108.157.194.25.308.122-.143.222-.271.329-.393.393.207.436.644.136 1.43ZM51.864 9.465c0-.937-1.41-2.417-2.51-2.603-.108 1.202.436 2.102 1.208 2.889.165-.122.293-.214.415-.307-.258-.244-.48-.444-.68-.658-.057-.057-.121-.179-.1-.236.13-.3-.042-.5-.185-.715-.08-.115-.136-.243-.208-.372.029-.021.057-.036.093-.057.358.486.98.758 1.123 1.423.014.057.086.114.136.15.236.171.464.322.708.486ZM18.258 6.641c-.036-.015-.079-.036-.114-.05-.13.071-.258.143-.38.214-.757.465-1.436 1.008-1.844 1.823-.072.15-.1.322-.143.487a.992.992 0 0 1 .093.05c.114-.23.25-.415.515-.25.357-.48.4-1.216 1.187-1.266-.136.586-.108 1.23-.737 1.687.444.007.7-.114.83-.414.164-.387.329-.787.436-1.187.085-.358.1-.73.157-1.094ZM6.203 28.427c.029 0 .064.007.093.007-.057.687-.107 1.366-.165 2.052l.108.022c.128-.193.293-.372.372-.587.278-.736.143-1.501.128-2.259 0-.207-.121-.293-.372-.2-.557.221-.822.636-.936 1.187.157.107.3.207.472.336.114-.2.207-.38.3-.558Zm21.865-24.46c-1.001-.48-3.189.164-3.61.98.557-.122.95-.852 1.73-.466-.265.236-.472.422-.68.601.022.043.043.093.065.136.3-.072.614-.1.886-.222.33-.15.63-.364.937-.565.214-.143.422-.293.672-.464Zm11.719-.093c.272.936 1.694 1.658 2.217 1.28-.08-.272-.143-.501-.222-.73-.029-.086-.043-.2-.107-.236-.572-.35-1.194-.429-1.888-.314ZM60.615 27.79c-.121.808.022 1.63.1 2.48.358-.078.45-.214.386-.557-.085-.436-.057-.894-.078-1.344a.623.623 0 0 1 .114-.014c.265.622.808 1.136.665 1.966.279-.165.515-.25.422-.544a5.113 5.113 0 0 0-.329-.85c-.257-.544-.458-1.166-1.28-1.137ZM8.785 38.659c.085.164.156.293.207.422.071.171.221.386.164.514-.179.444.079.773.229 1.123.021.057.114.086.214.15.129-1.072-.078-2.002-.636-2.846-.107-.157-.315-.25-.5-.386-.258.494-.501.908-.337 1.48.236-.157.437-.3.658-.457Zm49.957-.794c-.2.243-.358.415-.486.608-.365.529-.787 1.037-.658 1.766.043.236-.007.508.315.522.035 0 .128-.358.135-.55 0-.25-.057-.501-.093-.751.38.021.687.042.987.057.172.007.272-.057.207-.265-.135-.414-.25-.83-.407-1.387Zm-24.446-19.92c-.008.136-.015.25-.015.357v3.318c0 .157-.035.322.015.458.035.107.178.178.271.264.058-.085.165-.178.165-.264a214.4 214.4 0 0 0 .007-3.675c-.007-.25-.136-.415-.443-.458Zm2.674 6.886c-.043.021-.086.05-.129.071v4.362c.043.014.086.035.129.05.093-.158.257-.315.264-.472a96.78 96.78 0 0 0 0-3.525c-.007-.157-.171-.322-.264-.486Zm-3.575-2.503c.343-.043.436-.215.436-.493-.007-1.13 0-2.267 0-3.397 0-.085.014-.193-.029-.243-.085-.1-.207-.164-.321-.243-.036.1-.108.2-.108.308a324.516 324.516 0 0 0 0 3.718c0 .107.015.214.022.35Zm28.143 9.545c-.05-.021-.093-.043-.143-.064-.3.522-.658 1.022-.887 1.573-.172.422-.207.915-.265 1.373-.043.322.079.586.358.722.143-.636.279-1.251.429-1.859.057-.229.107-.5.257-.672.3-.329.315-.68.25-1.073Zm-55.886-.55-.107.086c.694 1.194.923 2.51 1.008 3.96.129-.157.2-.228.25-.314.3-.457.287-.994.136-1.437-.25-.736-.643-1.43-1-2.13-.036-.087-.186-.108-.287-.165Zm26.134-6.471-.136.043c-.043.558-.121 1.122-.121 1.68 0 .55.078 1.101.107 1.652.014.3 0 .6 0 .908.05.014.093.036.143.05.071-.122.207-.243.207-.365.015-1.158.015-2.31 0-3.468-.007-.164-.136-.335-.2-.5Zm-21.079-8.616c.437.114.701-.021.951-.257.215-.208.458-.38.687-.572.028.021.05.043.079.064-.093.2-.23.393-.258.6-.028.194.057.401.093.608.057.008.107.008.165.015.286-.63.564-1.259.872-1.945-1.094.179-1.802.815-2.588 1.487Zm25.376 8.637c-.035.058-.057.08-.057.1-.007 1.044-.014 2.088-.007 3.132 0 .272.193.315.443.243 0-1.036.007-2.052 0-3.074 0-.229-.136-.358-.379-.4Zm20.585-8.294c-.214-.515-1.63-1.516-2.123-1.487 0 .122-.029.258.007.372.136.415.279.822.443 1.223.05.121.186.293.286.3.129.007.265-.136.4-.215L54.91 15.7c.544-.122.687-.043.909.4.193.408.407.53.85.48Zm-21.064 1.473c-.057.007-.107.007-.164.015-.029.15-.072.307-.072.457-.007 1.08-.007 2.16 0 3.246 0 .15.057.294.093.444.05 0 .093 0 .143.007.036-.122.107-.243.107-.365.008-1.137.008-2.28 0-3.418-.007-.136-.071-.257-.107-.386ZM16 10.016c-.23.121-.43.171-.53.293-.157.207-.2.5-.364.693-.315.386-.68.744-1.03 1.094-.171.172-.372.308-.593.494 1.365-.18 2.152-.973 2.517-2.574ZM7.647 22.264c.408-.494.394-1.066.029-1.38-.064-.05-.222-.05-.308-.007-.522.278-.815.75-1.086 1.287.843.2.965-.45 1.194-.994.057.386.107.693.171 1.094Zm28.014 3.282c-.035-.015-.064-.029-.1-.043-.107.164-.293.329-.3.5-.036.63-.029 1.259-.007 1.888.007.1.186.2.293.3.057-.1.157-.2.157-.307.015-.701.007-1.402.007-2.102-.007-.08-.035-.158-.05-.236Zm-1.422-.015c-.358.143-.415.208-.415.53a76.948 76.948 0 0 0 0 1.823c0 .1.05.207.078.307.05.007.1.021.143.029.08-.186.222-.372.23-.565.035-.594.02-1.187.014-1.788 0-.1-.036-.214-.05-.336Zm.35 1.302h-.036c.036.386.064.772.122 1.15.014.08.157.137.243.208.05-.093.136-.186.143-.286a6.13 6.13 0 0 0 0-.887 16.706 16.706 0 0 0-.115-1.186c-.007-.072-.128-.13-.193-.194-.05.08-.15.15-.15.236-.021.315-.014.637-.014.959Zm-1.066.078c-.007-.343.015-.693-.014-1.03-.014-.12-.15-.228-.229-.343-.078.115-.207.23-.221.35-.029.401-.007.809-.007 1.21 0 .264-.029.528.007.779.021.114.178.207.279.314.064-.107.171-.207.185-.322.022-.314 0-.636 0-.958ZM12.138 12.754c-.05.014-.2.036-.336.1-.236.115-.437.637-.272.722.236.129.286.308.322.544.007.043.2.121.228.093.122-.108.243-.236.3-.38.08-.214.086-.457.15-.686.108-.386.1-.4-.392-.393Zm22.294 10.36c-.372.008-.501.158-.494.572.007.294.293.63.55.637.23.007.573-.35.58-.586 0-.415-.222-.63-.636-.622Zm-17.919 9.782c-.028.093-.071.164-.071.243-.007.55-.014 1.094.007 1.644.007.115.15.222.229.33.078-.122.214-.237.221-.358.03-.436 0-.88.015-1.323.014-.286-.129-.429-.4-.536Zm33.284-22.13a18.345 18.345 0 0 0-.429-.836c-.036-.072-.143-.172-.193-.158-.257.058-.5.15-.75.236.107.186.2.372.314.551.036.057.1.1.157.143.293.243.65.25.901.064Zm5.892 3.146c.107-.007.207-.007.293-.028.093-.022.186-.072.279-.107-.065-.086-.108-.193-.186-.258a13.606 13.606 0 0 0-.715-.558.427.427 0 0 0-.215-.085c-.035 0-.085.1-.093.164-.1.55.165.958.544 1.394.028-.128.043-.2.057-.278.007-.072.022-.15.036-.244Zm-39.554 19.9c.014-.23-.244-.451-.53-.473-.257-.014-.658.286-.579.494.1.264.279.536.5.707.144.108.594-.443.608-.729ZM59.75 21.305l1.18 1.587c.293-.458.279-.78-.072-1.108-.286-.272-.543-.658-1.108-.48Zm-27.099 7.121c.043-.2.093-.336.093-.472.007-.858.014-1.716.007-2.574 0-.129-.078-.257-.136-.436-.286.379-.25 3.096.036 3.482Zm20.614 6.1c.329-.087.586-.308.586-.523 0-.243-.443-.665-.7-.672-.186 0-.587.458-.48.622.143.229.394.386.594.572Zm-1.001.635c.05-.014.1-.035.143-.05 0-.6 0-1.2-.007-1.794a.403.403 0 0 0-.093-.23c-.057-.063-.143-.106-.215-.163-.043.085-.128.164-.128.25-.015.486-.029.98.007 1.458.021.186.193.358.293.53Zm-34.42-24.624c.228.285.45.271.686.078.1-.079.243-.114.322-.207.135-.15.235-.33.357-.494-.15-.064-.3-.128-.443-.193-.015-.007-.022-.014-.029-.014-.171.007-.336.022-.508.029.029.15.065.3.1.464-.15.1-.307.215-.486.336Zm35.8 2.173c.028-.05.057-.093.086-.143-.108-.071-.215-.136-.308-.214-.221-.172-.55-.308-.622-.522-.078-.23-.214-.372-.343-.544-.179-.243-.322-.507-.493-.758-.043-.064-.136-.107-.2-.157-.015.079-.058.157-.036.229.171.693.636 1.201 1.144 1.666.214.186.514.293.772.443ZM34.718 30.508c0 .336.007.643 0 .944-.008.2.078.257.271.271.3.022.45-.064.408-.393a1.69 1.69 0 0 1 0-.465c.043-.321-.093-.436-.4-.386a2.1 2.1 0 0 1-.28.029Zm-1.445 2.652c0 .108.007.215 0 .322-.028.265.115.315.343.322.265.007.372-.086.358-.35a3.818 3.818 0 0 1 0-.572c.021-.265-.114-.33-.343-.322-.222.007-.38.043-.35.314 0 .093-.008.194-.008.286Zm0-2.023c0 .071.007.143 0 .214-.021.258.05.387.35.38.3-.008.365-.144.344-.394-.007-.071 0-.143 0-.214 0-.272.064-.608-.336-.615-.422-.007-.358.35-.358.629Zm11.877 24.84c.135.371.428.343.622.271.436-.157.829-.422.893-1.022-.5.25-1 .5-1.515.75Zm-34.7-39.019c-.179.093-.357.158-.508.265-.078.057-.114.186-.135.286-.015.114.014.236.021.357.007.158 0 .308 0 .5.694-.435.901-.907.622-1.408Zm9.224-8.623c.093-.114.214-.236.314-.379.1-.136.186-.286.28-.436-.709-.186-1.388.036-1.56.558.222-.057.422-.172.587-.136.136.029.236.236.379.393Zm14.328 26.813c-.042-.121-.057-.386-.178-.45-.33-.172-.544 0-.55.386v.286c0 .386.056.422.428.393.415-.029.2-.35.3-.615Zm.73-.493v1.151c.221-.057.55-.072.579-.172.086-.271.079-.586.022-.865-.015-.071-.372-.071-.601-.114Zm-.014-1.466v.272c.007.143-.043.364.193.322a.747.747 0 0 0 .457-.28c.079-.114.014-.321.022-.486.014-.236-.072-.314-.322-.343-.5-.05-.315.308-.35.515Zm25.511 2.581c.057.751-.107 1.437.293 2.074.343-.408.2-1.552-.293-2.074Zm-3.31-19.849c.021-.428-.372-.922-.801-1.043-.079-.022-.208-.022-.25.028-.043.05-.022.172.007.25.178.472.622.572 1.044.765ZM31.564 24.31c.022.043.036.078.058.121.486 0 .965.007 1.451-.007.1-.007.193-.114.293-.172-.093-.057-.186-.164-.279-.164a8.517 8.517 0 0 0-1.13 0c-.142.007-.264.143-.393.222Zm4.74-.236c0 .007 0 .007 0 0-.214.007-.428 0-.643.007-.05 0-.1.071-.15.114.05.05.1.136.157.136.422.043.844.072 1.266.086.072 0 .143-.1.222-.15-.072-.065-.136-.18-.208-.186-.214-.022-.436-.007-.643-.007Zm-25.64-8.623c.43.171 1.08-.38 1.066-.923-.493.143-.858.444-1.065.923ZM6.969 35.599c-.415.293-.55 1.25-.257 1.651.278-.514.321-1.05.257-1.651Zm50.623-17.103c.043-.022.085-.036.128-.058-.107-.214-.214-.421-.35-.693.258.057.45.107.644.15.014-.036.028-.064.043-.1-.322-.2-.637-.393-.959-.594-.028.022-.05.043-.078.065.207.407.114.944.572 1.23ZM24.25 6.784c-.286-.258-1.194-.1-1.273.186-.021.071.165.278.2.264.358-.129.701-.293 1.073-.45Zm23.195.85c.236.344.808.501 1.187.33-.28-.35-.68-.458-1.187-.33Zm10.882 10.361c-.007.7.372 1.022.73.78-.222-.244-.458-.487-.73-.78ZM34.46 28.655c.107.273-.164.587.207.73.093.036.372-.15.372-.243.008-.314-.236-.422-.579-.486Zm-10.475 26.4c.029-.086.05-.122.043-.129-.343-.322-.68-.643-1.03-.958-.02-.021-.1.029-.15.043.022.064.022.15.065.186.343.286.693.558 1.072.858ZM43.22 6.462h1.166c-.35-.365-.801-.393-1.166 0Zm-6 17.196c.014-.472-.057-.55-.386-.55-.243 0-.279.135-.243.314.071.45.386.157.63.236Zm-2.931 4.984c-.136.05-.265.05-.294.107-.071.143-.136.307-.136.457 0 .058.172.122.265.18.057-.122.129-.244.157-.373.029-.1.008-.221.008-.371ZM9.255 17.695l-.15-.065c-.15.186-.315.372-.45.572-.036.05-.015.2.035.243.043.043.215.03.236-.014.129-.236.222-.493.33-.736Zm22.409 5.441v.486c.536.086.593.022.457-.493-.079-.007-.157-.015-.236-.015-.071 0-.136.015-.221.022ZM44.742 7.349c-.179-.408-.48-.515-.822-.322.264.107.514.2.822.322Z" fill="#EE7537"/><path d="M34.117 63.277c.129-.229.243-.465.393-.672.15-.215.343-.386.494-.6.271-.394.178-.83-.222-1.102-.236-.164-.486-.3-.708-.472-.236-.186-.322-.422-.193-.722.086-.193.136-.4.193-.6.15-.494.322-.623.83-.637.164-.007.336 0 .5 0 .572.007.572.007.493.593-.243.043-.5.079-.75.143a1.91 1.91 0 0 0-.522.193c-.065.036-.093.258-.05.3.121.13.286.244.45.315.944.4 1.294 1.309.687 2.188-.387.58-.937.987-1.595 1.073Zm4.841-4.813c-.079.286-.136.536-.23.772-.02.05-.178.079-.27.072a6.464 6.464 0 0 1-.73-.122c-.215-.05-.35.057-.35.23 0 .128.107.3.221.378.286.2.658.3.894.544.708.736.586 1.265.057 2.009-.229.329-.6.564-.937.8-.2.136-.45.158-.657-.157.221-.193.436-.415.679-.579.6-.393.815-.965.465-1.466-.143-.207-.43-.314-.644-.472-.15-.107-.315-.214-.443-.35a.41.41 0 0 1-.093-.322c.05-.25.186-.479.207-.73.043-.464.4-.535.73-.585.343-.058.7-.022 1.1-.022Zm-8.831 4.564h-1.122c.114-1.402.193-2.775-.065-4.169.115-.05.258-.1.393-.165.394-.185.63-.05.63.38.007.843-.015 1.687.014 2.53.014.465.093.93.15 1.424Zm1.402.583c-.008-.193-.065-.393-.022-.564.25-1.009.53-2.017.8-3.018.037-.143.115-.271.215-.493-.378 0-.7.021-1.008-.007-.143-.015-.372-.115-.4-.222-.072-.257-.065-.565.229-.708.164-.078.364-.114.543-.121.486-.015.973-.008 1.53-.008-.1.3-.164.551-.264.78-.186.458-.408.9-.572 1.366-.308.836-.594 1.68-.608 2.595 0 .143-.172.286-.258.43-.064-.015-.128-.022-.185-.03Zm.221-18.067V43.72c0-.186-.021-.364.258-.35.257.007.407.107.407.379v3.646c0 .244-.1.372-.358.387-.228.014-.314-.065-.314-.308.014-.643.007-1.287.007-1.93Zm1.123 2.202v-3.94c0-.222-.014-.45.315-.436.314.007.314.236.314.457v3.432c0 .551 0 .551-.63.487Zm2.295-.007v-3.861c0-.236-.05-.515.322-.5.357.014.314.293.314.521v3.347c0 .572 0 .572-.636.493Zm-4.605-2.158v-1.816c0-.207.022-.393.294-.386.257.007.343.15.343.393 0 1.237-.008 2.474.007 3.704 0 .279-.129.3-.35.308-.244.014-.3-.093-.3-.315.014-.63.006-1.258.006-1.888Zm3.447-2.168c.579-.086.572-.086.572.465 0 1.15 0 2.302.007 3.453 0 .236-.036.465-.322.436-.114-.014-.293-.2-.293-.307-.021-1.309-.007-2.61-.007-3.919.007-.05.036-.092.043-.128Zm4.111 2.24c0 .614-.014 1.236.007 1.851.007.244-.093.28-.286.28-.193 0-.35.006-.35-.265.007-1.273.007-2.539.007-3.811 0-.215.086-.336.322-.322.221.014.307.136.307.35-.007.637-.007 1.273-.007 1.917Zm-1.237-.031c0 .615-.014 1.237.007 1.852.007.243-.086.3-.307.308-.243.007-.3-.086-.3-.315.007-1.237 0-2.467 0-3.704 0-.207.028-.379.293-.393.3-.014.314.179.314.4-.007.622-.007 1.237-.007 1.852Zm8.602 8.053c.514-.336 1.022-.672 1.537-1.015-.165.587-1.03 1.159-1.487 1.108-.015-.028-.036-.064-.05-.093Zm-34.993-1.759c-.408-.336-.815-.672-1.294-1.058.464-.215.743.021 1 .164.301.165.351.494.401.801-.036.029-.071.064-.107.093Z" fill="#EE7537"/></svg>