<svg xmlns="http://www.w3.org/2000/svg" width="68" height="68" fill="none"><path d="M25.43 62.087c1.836.569 3.723.956 5.634 1.156l.169-1.645a28.002 28.002 0 0 1-5.318-1.09l-.485 1.579ZM15.367 56.64a29.616 29.616 0 0 0 4.767 3.212l.78-1.448a27.893 27.893 0 0 1-4.498-2.998l-1.049 1.234ZM21.12 9.604l-.768-1.456a29.31 29.31 0 0 0-4.792 3.171l1.037 1.275a27.606 27.606 0 0 1 4.524-2.99ZM36.657 61.63l.157 1.644a29.756 29.756 0 0 0 5.617-1.094h.033l-.49-1.57a27.826 27.826 0 0 1-5.316 1.02Zm20.156-46.081-1.275 1.036a27.365 27.365 0 0 1 2.994 4.524l1.455-.77a28.79 28.79 0 0 0-3.175-4.79Zm-4.051-4.078a29.298 29.298 0 0 0-4.767-3.207l-.78 1.447a27.645 27.645 0 0 1 4.523 3.027l1.024-1.267Zm-5.754 47.071.77 1.452a29.223 29.223 0 0 0 4.795-3.166l-1.04-1.275a27.602 27.602 0 0 1-4.525 2.99ZM26.17 7.545c1.727-.516 3.5-.863 5.293-1.037l-.156-1.645c-1.903.183-3.783.55-5.614 1.098l.14.518.337 1.066Zm16.524-1.489a28.98 28.98 0 0 0-5.63-1.148l-.168 1.645c1.801.177 3.581.531 5.313 1.057l.485-1.554ZM12.752 16.418l-1.267-1.049a29.613 29.613 0 0 0-3.212 4.767l1.448.78a27.714 27.714 0 0 1 3.03-4.498ZM11.32 52.574l1.275-1.037a27.613 27.613 0 0 1-2.99-4.523l-1.455.765a28.895 28.895 0 0 0 3.17 4.795Zm44.05-.842 1.266 1.049a29.59 29.59 0 0 0 3.228-4.779l-1.447-.785a27.918 27.918 0 0 1-3.048 4.515Zm5.152-9.487 1.57.49a29.338 29.338 0 0 0 1.152-5.635l-1.645-.168a27.96 27.96 0 0 1-1.077 5.313Zm1.658-16.531v-.062l-1.563.514a28.228 28.228 0 0 1 1.036 5.326l1.645-.152a29.72 29.72 0 0 0-1.119-5.626Zm-54.56.205-1.572-.485a29.338 29.338 0 0 0-1.151 5.634l1.645.168a27.672 27.672 0 0 1 1.077-5.317ZM5.962 42.401v.062l1.57-.494a27.672 27.672 0 0 1-1.035-5.309l-1.645.156c.188 1.894.56 3.764 1.11 5.585Z" fill="#FF5F21"/><path d="m64.145 64.14-2.122-7.912-2.32 2.316-14.529-14.53a14.85 14.85 0 0 0 3.804-9.94 14.85 14.85 0 0 0-3.804-9.923l14.53-14.53 2.319 2.316L64.145 4l-7.92 2.122 2.314 2.32L44.01 22.974a14.833 14.833 0 0 0-9.936-3.808 14.805 14.805 0 0 0-9.935 3.808L9.605 8.44l2.32-2.319L4 4l2.122 7.92 2.32-2.315 14.533 14.546a14.85 14.85 0 0 0-3.796 9.915 14.855 14.855 0 0 0 3.808 9.94L8.454 58.536l-2.32-2.316-2.122 7.92 7.925-2.121-2.32-2.32 14.534-14.533a14.805 14.805 0 0 0 9.936 3.808 14.834 14.834 0 0 0 9.935-3.808l14.53 14.533-2.316 2.32 7.909 2.122Zm-43.32-30.074a13.275 13.275 0 0 1 13.262-13.258 13.27 13.27 0 0 1 13.258 13.258A13.274 13.274 0 0 1 34.087 47.33a13.275 13.275 0 0 1-13.263-13.263Z" fill="#FF5F21"/></svg>