<svg xmlns="http://www.w3.org/2000/svg" width="68" height="68" fill="none"><path d="M64.341 30.458a3.51 3.51 0 0 0-1.131.19L51.47 10.226a3.558 3.558 0 0 0-1.075-6 3.517 3.517 0 0 0-4.106 1.241 3.557 3.557 0 0 0-.605 1.405H22.212a3.552 3.552 0 0 0-1.748-2.398 3.516 3.516 0 0 0-4.22.611 3.547 3.547 0 0 0-1.003 2.796c.045.511.2 1.007.453 1.452.188.328.428.624.71.874L4.467 30.583a3.516 3.516 0 0 0-3.077.6A3.545 3.545 0 0 0 0 34.003a3.56 3.56 0 0 0 1.39 2.822 3.525 3.525 0 0 0 3.077.6l11.937 20.374c-.282.25-.522.543-.71.87a3.561 3.561 0 0 0-.306 2.662 3.545 3.545 0 0 0 1.635 2.117 3.52 3.52 0 0 0 2.643.365 3.534 3.534 0 0 0 2.143-1.597c.192-.336.328-.701.403-1.081h23.472c.075.38.211.745.403 1.081a3.542 3.542 0 0 0 2.427 1.726 3.517 3.517 0 0 0 2.879-.748 3.544 3.544 0 0 0 1.29-2.691 3.56 3.56 0 0 0-1.214-2.727l11.74-20.42a3.42 3.42 0 0 0 1.132.193 3.516 3.516 0 0 0 2.58-.992A3.55 3.55 0 0 0 68 34.004a3.562 3.562 0 0 0-1.08-2.554 3.53 3.53 0 0 0-2.579-.992Zm-3.458 2.853H49.834v-6.916l11.168 6.475c-.05.14-.09.282-.12.427v.014Zm-12.423 0H37.41a3.538 3.538 0 0 0-1.14-1.974l5.533-9.612 6.66 3.86-.004 7.726Zm-1.974 24.805-11.21-6.441 6.02-3.493 5.547 9.594a4.11 4.11 0 0 0-.358.34ZM33.898 50.86l-6.647-3.828 5.561-9.662c.741.262 1.55.262 2.29 0l5.525 9.616-6.73 3.874Zm-12.826 6.902 5.497-9.547 5.954 3.432-11.117 6.442a4.492 4.492 0 0 0-.33-.313l-.004-.014Zm.33-47.88 11.117 6.441-5.955 3.433-5.497-9.552c.12-.095.233-.198.34-.308l-.006-.014Zm12.491 7.247 6.71 3.892-5.523 9.612a3.517 3.517 0 0 0-2.29 0l-5.562-9.662 6.665-3.842Zm12.922-6.902-5.524 9.612-6.02-3.488 11.21-6.442c.114.114.235.22.362.318h-.028Zm-4.333 10.302 5.524-9.612c.15.052.303.092.458.12v12.957l-5.982-3.465Zm3.316-11.834-11.91 6.855-11.781-6.846c.05-.15.092-.305.124-.46h23.476c.023.152.055.302.096.45h-.005Zm-26.366 2.342c.155-.028.308-.068.458-.12l5.497 9.548-5.955 3.418V11.037Zm6.623 10.624 5.566 9.662a3.538 3.538 0 0 0-1.14 1.974H19.435v-7.822l6.62-3.814Zm-7.993 11.636H7.018c-.043-.197-.1-.39-.17-.58l11.214-6.441v7.021Zm-11.044 1.38h11.044v7.045L6.85 35.281a3.97 3.97 0 0 0 .169-.603Zm12.418 0h11.049a3.536 3.536 0 0 0 1.14 1.975l-5.565 9.662-6.624-3.819v-7.817Zm5.955 12.847-5.497 9.548c-.15-.05-.303-.09-.458-.12V44.12l5.955 3.404Zm-3.284 11.78 11.814-6.852 11.91 6.86c-.05.151-.088.305-.115.46H22.212a3.62 3.62 0 0 0-.105-.468Zm26.371-2.338c-.155.03-.308.07-.458.12l-5.524-9.612 5.955-3.46.027 12.952Zm-6.674-10.684-5.524-9.616a3.56 3.56 0 0 0 1.136-1.974h11.048v7.725l-6.66 3.865Zm8.03-11.604h11.049c.027.156.067.31.119.46l-11.168 6.478v-6.938Zm12.185-3.355a4.482 4.482 0 0 0-.33.332l-11.855-6.88V11.038c.155-.03.308-.07.458-.12l11.727 20.406ZM17.586 10.894c.15.053.302.097.458.129v13.643L6.093 31.567a3.111 3.111 0 0 0-.408-.368l11.9-20.305ZM5.699 36.799c.145-.113.282-.238.407-.373l11.952 6.902v13.643a3.415 3.415 0 0 0-.459.129L5.7 36.799Zm44.575 20.278a3.016 3.016 0 0 0-.458-.12V43.199l11.854-6.874c.105.115.215.224.33.327L50.274 57.077Z" fill="#EE7538"/></svg>