<?xml version="1.0" encoding="UTF-8"?> <svg xmlns="http://www.w3.org/2000/svg" width="68" height="68" viewBox="0 0 68 68" fill="none"><path d="M4.73184 33.7363H3V33.8446C3.00092 35.824 3.19231 37.7987 3.57151 39.7415L5.26874 39.4038C4.91348 37.572 4.73368 35.7105 4.73184 33.8446V33.7363Z" fill="#EE7537"></path><path d="M5.29492 45.5561C6.06043 47.4279 7.00734 49.2203 8.12214 50.9075L9.56391 49.9507C8.51402 48.3586 7.6222 46.6678 6.90119 44.9023L5.29492 45.5561Z" fill="#EE7537"></path><path d="M11.9404 55.5955C13.364 57.0313 14.9243 58.3248 16.5991 59.4575L17.5689 58.0201C15.9867 56.9536 14.5133 55.734 13.1701 54.3789L11.9404 55.5955Z" fill="#EE7537"></path><path d="M7.00496 22.6008L5.41167 21.9297C4.62732 23.793 4.02839 25.729 3.62354 27.7097L5.32076 28.0561C5.70012 26.1864 6.26428 24.359 7.00496 22.6008Z" fill="#EE7537"></path><path d="M12.1439 11.9453C10.7108 13.3706 9.42023 14.9323 8.29053 16.6083L9.72363 17.5781C10.7911 15.9954 12.0106 14.5206 13.3648 13.1749L12.1439 11.9453Z" fill="#EE7537"></path><path d="M55.795 12.135C54.3696 10.7008 52.8079 9.40878 51.132 8.27734L50.1665 9.71478C51.7493 10.7823 53.224 12.0018 54.5697 13.356L55.795 12.135Z" fill="#EE7537"></path><path d="M62.4497 22.1713C61.6841 20.3009 60.7372 18.51 59.6224 16.8242L58.1807 17.7811C59.2344 19.37 60.1279 21.0596 60.8477 22.8251L62.4497 22.1713Z" fill="#EE7537"></path><path d="M22.8211 6.90078L22.1674 5.29883C20.2965 6.06345 18.5056 7.01043 16.8203 8.12606L17.7728 9.57215C19.3636 8.5178 21.0546 7.623 22.8211 6.90078Z" fill="#EE7537"></path><path d="M45.811 5.42485C43.9474 4.64109 42.0115 4.04217 40.0309 3.63672L39.6846 5.33392C41.5539 5.71677 43.3811 6.28234 45.1399 7.02248L45.811 5.42485Z" fill="#EE7537"></path><path d="M33.9089 4.73184H33.9998V3H33.9003C31.9256 3.0014 29.9554 3.18986 28.0163 3.56285H27.9644L28.3367 5.2514C30.1736 4.90325 32.0393 4.72929 33.9089 4.73184Z" fill="#EE7537"></path><path d="M54.3706 54.5918L55.5916 55.8214C57.0257 54.3991 58.3177 52.8402 59.4492 51.1671L58.0161 50.1973C56.9457 51.7764 55.7248 53.2481 54.3706 54.5918Z" fill="#EE7537"></path><path d="M44.9019 60.8424L45.5513 62.4487C47.4248 61.6856 49.2187 60.7401 50.907 59.6258L49.9502 58.1797C48.3601 59.2329 46.669 60.1249 44.9019 60.8424Z" fill="#EE7537"></path><path d="M64.1859 28.0168V27.9648L62.4844 28.3026V28.3502C62.8396 30.182 63.0194 32.0435 63.0212 33.9094V34.035H64.7531V33.8964C64.7511 31.923 64.5612 29.9542 64.1859 28.0168Z" fill="#EE7537"></path><path d="M33.844 63.0072H33.7271V64.739H33.8526C35.8304 64.7376 37.8035 64.5477 39.7452 64.1718L39.3988 62.4746C37.5683 62.8282 35.7083 63.0065 33.844 63.0072Z" fill="#EE7537"></path><path d="M60.7397 45.1745L62.333 45.8456C63.1205 43.9811 63.7223 42.0436 64.1298 40.0612L62.4326 39.7148C62.0486 41.5858 61.4816 43.4145 60.7397 45.1745Z" fill="#EE7537"></path><path d="M21.9204 62.3374C23.7843 63.1213 25.7201 63.7216 27.7005 64.1299L28.0468 62.4327C26.1775 62.0499 24.3502 61.4843 22.5915 60.7441L21.9204 62.3374Z" fill="#EE7537"></path><path d="M37.5978 17.1884L30.1812 12.7852L30.1465 16.2878C27.5625 16.8418 25.1321 17.958 23.0279 19.5571C20.9238 21.1561 19.1975 23.1989 17.9717 25.5402L19.5044 26.3412C20.5826 24.2844 22.0887 22.4822 23.9213 21.0558C25.7539 19.6295 27.8707 18.6119 30.1292 18.0716L30.0989 21.4184L37.5978 17.1884Z" fill="#EE7537"></path><path d="M37.6238 51.4436C40.2079 50.8895 42.6383 49.7734 44.7425 48.1743C46.8466 46.5752 48.5729 44.5325 49.7987 42.1912L48.266 41.3945C47.1866 43.4508 45.6796 45.2523 43.8462 46.6779C42.0129 48.1035 39.8957 49.1202 37.6368 49.6598L37.6715 46.313L30.1553 50.5603L37.5892 54.9462L37.6238 51.4436Z" fill="#EE7537"></path><path d="M26.3626 48.2631C24.305 47.1853 22.5021 45.6795 21.0749 43.8468C19.6478 42.0142 18.6296 39.8972 18.0888 37.6382L21.4399 37.6685L17.1925 30.1523L12.8066 37.5906L16.3093 37.6209C16.8641 40.2058 17.981 42.637 19.5807 44.7418C21.1805 46.8467 23.2239 48.5736 25.566 49.8001L26.3626 48.2631Z" fill="#EE7537"></path><path d="M41.395 19.4832C43.4519 20.5603 45.2541 22.0655 46.6806 23.8974C48.107 25.7294 49.1245 27.8456 49.6646 30.1037L46.3178 30.0734L50.5651 37.5896L54.951 30.1513L51.4484 30.121C50.8946 27.5357 49.7787 25.104 48.1796 22.9984C46.5806 20.8928 44.5377 19.1649 42.196 17.9375L41.395 19.4832Z" fill="#EE7537"></path></svg> 