<?xml version="1.0" encoding="UTF-8"?> <svg xmlns="http://www.w3.org/2000/svg" width="68" height="68" viewBox="0 0 68 68" fill="none"><g clip-path="url(#clip0_5929_1020)"><path d="M63 33.1707H54.4328C54.9438 30.2574 54.8257 27.2685 54.0862 24.4046C53.3467 21.5408 52.0031 18.8683 50.1455 16.5666C48.2879 14.2649 45.9594 12.3872 43.3162 11.0597C40.6731 9.73223 37.7765 8.98561 34.821 8.86999V5H33.1582V17.6658C28.7118 17.8484 24.4414 19.4533 20.9753 22.2444C17.5092 25.0355 15.0305 28.8655 13.9039 33.1707H5V34.8334H13.5589C13.0443 37.7469 13.1599 40.7367 13.8977 43.6017C14.6356 46.4667 15.9786 49.1404 17.8364 51.4429C19.6942 53.7453 22.0236 55.6231 24.668 56.9498C27.3123 58.2765 30.2102 59.0213 33.1666 59.1342V63H34.8293V50.3383C39.2757 50.1558 43.5462 48.5509 47.0122 45.7597C50.4783 42.9686 52.957 39.1387 54.0836 34.8334H63V33.1707ZM53.0902 29.6042C53.088 30.8009 52.9753 31.9948 52.7535 33.1707H34.8293V10.5327C39.7414 10.754 44.3794 12.859 47.78 16.4105C51.1806 19.9621 53.0823 24.6871 53.0902 29.6042ZM33.1666 19.3285V33.1707H15.6414C16.7437 29.3181 19.0286 25.9091 22.1732 23.4253C25.3179 20.9415 29.1634 19.5085 33.1666 19.3285ZM14.9057 38.4C14.9067 37.2031 15.0209 36.0089 15.2465 34.8334H33.1666V57.4714C28.2545 57.2502 23.6164 55.1451 20.2159 51.5936C16.8153 48.0421 14.9135 43.317 14.9057 38.4ZM34.8293 48.6756V34.8334H52.3544C51.2521 38.6861 48.9673 42.0951 45.8226 44.5788C42.678 47.0626 38.8325 48.4957 34.8293 48.6756Z" fill="#EE7537"></path></g><defs><clipPath id="clip0_5929_1020"><rect width="58" height="58" fill="white" transform="translate(5 5)"></rect></clipPath></defs></svg> 