<?xml version="1.0" encoding="UTF-8"?> <svg xmlns="http://www.w3.org/2000/svg" width="68" height="68" viewBox="0 0 68 68" fill="none"><path d="M25.4302 62.087C27.2658 62.6557 29.1529 63.0428 31.0642 63.2426L31.2329 61.5976C29.4293 61.4074 27.6484 61.0424 25.9154 60.5078L25.4302 62.087Z" fill="#FF5F21"></path><path d="M15.3672 56.64C16.8481 57.8626 18.4444 58.9383 20.1335 59.8518L20.9149 58.4042C19.3217 57.5529 17.815 56.5489 16.4159 55.4062L15.3672 56.64Z" fill="#FF5F21"></path><path d="M21.1206 9.60425L20.3516 8.14844C18.6546 9.04585 17.0498 10.1079 15.5605 11.3191L16.5969 12.594C18.003 11.4514 19.5182 10.45 21.1206 9.60425V9.60425Z" fill="#FF5F21"></path><path d="M36.6575 61.6293L36.8137 63.2743C38.7171 63.091 40.5983 62.7246 42.4314 62.1803H42.4643L41.9749 60.6094C40.2398 61.1214 38.4589 61.463 36.6575 61.6293V61.6293Z" fill="#FF5F21"></path><path d="M56.8125 15.5488L55.5376 16.5852C56.6829 17.9902 57.6858 19.5055 58.5315 21.1089L59.9873 20.3398C59.0915 18.6409 58.0279 17.0359 56.8125 15.5488V15.5488Z" fill="#FF5F21"></path><path d="M52.7618 11.4714C51.282 10.2486 49.6855 9.17419 47.9955 8.26367L47.2141 9.71126C48.8179 10.5689 50.3332 11.5828 51.7378 12.738L52.7618 11.4714Z" fill="#FF5F21"></path><path d="M47.0085 58.5425L47.7776 59.9942C49.4761 59.0988 51.0822 58.0381 52.5727 56.8276L51.5323 55.5527C50.1261 56.6954 48.6109 57.6968 47.0085 58.5425V58.5425Z" fill="#FF5F21"></path><path d="M26.1704 7.5446C27.897 7.02896 29.6696 6.6819 31.4631 6.50827L31.3069 4.86328C29.4044 5.04552 27.5243 5.41328 25.6934 5.96131L25.8332 6.47948L26.1704 7.5446Z" fill="#FF5F21"></path><path d="M42.6943 6.05558C40.8603 5.48757 38.9744 5.10323 37.0644 4.9082L36.8958 6.55319C38.6973 6.7301 40.477 7.08411 42.2091 7.61009L42.6943 6.05558Z" fill="#FF5F21"></path><path d="M12.7517 16.4178L11.485 15.3691C10.2624 16.85 9.18671 18.4463 8.27319 20.1355L9.72078 20.9169C10.5815 19.3217 11.5967 17.8148 12.7517 16.4178V16.4178Z" fill="#FF5F21"></path><path d="M11.3204 52.5737L12.5952 51.5374C11.4526 50.1312 10.4512 48.616 9.60547 47.0137L8.14966 47.7786C9.04458 49.4784 10.1067 51.0847 11.3204 52.5737V52.5737Z" fill="#FF5F21"></path><path d="M55.3691 51.7323L56.6358 52.781C57.8649 51.297 58.9462 49.6965 59.8641 48.0023L58.4165 47.2168C57.5503 48.8177 56.5297 50.3301 55.3691 51.7323V51.7323Z" fill="#FF5F21"></path><path d="M60.522 42.2449L62.0929 42.7343C62.6603 40.8985 63.046 39.0115 63.2444 37.1003L61.5994 36.9316C61.4132 38.7335 61.0524 40.5129 60.522 42.2449V42.2449Z" fill="#FF5F21"></path><path d="M62.1792 25.714V25.6523L60.6165 26.1664C61.1321 27.9042 61.4792 29.6877 61.6528 31.492L63.2978 31.3399C63.1072 29.4329 62.7326 27.5489 62.1792 25.714V25.714Z" fill="#FF5F21"></path><path d="M7.61918 25.9189L6.04822 25.4336C5.48082 27.2694 5.09513 29.1565 4.89673 31.0677L6.54171 31.2363C6.72583 29.4328 7.08671 27.6518 7.61918 25.9189V25.9189Z" fill="#FF5F21"></path><path d="M5.96193 42.4011V42.4628L7.53288 41.9693C7.01488 40.2377 6.66778 38.4595 6.49655 36.6602L4.85156 36.8164C5.03981 38.7096 5.41168 40.58 5.96193 42.4011V42.4011Z" fill="#FF5F21"></path><path d="M64.1447 64.1406L62.0227 56.2283L59.7033 58.5436L45.174 44.0142C47.6265 41.2848 48.9816 37.7439 48.978 34.0744C48.9775 30.4106 47.6227 26.8763 45.174 24.1511L59.7033 9.62173L62.0227 11.9371L64.1447 4L56.2241 6.12203L58.5395 8.44146L44.0101 22.9749C41.2831 20.5205 37.7433 19.1637 34.0744 19.1668C30.405 19.161 26.8643 20.5181 24.1387 22.9749L9.60529 8.44146L11.9247 6.12203L4 4L6.12203 11.9206L8.44146 9.60529L22.9749 24.1511C20.531 26.8754 19.1793 30.4063 19.1791 34.0662C19.177 37.7361 20.5336 41.2769 22.9872 44.006L8.4538 58.5353L6.13437 56.22L4.01234 64.1406L11.9371 62.0186L9.61762 59.6992L24.1511 45.1657C26.8766 47.6225 30.4174 48.9796 34.0868 48.9739C37.7556 48.9769 41.2955 47.6202 44.0225 45.1657L58.5518 59.6992L56.2365 62.0186L64.1447 64.1406ZM20.8241 34.0662C20.8284 30.5504 22.2273 27.18 24.7137 24.6943C27.2001 22.2087 30.571 20.8109 34.0868 20.8076C37.6022 20.8109 40.9726 22.2088 43.4584 24.6946C45.9441 27.1803 47.3421 30.5508 47.3453 34.0662C47.3421 37.582 45.9443 40.9529 43.4586 43.4393C40.973 45.9257 37.6025 47.3245 34.0868 47.3289C30.5703 47.3256 27.1988 45.9273 24.7122 43.4407C22.2257 40.9542 20.8273 37.5827 20.8241 34.0662Z" fill="#FF5F21"></path></svg> 