<?xml version="1.0" encoding="UTF-8"?> <svg xmlns="http://www.w3.org/2000/svg" width="68" height="68" viewBox="0 0 68 68" fill="none"><path d="M31.0567 28.8489C31.1068 28.4485 31.1997 28.0481 31.2069 27.6405C31.2283 26.425 31.2355 25.2095 31.214 23.994C31.1997 23.043 31.3141 22.1135 31.6645 21.1554C31.7145 21.2627 31.7717 21.3699 31.8146 21.4772C31.8647 21.6059 31.9147 21.7346 31.9576 21.8633C32.0077 22.0063 32.0506 22.1493 32.0935 22.2994C32.5511 22.185 32.4295 21.7846 32.5153 21.5058C32.8371 20.4547 32.7584 19.375 32.7513 18.2954C32.7441 17.7305 32.9229 17.4517 33.4663 17.2515C33.7952 17.1299 33.931 16.9797 33.7523 16.6294C33.5378 16.2075 33.7022 15.8071 33.8881 15.421C33.9167 15.371 33.9596 15.3138 33.9596 15.2637C34.0311 14.6774 34.1026 14.0983 34.167 13.512C34.2528 12.7326 34.3243 11.9461 34.4029 11.1596C34.4029 11.1453 34.4029 11.1381 34.4101 11.1238C34.4458 10.416 34.4816 9.7081 34.5102 8.99309C34.5245 8.69994 34.4101 8.47828 34.1384 8.31383C33.8095 8.11363 33.5807 7.82762 33.6522 7.39862C33.6665 7.32712 33.7094 7.25562 33.7666 7.11977C33.8881 7.27707 33.9668 7.38432 34.0526 7.48442C34.1026 7.54162 34.2027 7.62742 34.2313 7.61312C34.3028 7.57022 34.3743 7.49157 34.3958 7.41292C34.4601 7.17697 34.4959 6.94101 34.5388 6.70506C34.5817 6.69791 34.6174 6.69791 34.6603 6.69076C34.7318 7.01966 34.8033 7.34857 34.8891 7.73467C35.0894 7.52017 35.2395 7.34857 35.404 7.16982C35.69 7.64887 35.6399 7.90628 35.0679 8.29953C34.789 8.48543 34.6961 8.68564 34.7104 9.00024C34.7318 9.4793 34.6961 9.9512 34.7247 10.4303C34.7747 11.2883 34.7819 12.1606 34.9535 12.9971C35.0894 13.655 35.1537 14.2985 35.1609 14.9563C35.1609 15.1136 35.1966 15.2995 35.2824 15.4353C35.6113 15.9859 35.4898 16.515 35.2467 17.0584C35.4469 17.1299 35.6328 17.1799 35.8044 17.2729C36.1047 17.4231 36.2548 17.6805 36.2548 18.0237C36.262 18.7387 36.2691 19.4537 36.2548 20.1687C36.2477 20.4833 36.262 20.7693 36.4693 21.041C36.6695 21.2984 36.741 21.613 36.7124 21.9491C36.7053 22.0563 36.7982 22.1707 36.8411 22.278C36.9484 22.1636 37.0771 22.0706 37.1486 21.9348C37.1986 21.8418 37.1486 21.6988 37.1629 21.5844C37.1915 21.4343 37.2415 21.2913 37.2844 21.1411C37.3345 21.1411 37.3917 21.1411 37.4417 21.134C37.5132 21.42 37.6491 21.6988 37.6562 21.9848C37.7134 24.1942 37.7492 26.4036 37.7921 28.613C37.7921 28.7202 37.8278 28.8275 37.8421 28.9276C37.8707 28.9276 37.9065 28.9347 37.9351 28.9347C37.9637 28.8704 38.0137 28.806 38.0209 28.7345C38.0638 28.327 38.0852 27.9194 38.1281 27.5047C38.1353 27.426 38.1496 27.3259 38.1996 27.2687C38.264 27.1829 38.3712 27.0685 38.4427 27.0757C38.5214 27.09 38.6215 27.2187 38.6501 27.3116C38.7931 27.8407 38.9075 28.3841 39.0505 28.9204C39.1506 29.3208 39.2293 29.378 39.7584 29.5353C39.8656 29.2064 39.98 28.8704 40.1159 28.4485C40.5091 28.9633 40.7022 29.4352 40.7522 29.9715C40.7737 30.2003 40.8309 30.4291 40.8595 30.665C40.8738 30.7723 40.8809 30.8795 40.8666 30.9868C40.8309 31.3371 40.7522 31.6875 40.7451 32.0307C40.7308 33.711 40.7522 35.3912 40.7308 37.0715C40.7236 37.4433 40.8523 37.5291 41.1955 37.522C43.7839 37.5077 46.3651 37.5148 48.9534 37.522C49.2751 37.522 49.461 37.4648 49.4896 37.0787C49.5182 36.6997 49.8686 36.428 50.2976 36.4137C50.5264 36.4066 50.6122 36.3208 50.698 36.1063C51.077 35.0552 51.1699 33.9684 51.127 32.8601C51.1056 32.3525 51.127 32.3596 51.6561 32.3453C51.7705 32.3453 51.8849 32.3024 51.9993 32.281C52.3997 32.2023 52.3282 31.8376 52.414 31.5802C52.5356 31.1941 52.6142 30.7866 52.7143 30.3862C52.7215 30.3504 52.7429 30.3218 52.7501 30.2861C52.793 30.1002 52.7858 29.7713 52.8716 29.7427C53.1362 29.6712 53.4293 29.7141 53.6724 29.7141C53.8441 30.4219 54.0157 31.094 54.1587 31.7661C54.2016 31.9592 54.2731 32.0164 54.459 32.0307C54.9452 32.0593 55.0381 32.1737 55.0453 32.6742C55.0453 33.0174 55.0167 33.3678 55.0453 33.711C55.1025 34.3902 55.1954 35.0623 55.2741 35.7416C55.2884 35.856 55.2884 35.9776 55.2884 36.0991C55.2884 38.1583 55.2884 40.2247 55.2884 42.2839C55.2884 42.4341 55.3241 42.5914 55.3456 42.7415C55.3885 42.7487 55.4314 42.763 55.4743 42.7701C55.7388 42.3483 56.0105 41.9264 56.2751 41.4974C56.4324 41.24 56.5182 40.9469 56.8399 40.8039C56.9543 40.7538 57.0044 40.5393 57.0544 40.3892C57.3118 39.5955 57.5263 38.7947 57.8195 38.0153C57.9196 37.7579 58.1699 37.5434 58.3987 37.3575C58.6775 37.1287 58.8134 37.1788 59.0207 37.4934C59.1995 37.7794 59.3925 38.0582 59.5784 38.3442C59.6213 38.3442 59.6571 38.3371 59.7 38.3371C59.7071 38.1869 59.7286 38.0439 59.7214 37.8938C59.7143 37.715 59.7286 37.5291 59.6714 37.3647C59.4855 36.7927 59.1208 36.3708 58.5417 36.1706C58.2628 36.0777 58.1413 35.8989 58.1556 35.6129C58.1627 35.3555 58.1127 35.0766 58.4988 35.0337C58.6489 35.0194 58.7919 34.9336 58.9492 34.8764C59.1566 35.191 59.3639 35.5056 59.5713 35.8131C59.607 35.7916 59.6428 35.7774 59.6785 35.7559C59.7214 35.2983 59.5713 34.8693 59.3854 34.4546C59.178 33.9684 58.9492 33.4893 58.7776 32.9888C58.5417 32.3024 58.556 31.5874 58.606 30.8795C58.6346 30.379 58.749 29.8857 58.8277 29.3852C58.8634 29.185 58.9778 29.1421 59.1637 29.2207C59.3925 29.3208 59.6285 29.3995 59.8644 29.4924C59.893 29.4495 59.9288 29.4066 59.9574 29.3637C59.75 29.1564 59.5713 28.9061 59.3353 28.7488C59.1208 28.6058 58.8348 28.5629 58.5846 28.4628C58.413 28.3913 58.2199 28.3341 58.0769 28.2197C57.7695 27.9766 58.0769 27.6548 58.3915 27.4904C58.4916 27.4403 58.6132 27.4332 58.7276 27.4046C59.0136 27.7406 59.2567 28.1124 59.6714 28.2769C59.7071 28.2483 59.7357 28.2197 59.7715 28.1911C59.6571 28.0266 59.5713 27.8264 59.4283 27.6977C58.749 27.0971 58.413 26.3249 58.2843 25.4455C58.2271 25.0737 58.1842 24.7018 58.1699 24.3229C58.127 23.472 58.0912 22.6212 58.0626 21.7703C58.0483 21.3842 58.0841 21.3771 58.4344 21.5058C58.5774 21.563 58.7276 21.5916 58.8706 21.6345C58.9492 21.2913 58.6418 20.9194 58.2342 20.8622C58.0841 20.8408 57.9053 20.8122 57.7766 20.8694C57.2332 21.1125 56.9472 20.8193 56.6755 20.3617C57.0401 20.183 57.4048 20.0042 57.7766 19.8183C57.4119 19.1462 56.8471 18.6743 56.1821 18.3311C55.1239 17.7877 54.5448 16.8653 54.1229 15.8071C53.9442 15.3567 53.7654 14.9134 53.5509 14.3771C54.0014 14.4057 54.4304 14.4343 54.8808 14.4701C54.7164 13.9338 54.5805 13.8266 54.1086 13.8123C53.651 13.798 53.222 13.8266 52.793 14.0411C52.6071 14.134 52.3139 14.084 52.0994 14.0196C52.0279 13.9982 51.985 13.6907 52.0351 13.5477C52.1137 13.2974 52.3211 13.1473 52.6071 13.1544C52.7143 13.1544 52.8216 13.1544 53.0432 13.1544C52.5213 12.5681 52.0494 12.0462 51.3487 11.9389C50.3191 11.7888 49.3681 11.4742 48.5172 10.8879C48.1883 10.6591 47.9381 10.323 47.6521 10.0442C47.5091 9.9083 47.3661 9.77245 47.1873 9.608C47.3804 9.4936 47.5806 9.37205 47.7736 9.25049C47.5877 8.91444 47.2803 8.81434 46.9228 9.01454C46.7369 9.12179 46.601 9.30769 46.408 9.3935C46.2006 9.48645 45.9217 9.58655 45.7501 9.51505C45.6143 9.4507 45.5213 9.13609 45.5285 8.93589C45.5356 8.80004 45.7215 8.59983 45.8717 8.54978C46.1219 8.46398 46.408 8.47113 46.6725 8.44253C46.7726 8.42823 46.8727 8.42823 46.9728 8.42108C46.9871 8.38533 46.9943 8.34243 47.0086 8.30668C46.887 8.26378 46.7583 8.17798 46.6368 8.17798C45.0494 8.22088 43.7624 7.42722 42.4468 6.69791C42.2394 6.58351 42.1322 6.2832 41.9677 6.07585C41.8748 5.96145 41.7675 5.8399 41.6388 5.7684C41.1097 5.47524 40.5449 5.23929 40.0444 4.90324C39.501 4.54573 39.0076 4.10242 38.4928 3.69487C38.5 3.65197 38.5071 3.60192 38.5142 3.55902C38.8718 3.50182 39.2364 3.43747 39.5939 3.38742C40.8237 3.20866 41.9177 3.70202 43.0403 4.06667C43.2047 4.12388 43.3191 4.16678 43.4407 3.99517C43.4764 3.94512 43.5837 3.93082 43.6623 3.92367C44.4631 3.84502 45.2067 4.05237 45.936 4.35983C46.9228 4.76738 47.7093 5.43949 48.4529 6.17595C48.5315 6.2546 48.6245 6.3261 48.7818 6.45481C48.8032 6.1688 48.8175 5.9543 48.8318 5.63255C49.4539 6.0258 50.0259 6.39046 50.6766 6.79801C50.6766 6.52631 50.6694 6.36186 50.6766 6.20455C50.698 5.94 50.8553 5.78985 51.1127 5.797C51.3701 5.797 51.5131 5.90425 51.5203 6.2117C51.5274 6.66931 51.5918 7.12692 51.6418 7.58452C51.649 7.64887 51.7133 7.70607 51.842 7.76327C51.8635 7.59882 51.8849 7.43437 51.9135 7.22702C52.1209 7.31997 52.3211 7.39147 52.4998 7.49157C53.3793 7.99923 54.2874 8.46398 55.1096 9.05744C55.5172 9.3506 55.7746 9.87255 56.0391 10.3302C56.3323 10.845 56.5468 11.4027 56.8042 11.9318C56.8399 12.0033 56.8971 12.0748 56.9758 12.1963C57.0544 11.9175 57.0687 11.6815 57.1903 11.5314C57.2975 11.3884 57.5335 11.2454 57.6837 11.274C57.8982 11.3097 58.1127 11.417 58.0626 11.7888C57.9983 12.275 57.5621 12.4823 57.4262 12.9042C57.319 13.2188 57.2832 13.4905 57.555 13.8123C57.7194 13.4476 57.8696 13.1258 58.0197 12.8041C58.0555 12.7254 58.127 12.6682 58.1842 12.5967C58.2485 12.6539 58.3129 12.7111 58.3701 12.7755C58.8348 13.2974 59.2853 13.8337 59.7715 14.3342C60.2934 14.8633 60.6152 15.514 60.8511 16.1861C61.0299 16.7009 61.0728 17.2658 61.1872 17.802C61.2944 18.2882 61.4303 18.7744 61.5662 19.325C61.6448 19.1748 61.7306 19.0819 61.7449 18.9818C61.7735 18.6314 61.9809 18.5671 62.2812 18.5814C62.6172 18.5957 62.7745 18.8388 62.796 19.0747C62.8103 19.2821 62.6458 19.518 62.5171 19.7039C62.4456 19.804 62.2669 19.8326 62.1453 19.9113C61.702 20.183 61.5161 20.7693 61.7592 21.2627C62.0023 21.0339 62.224 20.8265 62.5028 20.5691C62.6816 20.9123 62.846 21.2269 63.0176 21.5415C63.4967 22.421 63.8899 23.3433 64.0329 24.3157C64.1545 25.1595 64.1044 26.0318 64.0758 26.8969C64.0615 27.2902 64.0973 27.4046 64.5477 27.4975C64.7122 27.5333 64.9624 27.6048 64.991 27.7049C65.0482 27.948 65.0125 28.2197 64.9696 28.4771C64.9624 28.5343 64.7694 28.5772 64.6621 28.5915C64.1545 28.6344 63.8041 28.9061 63.5825 29.3423C63.5181 29.4638 63.5253 29.6211 63.4824 29.8642C63.8756 29.6926 64.1688 29.5639 64.5263 29.4066C64.5549 29.8571 64.5763 30.2575 64.5978 30.6579C64.6407 31.2799 64.6764 31.9091 64.7193 32.5312C64.7622 33.1747 64.9195 33.8397 64.8266 34.4617C64.7122 35.2697 64.419 36.0491 64.1688 36.8284C64.0401 37.2288 63.847 37.6078 63.6611 38.0582C64.133 38.0582 64.5549 38.0582 65.0196 38.0582C65.0196 38.3657 65.0625 38.6374 64.9982 38.8805C64.9696 38.9949 64.7479 39.1307 64.6121 39.1307C64.226 39.1379 63.8399 39.0592 63.4538 39.0449C62.9104 39.0306 62.6029 39.3238 62.4957 39.9387C62.7245 39.9244 62.9461 39.9173 63.1678 39.903C63.3394 39.8958 63.6397 39.8386 63.6611 39.8887C63.7326 40.0746 63.7255 40.2962 63.7112 40.5036C63.6969 40.7038 63.6182 40.8968 63.6111 41.0899C63.5968 42.7272 63.1177 44.193 62.0881 45.48C61.4589 46.2665 60.8583 47.0745 60.1933 47.9468C60.4436 47.9611 60.6295 47.9754 60.8082 47.9754C61.2229 47.9826 61.4446 48.1542 61.5089 48.526C61.559 48.8477 61.3731 49.0193 61.1157 49.1266C60.7796 49.2767 60.4293 49.1695 60.2434 48.8763C60.2148 48.8263 60.2005 48.7619 60.1576 48.719C60.0432 48.5975 59.9073 48.383 59.8072 48.3973C59.6356 48.4259 59.4283 48.5617 59.3425 48.7119C59.1351 49.0908 59.0207 49.4841 59.2424 49.9274C59.321 50.0918 59.2996 50.3492 59.2281 50.528C58.9635 51.1715 58.6775 51.815 58.3558 52.4299C57.7909 53.5239 57.0902 54.5106 55.889 55.004C55.5744 55.1327 55.2455 55.2471 54.9094 55.2971C54.0228 55.4258 53.4293 55.9549 52.9932 56.6771C52.7858 57.0274 52.6428 57.4207 52.4855 57.7996C52.221 58.4289 51.8063 58.8293 51.0841 58.8579C50.5193 58.8793 50.0331 59.0438 49.8615 59.7016C49.7542 60.1163 49.3609 60.2378 48.9605 60.2664C48.746 60.2807 48.5315 60.2593 48.317 60.2736C47.9881 60.3022 47.7665 60.5024 47.7808 60.8241C47.8165 61.8752 47.0229 62.2756 46.0719 62.1326C45.6929 62.0754 45.314 61.9896 44.935 61.9396C44.2701 61.8537 43.6051 61.7894 42.9402 61.7179C42.8758 61.7107 42.8115 61.7465 42.647 61.7966C42.8401 61.9825 42.9759 62.1398 43.1332 62.2613C43.598 62.6117 44.0055 62.9906 44.1271 63.5912C44.1342 63.6341 44.1271 63.6842 44.1271 63.7056C42.9688 64.0846 42.2251 63.484 41.553 62.483C41.4672 62.6474 41.4315 62.7261 41.3957 62.7976C40.8452 63.9916 39.8013 64.5851 38.6429 64.9783C37.6634 65.3144 36.6481 65.536 35.6042 65.5575C34.7604 65.5789 33.9167 65.6862 33.0802 65.6361C32.2079 65.5861 31.3284 65.4431 30.4704 65.2429C29.5766 65.0427 28.6972 64.7638 27.832 64.4564C26.881 64.1132 26.0445 63.5912 25.5511 62.6617C25.3652 62.3185 25.2008 62.3185 24.972 62.6474C24.8504 62.819 24.7217 62.9906 24.6002 63.1622C24.1569 63.8057 23.5277 63.6985 22.9056 63.5841C22.8555 63.5769 22.7769 63.4053 22.7912 63.341C22.9056 62.9334 23.1487 62.6188 23.4991 62.3614C23.7708 62.1684 23.9924 61.9038 24.2427 61.6678C24.2284 61.6392 24.2141 61.6035 24.1926 61.5749C24.0639 61.5963 23.9281 61.6106 23.7994 61.6392C23.6707 61.6607 23.5277 61.7393 23.4204 61.6964C22.7125 61.4533 22.1048 61.8466 21.4684 61.9896C20.6819 62.1684 19.9383 62.1827 19.3734 61.4962C19.1446 61.2174 18.9873 60.8885 19.1232 60.4952C19.1446 60.438 19.0445 60.2879 18.9802 60.2736C18.6155 60.1878 18.2437 60.1163 17.8719 60.0591C17.2141 59.9661 17.0568 59.8374 16.8781 59.1796C16.7851 58.8436 16.4205 58.6648 15.8985 58.6148C15.3479 58.5576 14.7688 58.4932 14.4685 57.9283C14.3469 57.6995 14.3326 57.4207 14.2468 57.1633C14.1825 56.9702 14.1181 56.7772 14.018 56.6127C13.9108 56.434 13.7392 56.2838 13.6391 56.0979C13.3388 55.5331 12.8526 55.197 12.2591 55.1255C10.7933 54.9539 9.86382 54.0458 9.08446 52.9161C8.6197 52.2369 8.29795 51.4861 8.0763 50.6996C8.01195 50.4851 7.92615 50.2777 7.81889 50.0847C7.66874 49.8058 7.68304 49.6414 7.87609 49.3268C8.04055 49.0551 7.88324 48.5117 7.71879 48.1542C7.64014 47.9754 7.25404 48.0183 7.03238 48.24C6.82503 48.4473 6.66773 48.6904 6.31737 48.7262C5.89552 48.7691 5.53086 48.5975 5.48796 48.2686C5.45936 48.0255 5.83832 47.668 6.16722 47.6394C6.31022 47.6251 6.45323 47.6537 6.59623 47.6322C6.68918 47.6179 6.83933 47.575 6.86078 47.5178C6.88938 47.4249 6.86078 47.2676 6.79643 47.1961C6.61053 47.003 6.37457 46.8528 6.18152 46.6669C5.55946 46.052 4.89451 45.4729 4.4655 44.6864C4.35825 44.4933 4.30105 44.2717 4.24385 44.0572C4.04364 43.2992 3.81484 42.5413 3.67184 41.7691C3.53599 41.0112 3.49309 40.2319 3.40014 39.381C3.93639 39.4167 4.3654 39.4382 4.87305 39.4739C4.62995 39.0807 4.3511 38.7875 3.97929 38.7089C3.64324 38.6374 3.27143 38.6874 2.92108 38.7518C2.59933 38.8161 2.17747 38.7875 2.07022 38.573C1.92722 38.2799 2.02017 37.9867 2.19177 37.7293C2.38482 37.429 2.68513 37.4862 2.96398 37.5506C3.12843 37.5935 3.28573 37.6864 3.55029 37.8008C3.47879 37.5434 3.45019 37.379 3.38584 37.2288C3.02118 36.3851 2.67083 35.5485 2.59218 34.6119C2.55642 34.2043 2.38482 33.8111 2.36337 33.4107C2.34192 32.9817 2.39197 32.5384 2.49207 32.1165C2.67798 31.3228 2.82098 30.5292 2.77808 29.7069C2.77093 29.4996 2.77808 29.2922 2.77808 28.9991C3.18563 29.185 3.51454 29.3351 3.90779 29.5139C3.78624 28.8704 3.54314 28.4557 3.03548 28.1982C2.71373 28.0338 2.34907 27.9265 2.18462 27.519C2.47062 27.1686 2.79238 26.9112 3.33578 27.1329C3.35009 26.9756 3.37154 26.8683 3.37154 26.7539C3.37869 26.0604 3.40014 25.374 3.37154 24.6804C3.34293 24.0726 3.48594 23.5078 3.70044 22.9572C4.00789 22.1779 4.34395 21.4128 4.68 20.6477C4.74435 20.4976 4.88736 20.3903 4.99461 20.2545C5.11616 20.3903 5.25916 20.5119 5.35926 20.6692C5.49511 20.8766 5.59521 21.0982 5.75967 21.3199C5.80972 21.041 6.05282 20.8408 5.91697 20.4904C5.70962 19.9542 5.44506 19.5109 4.93741 19.1963C4.73005 19.0676 4.6085 18.7816 4.77295 18.517C4.97316 18.2024 5.24486 18.1524 5.54516 18.3526C5.66672 18.4312 5.77397 18.5385 5.90982 18.6529C6.00992 18.2239 6.09572 17.8306 6.19582 17.4374C6.49613 16.229 6.98233 15.1207 7.79744 14.1698C8.3194 13.562 8.83421 12.9399 9.39907 12.275C9.58497 12.6253 9.76372 12.9614 9.94247 13.2974C9.96392 13.3403 9.97107 13.3904 9.99967 13.4261C10.0426 13.4833 10.0998 13.5406 10.1427 13.5906C10.1927 13.5191 10.2785 13.4476 10.2785 13.3761C10.3 12.8255 10.1713 12.325 9.75657 11.9246C9.43482 11.61 9.42052 11.2597 9.70652 11.038C10.1284 10.7163 10.4501 10.988 10.5788 11.4456C10.6003 11.5171 10.6003 11.5957 10.6646 11.703C11.1151 10.5804 11.6585 9.5365 12.5666 8.72139C13.4818 7.89913 14.5614 7.39147 15.684 6.94816C15.7555 7.09832 15.827 7.24132 15.92 7.43437C16.1631 7.03396 16.1488 6.68361 16.0344 6.3261C15.97 6.1116 15.8985 5.8828 16.1488 5.7255C16.5849 5.44664 16.921 5.6111 16.9567 6.13305C16.9639 6.2689 16.9567 6.41191 16.9567 6.61926C17.5931 6.2546 18.1579 5.93285 18.7514 5.58964C18.83 5.76125 18.8944 5.9114 18.9873 6.11875C19.1446 5.97575 19.2948 5.86135 19.4163 5.7255C20.1671 4.84603 21.1538 4.35268 22.2478 4.06667C22.734 3.93797 23.2488 3.90222 23.7493 3.83072C24.0568 3.78782 24.2641 3.89507 24.2713 4.28833C24.8361 4.00947 25.3652 3.74492 25.8943 3.49467C26.0087 3.44462 26.1374 3.40172 26.2661 3.40172C27.1241 3.39457 27.9822 3.39457 28.8402 3.40887C28.9617 3.40887 29.0904 3.52327 29.212 3.58762C29.1333 3.67342 29.069 3.78067 28.976 3.84502C28.1323 4.36698 27.2814 4.88179 26.4377 5.38944C26.3162 5.46094 26.1732 5.49669 26.0516 5.56104C25.973 5.60395 25.83 5.66115 25.83 5.7112C25.8157 6.21885 25.3724 6.33326 25.0649 6.55491C24.1426 7.21272 23.1415 7.71322 22.0404 7.97778C21.7902 8.03498 21.5185 7.98493 21.2539 7.99923C21.0966 8.00638 20.9393 8.04928 20.7892 8.07788C20.782 8.12078 20.7749 8.17083 20.7677 8.21373C21.2396 8.36388 21.7187 8.51403 22.2263 8.67849C22.0261 8.97879 21.8617 9.22189 21.6829 9.48645C21.1395 9.22189 20.7177 8.53548 19.9169 9.05744C20.1242 9.18614 20.2887 9.28624 20.5103 9.4221C20.3173 9.6223 20.1314 9.80105 19.9669 9.9941C19.3591 10.7163 18.5798 11.181 17.7003 11.4599C17.1641 11.6315 16.5992 11.6815 16.063 11.8603C15.7054 11.9818 15.3908 12.2178 15.0691 12.418C14.8689 12.5467 14.6758 12.6968 14.4828 12.9399C14.7259 12.99 14.969 13.0329 15.2121 13.0829C15.3551 13.1115 15.4909 13.1473 15.6339 13.183C15.5839 13.3761 15.591 13.5978 15.4766 13.7408C15.398 13.848 15.1692 13.8838 15.0119 13.8695C14.8331 13.848 14.6544 13.7479 14.4828 13.6693C13.7606 13.3189 13.3102 13.4261 12.7882 14.1626C13.2029 14.1626 13.5676 14.1626 13.9966 14.1626C13.7821 14.7203 13.589 15.1779 13.4246 15.657C12.9956 16.9082 12.016 17.6304 10.9649 18.3025C10.4787 18.61 10.064 19.0032 9.72082 19.4751C9.69937 19.5109 9.69937 19.5609 9.67792 19.6539C9.82807 19.6682 9.95677 19.6539 10.0712 19.6896C10.2857 19.7683 10.5145 19.8469 10.6861 19.9828C10.7719 20.0471 10.7933 20.2759 10.7504 20.3903C10.7075 20.4976 10.5431 20.6191 10.4144 20.6334C10.0497 20.662 9.67792 20.6334 9.30611 20.6477C8.83421 20.662 8.5339 20.9981 8.63401 21.3699C8.89141 21.3199 9.14881 21.2698 9.34901 21.2341C9.34901 22.0635 9.38477 22.85 9.33471 23.6365C9.29181 24.3372 9.24891 25.0665 9.01296 25.7172C8.80561 26.3106 8.348 26.8183 7.9905 27.3545C7.8761 27.5261 7.74024 27.6763 7.61869 27.8407C7.64729 27.8693 7.66874 27.8979 7.69734 27.9194C8.14065 27.6191 8.5911 27.3188 9.03441 27.0113C9.11306 27.0828 9.14166 27.1114 9.17741 27.1472C9.57067 27.5333 9.47057 27.9408 8.93431 28.1339C8.67691 28.2268 8.41235 28.284 8.15495 28.3699C7.79029 28.4914 7.56149 28.7345 7.48999 29.0706C7.81174 28.9419 8.11205 28.8275 8.41235 28.7059C8.46955 29.0062 8.54105 29.2779 8.5625 29.5568C8.62685 30.379 8.79846 31.2227 8.68406 32.0235C8.5768 32.7457 8.14065 33.4178 7.86894 34.1185C7.74739 34.4331 7.66159 34.7692 7.63299 35.1124C7.79029 34.9765 7.9333 34.8264 8.1049 34.712C8.4767 34.4546 8.79131 34.4975 8.99866 34.8192C9.16311 35.0623 8.99866 35.5628 8.70551 35.7416C8.45525 35.8918 8.1907 36.0348 7.95475 36.2064C7.59724 36.4709 7.57579 36.8999 7.49714 37.2932C7.43994 37.5649 7.45424 37.8437 7.42564 38.237C7.63299 37.9581 7.80459 37.7436 7.9619 37.5148C8.062 37.3718 8.14065 37.2074 8.2336 37.0572C8.4624 36.6854 8.49815 36.6711 8.78416 37C9.29181 37.5792 9.75657 38.1941 9.96392 38.952C10.0354 39.2094 10.1141 39.4882 10.0926 39.7457C10.064 40.1532 10.2428 40.4178 10.493 40.7181C10.8148 41.097 11.0078 41.5832 11.3224 41.9765C11.6013 42.334 11.9588 42.6343 12.2877 42.956C12.538 43.2063 12.7954 43.4566 13.0599 43.6925C13.1529 43.7783 13.2744 43.8427 13.446 43.9499C13.4603 43.7497 13.4675 43.6496 13.4675 43.5495C13.4675 42.8559 13.4818 42.1695 13.4675 41.476C13.4389 40.2462 13.3602 39.0163 13.3745 37.7865C13.3817 37.1287 13.5533 36.4638 13.6462 35.806C13.6677 35.6772 13.6748 35.5485 13.6748 35.4127C13.6748 34.5547 13.6748 33.6967 13.6748 32.8387C13.6748 32.2738 13.8607 32.0593 14.4184 32.045C14.7831 32.0378 14.7044 31.7375 14.7545 31.5588C14.9046 30.9796 14.9904 30.3933 15.1334 29.8142C15.1549 29.7212 15.3408 29.5997 15.4409 29.614C15.6196 29.6283 15.8842 29.6926 15.9342 29.8142C16.1988 30.4291 16.4634 31.044 16.4205 31.7518C16.399 32.1523 16.6421 32.3453 17.0497 32.3596C17.7289 32.3882 17.7289 32.3882 17.7289 33.0746C17.7289 33.4107 17.7504 33.7467 17.7218 34.0756C17.686 34.6119 17.7933 35.0981 18.0149 35.5843C18.1222 35.8202 18.1293 36.1063 18.1794 36.3637C18.3939 36.4209 18.6227 36.4209 18.7728 36.5281C18.9659 36.664 19.2018 36.8713 19.2376 37.0787C19.2876 37.4219 19.4163 37.522 19.7381 37.522C21.2611 37.5148 22.7912 37.5148 24.3142 37.5148C25.4582 37.5148 26.6022 37.5148 27.7462 37.5148C27.8892 37.5148 28.0251 37.5005 28.2038 37.4934C28.2038 37.3218 28.2038 37.1788 28.2038 37.0429C28.2038 34.8979 28.1752 32.7529 28.2181 30.6078C28.2324 29.9643 28.4326 29.3208 28.5542 28.6773C28.5685 28.613 28.6686 28.52 28.7186 28.5272C28.7973 28.5343 28.9045 28.5987 28.9331 28.6702C28.9903 28.806 29.0261 28.9633 29.0332 29.1135C29.0475 29.3709 29.1762 29.4567 29.4193 29.4781C29.6839 29.4996 29.7768 29.3423 29.8269 29.1349C29.9699 28.5558 30.12 27.9766 30.2559 27.3903C30.2988 27.1972 30.3631 26.997 30.5776 27.0757C30.692 27.1114 30.785 27.3331 30.8064 27.4832C30.8779 27.9265 30.9065 28.377 30.9566 28.8275C31.021 28.8561 31.0352 28.8489 31.0567 28.8489ZM20.9679 49.0336C20.9536 49.0837 20.9393 49.1266 20.925 49.1766C21.0823 49.2338 21.2396 49.3411 21.3898 49.3339C22.1119 49.291 22.5409 49.6843 22.9413 50.2205C23.2988 50.6996 23.6778 51.1787 24.4214 51.1072C24.9148 51.0571 25.1793 51.3074 25.3438 51.7292C25.5797 52.3441 25.8371 52.9519 26.0945 53.5596C26.4091 54.3032 27.0526 54.7108 27.7248 55.0111C28.4183 55.3186 29.1762 55.4973 29.9055 55.7333C30.9637 56.0836 32.072 56.198 33.1731 56.2409C34.5316 56.2981 35.9045 56.3124 37.2558 56.0479C37.9136 55.9192 38.5714 55.8262 39.2293 55.6904C39.358 55.6618 39.5081 55.5545 39.5796 55.4401C39.9514 54.861 40.2875 54.2746 40.6521 53.6883C40.9667 53.1807 41.2885 52.6659 41.6245 52.1725C41.9534 51.6863 42.5469 51.5648 42.9831 51.2287C43.6409 50.7282 44.2272 50.1347 44.8635 49.6128C45.0137 49.4912 45.2782 49.3983 45.457 49.434C45.9074 49.527 46.0147 49.4984 46.2006 49.0265C37.7849 49.0336 29.3764 49.0336 20.9679 49.0336ZM27.5317 56.0622C27.5317 56.6342 27.5603 57.1704 27.5246 57.6995C27.4888 58.2715 27.4745 58.8722 27.3172 59.4156C27.0312 60.4237 26.6522 61.4033 26.2876 62.39C26.1803 62.6832 26.309 62.8762 26.4806 63.0478C26.6022 63.1694 26.7738 63.2409 26.9382 63.3195C27.9893 63.8486 29.0189 64.4063 30.2058 64.6566C30.978 64.8139 31.7503 65.0212 32.5225 65.0355C34.1598 65.057 35.7972 65.1356 37.4131 64.6423C38.5857 64.2848 39.6511 63.82 40.5663 62.962C40.4519 62.8262 40.3304 62.7189 40.2517 62.5759C39.8084 61.7751 39.5153 60.9028 39.4795 59.9947C39.4366 58.9866 39.5153 57.9784 39.5439 56.9702C39.551 56.8058 39.5439 56.6485 39.5439 56.5055C38.6072 56.6771 37.7277 56.9559 36.834 56.9774C35.9903 56.9988 35.168 57.2276 34.2957 57.0417C33.4019 56.8487 32.4653 56.8844 31.5501 56.7915C30.978 56.7343 30.406 56.6413 29.8412 56.5341C29.0976 56.3982 28.354 56.2338 27.5317 56.0622ZM32.9586 41.6976C33.6736 41.4045 34.2528 41.2043 34.739 41.3759C35.4254 41.6261 35.4397 41.5904 35.2252 42.2839C35.0965 42.6915 35.1251 42.7272 35.5613 42.7272C36.2262 42.7272 36.8983 42.7129 37.5633 42.7344C37.8993 42.7415 38.0352 42.6557 38.0352 42.2768C38.0209 38.5587 38.028 34.8407 38.028 31.1226C38.028 31.0154 38.0566 30.8938 38.0209 30.8009C37.9851 30.7151 37.8922 30.6007 37.8064 30.5864C37.3202 30.4934 37.2272 30.5792 37.2272 31.0869C37.2272 33.4679 37.2272 35.856 37.2272 38.237C37.2272 39.002 37.2201 39.76 37.2344 40.525C37.2415 40.7753 37.1557 40.8682 36.9055 40.8539C36.598 40.8396 36.2834 40.8539 35.976 40.8468C35.5541 40.8468 35.3897 40.6823 35.3897 40.2676C35.3897 39.2308 35.3825 38.1941 35.3897 37.1573C35.3897 36.8999 35.3682 36.7283 35.0322 36.7283C34.7032 36.7283 34.7032 36.9071 34.7104 37.143C34.7175 38.2656 34.7032 39.381 34.7175 40.5036C34.7247 40.811 34.596 40.8539 34.3386 40.8539C34.0812 40.8539 33.9525 40.811 33.9525 40.5036C33.9668 39.431 33.9596 38.3585 33.9525 37.286C33.9525 37.0501 34.0669 36.7426 33.6164 36.7355C33.166 36.7283 33.2661 37.0215 33.2661 37.2646C33.2589 38.3371 33.2589 39.4096 33.2732 40.4821C33.2732 40.7538 33.2089 40.8754 32.9157 40.8539C32.6083 40.8325 32.2937 40.8253 31.9862 40.8539C31.6287 40.8897 31.5143 40.7681 31.5143 40.3963C31.5286 37.4076 31.5215 34.4117 31.5215 31.4229C31.5215 31.2799 31.5429 31.1369 31.5215 30.9939C31.4786 30.7222 31.3642 30.5363 31.0281 30.5649C30.7278 30.5935 30.6062 30.7222 30.6062 31.0225C30.6062 34.8121 30.6062 38.6016 30.6062 42.3912C30.6062 42.6414 30.6992 42.7272 30.9423 42.7272C31.5286 42.7201 32.1078 42.7272 32.6941 42.7272C32.9157 42.7272 33.1374 42.7272 33.4448 42.7272C33.2661 42.3268 33.1159 42.0265 32.9586 41.6976ZM34.3028 48.004C35.6328 48.004 36.9698 48.004 38.2997 48.004C38.5142 48.004 38.693 48.0112 38.693 47.6966C38.6787 46.2808 38.6859 44.8651 38.693 43.4494C38.693 43.2206 38.6143 43.1348 38.3855 43.1348C35.6971 43.1419 33.0087 43.1419 30.3202 43.1348C30.0557 43.1348 29.977 43.2134 29.9842 43.4851C29.9985 44.8651 30.0056 46.2451 29.9842 47.6251C29.977 47.9254 30.0557 48.0112 30.3488 48.0112C31.6573 47.9969 32.9801 48.004 34.3028 48.004ZM20.5532 55.6332C20.8178 55.8334 21.0323 56.0121 21.2682 56.1623C21.3326 56.2052 21.4899 56.2195 21.5328 56.1694C21.6472 56.0622 21.7258 55.912 21.8188 55.7833C21.6972 55.7261 21.5828 55.6546 21.4613 55.6117C20.8035 55.3758 20.1743 55.0898 19.9312 54.3605C19.8096 54.0029 19.5307 53.8528 19.2233 53.7312C19.1375 53.6955 19.0374 53.6812 18.9659 53.624C18.4225 53.1306 17.7647 53.0019 17.0568 53.0305C16.7708 53.0377 16.5849 53.1878 16.5635 53.481C16.5492 53.7598 16.3776 53.8814 16.1416 53.9243C15.6697 54.0101 15.1906 54.0816 14.7187 54.1459C14.1038 54.2317 13.589 54.8038 14.1181 55.5545C14.3183 55.8334 14.5471 56.1051 14.8117 56.3124C15.2192 56.627 15.2836 56.9917 15.0834 57.4207C14.9404 57.7281 15.0762 57.8854 15.3408 57.9569C15.7483 58.0785 16.1559 58.1643 16.5706 58.2644C17.0139 58.3645 17.4858 58.3717 17.5645 59.0152C17.5931 59.244 17.8719 59.5729 18.0936 59.6301C18.5798 59.7516 19.1089 59.7445 19.4735 59.4299C19.3591 58.9151 19.2519 58.4431 19.1518 57.9998C18.9659 57.9927 18.78 57.9855 18.5941 57.9784C18.5869 57.9426 18.5869 57.9069 18.5798 57.8711C18.923 57.7424 19.2733 57.6137 19.6165 57.485C19.6022 57.4278 19.5808 57.3706 19.5665 57.3134C19.259 57.3492 18.9516 57.3849 18.637 57.4064C18.5798 57.4135 18.5226 57.3706 18.4582 57.3563C18.494 57.292 18.5154 57.2133 18.5726 57.1776C18.6298 57.1418 18.7156 57.1776 18.78 57.1561C19.0588 57.0846 19.3377 57.0131 19.6165 56.9345C18.6227 56.4697 17.6646 56.8987 16.7065 56.9702C16.6993 56.9273 16.6922 56.8844 16.685 56.8415C17.2999 56.6628 17.922 56.484 18.5369 56.3053C18.5369 56.2624 18.5369 56.2195 18.5369 56.1766C17.922 56.0193 17.2785 56.1694 16.6278 56.0836C16.7136 55.9549 16.7851 55.8548 16.9067 55.6761C16.3132 55.6761 15.7912 55.6761 15.2764 55.6761C15.2764 55.6475 15.2693 55.626 15.2693 55.5974C15.4194 55.5045 15.5624 55.4187 15.7197 55.3257C15.5124 55.2113 15.3551 55.1184 15.1906 55.0326C15.2049 55.0111 15.2121 54.9825 15.2264 54.9611C15.5052 54.9468 15.7769 54.9325 16.0558 54.9182C16.063 54.8896 16.0701 54.8538 16.0844 54.8252C15.9486 54.7108 15.8198 54.5964 15.684 54.482C15.7054 54.4462 15.7197 54.4176 15.7412 54.3819C15.9772 54.5034 16.206 54.6322 16.4419 54.7537C16.7422 54.911 17.0139 55.1899 17.3857 54.9611C17.5859 54.8395 17.7504 54.8395 17.9363 54.9754C18.0578 55.0683 18.1937 55.1398 18.3295 55.2185C18.5297 55.34 18.7371 55.4544 18.9373 55.5688C18.9516 55.5474 18.973 55.5188 18.9873 55.4973C18.6799 55.2185 18.3724 54.9468 18.065 54.6679C18.115 54.6107 18.1651 54.5464 18.2223 54.4892C18.923 54.9611 19.6308 55.4401 20.3316 55.912C20.4174 55.8048 20.4746 55.7333 20.5532 55.6332ZM50.6623 56.341C50.6551 56.3625 50.6551 56.3911 50.648 56.4125C50.5836 56.4268 50.5193 56.4483 50.4621 56.4411C50.0331 56.3839 49.604 56.3339 49.175 56.2695C48.8819 56.2266 48.6316 56.2695 48.3671 56.5341C48.8604 56.6628 49.2966 56.7843 49.7256 56.8987C49.7184 56.9488 49.7113 56.9917 49.7041 57.0417C48.8032 56.9845 47.9095 56.9202 47.0086 56.863C47.0014 56.913 46.9943 56.9559 46.9871 57.006C47.316 57.2419 47.7236 57.1919 48.0954 57.2848C48.4815 57.3849 48.8533 57.5136 49.2322 57.6352C49.1607 57.7424 49.1035 57.7853 49.0535 57.7782C48.7317 57.7281 48.41 57.6709 48.0882 57.5994C47.8451 57.5422 47.6807 57.5422 47.6592 57.8711C47.6306 58.293 47.5234 58.7077 47.4948 59.1224C47.4805 59.3655 47.3303 59.7016 47.695 59.8374C47.9238 59.9232 48.174 59.9804 48.41 60.0019C48.9677 60.0376 49.3252 59.6873 49.3395 59.1224C49.3466 58.6934 49.461 58.6076 49.8829 58.5647C50.3763 58.5147 50.8625 58.436 51.3487 58.3288C51.7634 58.2358 51.9636 57.9283 51.9707 57.4993C51.9707 57.3921 51.9564 57.2705 52.0065 57.1847C52.2925 56.7128 52.5856 56.2409 52.8859 55.7833C53.2363 55.2471 53.0933 54.5964 52.4784 54.3962C51.9636 54.2246 51.3987 54.1817 50.8482 54.1531C50.4978 54.1388 50.4263 54.0172 50.4406 53.7098C50.4406 53.5954 50.3119 53.4166 50.2047 53.3809C49.9758 53.3094 49.7184 53.2951 49.4753 53.2808C48.5387 53.2236 47.838 53.7741 47.1301 54.246C46.9013 54.4033 46.7011 54.7466 46.8441 55.1327C47.0586 55.0826 47.2445 55.0326 47.5305 54.9611C47.1945 55.3829 46.9156 55.7333 46.6368 56.0765C47.5591 55.5259 48.3528 54.8109 49.2608 54.2603C49.2966 54.3032 49.3395 54.3533 49.3752 54.3962C48.9105 54.8252 48.4457 55.2542 47.981 55.6832C48.0096 55.719 48.0453 55.7547 48.0739 55.7905C48.5172 55.5259 48.9605 55.2542 49.3967 54.9897C49.4753 55.1184 49.5325 55.2185 49.604 55.3472C50.2905 55.0898 50.9697 54.7323 51.7062 55.3043C51.5489 55.4044 51.4059 55.4902 51.2414 55.5974C51.3844 55.719 51.506 55.8191 51.6275 55.9192C51.6204 55.9478 51.6061 55.9835 51.5989 56.0121C51.077 56.0121 50.555 56.0121 50.0331 56.0121C50.0331 56.0407 50.0259 56.0622 50.0259 56.0908C50.2404 56.1766 50.4549 56.2624 50.6623 56.341ZM47.1087 51.7507C47.123 51.7864 47.1373 51.8222 47.1516 51.8508C46.7297 52.2083 46.3079 52.5586 45.8931 52.9304C45.4355 53.3451 45.0208 53.7813 45.2425 54.4892C45.2568 54.5464 45.1853 54.6751 45.1209 54.7037C44.7491 54.8896 44.3773 55.0612 43.9984 55.2399C43.7696 55.3472 43.5408 55.4616 43.219 55.6189C43.4049 55.6689 43.4764 55.6904 43.5551 55.7047C44.5418 55.8119 45.3354 55.3043 46.1505 54.8753C46.222 54.8395 46.2793 54.6465 46.2507 54.5463C46.1219 54.1102 46.1791 53.96 46.601 53.7813C47.0229 53.5954 47.4519 53.4238 47.8666 53.2093C48.5744 52.8446 48.603 52.623 48.1097 52.0653C48.0024 51.9437 47.9595 51.6863 48.0024 51.5219C48.1669 50.8641 48.3742 50.2134 48.553 49.5627C48.5816 49.4626 48.5887 49.3411 48.5458 49.2481C48.2169 48.526 47.7736 48.3615 47.123 48.8406C46.8084 49.0765 46.5939 49.434 46.3222 49.7272C46.1362 49.9274 45.9289 50.1133 45.7215 50.3063C45.3283 49.7343 45.1781 49.6914 44.792 50.1848C44.3845 50.6996 44.0484 51.2788 43.7267 51.8508C43.5265 52.2083 43.5336 52.2297 43.2333 51.9223C42.9402 51.622 42.7328 51.6291 42.4611 51.9437C42.3968 52.0152 42.3396 52.0939 42.2895 52.1725C41.8676 52.9018 41.4458 53.6311 41.0382 54.3605C40.8309 54.7394 40.6521 55.1398 40.4305 55.576C40.8952 55.6046 41.3171 55.7047 41.5745 55.2685C41.7103 55.0397 41.7818 54.7752 41.8819 54.5249C41.9463 54.3533 42.0106 54.1745 42.0678 54.0029C42.4826 54.339 42.1393 54.6679 42.0893 55.0254C42.5398 54.8181 42.5469 54.4391 42.6327 54.1102C42.8115 53.4452 43.1904 52.9662 43.8482 52.623C43.9197 52.7731 43.9769 52.8947 44.0341 53.0234C44.0627 52.9876 44.0913 52.9519 44.1199 52.9233C44.2701 52.53 44.4202 52.1368 44.5704 51.7435C44.6133 51.7507 44.649 51.7578 44.6919 51.765C44.7062 52.0438 44.7277 52.3298 44.742 52.6087C44.7706 52.6158 44.7992 52.623 44.8206 52.6301C44.9708 52.2798 45.1209 51.9366 45.2711 51.5862C45.2997 51.5934 45.3211 51.6005 45.3497 51.6077C45.364 51.7721 45.3712 51.9366 45.3855 52.0939C45.4212 52.101 45.457 52.1082 45.4927 52.1153C45.6858 51.6506 45.8788 51.1858 46.0862 50.6924C46.1505 50.8569 46.1934 50.9713 46.2435 51.1072C46.7297 50.6209 47.0157 50.0418 47.5663 49.6986C47.5162 49.9202 47.4662 50.1419 47.4161 50.3707C47.5877 50.4064 47.7379 50.435 47.888 50.4708C47.9166 50.5208 47.9452 50.5637 47.9738 50.6138C47.8308 50.7139 47.6807 50.8069 47.5377 50.9141C47.2159 51.1572 46.9013 51.4075 46.5939 51.6649C46.5438 51.7078 46.5295 51.8007 46.5009 51.8722C46.5796 51.8794 46.6725 51.9008 46.744 51.8794C46.8656 51.8579 46.9871 51.8007 47.1087 51.7507ZM40.3518 59.2654C40.2517 59.8946 40.5163 60.2235 41.0597 60.245C41.1526 60.245 41.2527 60.2593 41.3385 60.295C41.982 60.6096 42.6184 60.9385 43.2691 61.2388C43.3835 61.2889 43.598 61.2674 43.6909 61.1888C43.8911 61.0172 44.077 60.9957 44.313 61.0672C44.8993 61.2388 45.4999 61.3604 46.0719 61.5677C46.4652 61.7107 46.7369 61.6464 46.98 61.3389C47.2302 61.0172 47.2731 60.6597 47.0515 60.3165C46.8584 60.009 46.6225 59.7302 46.3794 59.4013C46.5796 59.244 46.7869 59.0867 46.9871 58.9294C47.1444 58.8078 47.1444 58.7077 47.0014 58.5504C46.6511 58.1572 46.2006 57.9355 45.7144 57.7639C45.3926 57.6495 45.0852 57.5136 44.7849 57.3849C45.0065 56.6056 44.8063 56.3267 44.0627 56.3696C43.6623 56.3982 43.2619 56.5412 42.8615 56.627C42.74 56.6556 42.6184 56.6699 42.4969 56.6914C42.4468 56.5484 42.411 56.4483 42.3681 56.3553C42.1608 55.8906 42.0178 55.8262 41.5745 56.0479C41.217 56.2266 40.8666 56.4411 40.5234 56.6485C40.4305 56.7057 40.3733 56.8129 40.2875 56.8987C40.6593 57.2276 40.9596 56.7271 41.3528 56.8844C40.9882 57.1204 40.6664 57.3206 40.3518 57.5208C40.3661 57.5494 40.3804 57.5851 40.3947 57.6137C41.4172 57.7996 42.3467 57.1418 43.3477 57.1633C43.3549 57.199 43.362 57.2348 43.3692 57.2777C42.7543 57.4707 42.1393 57.6638 41.5244 57.8568C41.5316 57.9069 41.5459 57.9641 41.553 58.0141C42.2895 57.9784 43.026 57.9426 43.7624 57.9069C43.7696 57.9426 43.7767 57.9855 43.7839 58.0213C43.4693 58.15 43.1475 58.2716 42.8329 58.4003C42.8472 58.4575 42.8544 58.5075 42.8687 58.5647C43.8339 58.5647 44.8063 58.5647 45.7716 58.5647C45.7716 58.6148 45.7787 58.6648 45.7787 58.7149C45.3569 59.0509 44.7992 58.722 44.2701 58.9437C44.7706 59.1153 45.1996 59.2654 45.6214 59.4156C45.5285 59.5014 45.457 59.5014 45.3926 59.5157C45.2425 59.5514 45.0995 59.5943 44.9493 59.6372C45.0637 59.7445 45.1638 59.8589 45.2925 59.9447C45.6214 60.1735 45.9575 60.388 46.2936 60.6096C46.1863 60.6883 46.1076 60.7097 46.0504 60.6811C45.6715 60.5167 45.2925 60.3808 44.8635 60.3808C44.6705 60.3808 44.4703 60.245 44.2915 60.1377C43.9698 59.9518 43.6623 59.7445 43.2762 59.5085C43.2977 59.7945 43.3191 59.9804 43.3334 60.1735C43.3048 60.1878 43.2834 60.2021 43.2548 60.2164C43.0403 59.9733 42.8401 59.7159 42.6041 59.4871C42.3681 59.2654 42.0964 59.0724 41.839 58.8722C41.8104 58.9008 41.7818 58.9294 41.7532 58.958C41.7675 59.101 41.789 59.2511 41.8104 59.4442C41.4386 59.2082 41.124 59.0009 40.8023 58.7935C40.7737 58.815 40.7451 58.8364 40.7236 58.8579C40.7951 59.0509 40.8738 59.244 40.9667 59.4871C40.7379 59.4227 40.5592 59.3512 40.3518 59.2654ZM22.2406 57.2777C21.783 57.4493 21.3254 57.5923 20.8821 57.7853C20.5032 57.9498 20.067 58.0427 19.7953 58.5361C19.9669 58.6791 20.1457 58.8221 20.3173 58.9651C20.4817 59.1081 20.5318 59.2297 20.3745 59.4442C20.1528 59.7445 19.9598 60.0805 19.8168 60.4309C19.7453 60.5953 19.7453 60.8456 19.8239 60.9957C19.9741 61.296 20.7463 61.5606 21.0752 61.4605C21.5828 61.3103 22.0905 61.153 22.5838 60.9671C22.8126 60.8813 22.9628 60.9028 23.163 61.0458C23.3131 61.1459 23.5634 61.1888 23.735 61.1387C23.9352 61.0744 24.1068 60.8956 24.2641 60.7383C24.5287 60.4595 24.8504 60.3022 25.2222 60.2593C25.4224 60.2378 25.6298 60.2593 25.83 60.2521C26.2232 60.245 26.4592 60.0233 26.4592 59.6444C26.4592 59.5729 26.4234 59.4656 26.3734 59.4299C26.3305 59.4013 26.2304 59.4442 26.1589 59.4728C26.023 59.5228 25.8872 59.5872 25.6941 59.673C25.8157 59.3226 25.9086 59.0795 26.0159 58.7649C25.7442 58.9079 25.544 59.0152 25.3438 59.1224C25.2437 58.9794 25.1793 58.8793 25.0506 58.7006C24.5859 59.1153 24.1426 59.5085 23.6564 59.9375C23.6564 59.8017 23.6564 59.7731 23.6564 59.7373C23.6564 59.6229 23.6564 59.5085 23.6564 59.387C23.5491 59.4442 23.4204 59.4799 23.3346 59.5514C23.0343 59.8017 22.7483 60.0662 22.448 60.3165C22.355 60.3951 22.2406 60.4452 22.0976 60.5238C22.1048 60.1449 22.0047 60.0305 21.6686 60.1949C21.4327 60.3022 21.1538 60.3165 20.8964 60.3737C20.8821 60.3522 20.8678 60.3236 20.8535 60.3022C21.1896 60.0591 21.5256 59.8231 21.8617 59.58C21.8474 59.5443 21.8331 59.5157 21.8188 59.4799C21.6257 59.4656 21.4327 59.4442 21.2468 59.4299C21.2325 59.3941 21.2182 59.3584 21.1967 59.3298C21.5185 59.0009 22.069 59.0438 22.4194 58.722C21.9975 58.579 21.5256 58.8221 21.1324 58.5004C21.2754 58.4217 21.4255 58.3717 21.5757 58.3717C22.3407 58.3645 23.0986 58.3788 23.8637 58.3717C23.9996 58.3717 24.1283 58.3431 24.2641 58.3288C24.2713 58.2859 24.2713 58.2501 24.2784 58.2072C23.8995 58.1143 23.5205 58.0285 23.1415 57.9355C23.1487 57.8854 23.1558 57.8354 23.1701 57.7853C23.8423 57.7853 24.5215 57.7853 25.1936 57.7853C25.1936 57.7567 25.2008 57.7353 25.2008 57.7067C24.7932 57.5279 24.3785 57.342 23.971 57.1633C23.9781 57.1347 23.9853 57.1061 23.9853 57.0703C24.879 57.1204 25.7299 57.4707 26.6093 57.5994C26.6236 57.5708 26.6379 57.5422 26.6522 57.5065C26.5736 57.3992 26.4949 57.292 26.402 57.1776C26.5307 57.0346 26.6594 56.8987 26.8524 56.6914C26.7166 56.5841 26.5807 56.484 26.452 56.3768C25.7728 55.7905 25.3223 55.769 24.6002 56.2838C24.543 56.3196 24.4715 56.3625 24.4071 56.3553C23.9424 56.3339 23.4633 56.3553 23.0128 56.2552C22.5481 56.1551 22.1119 56.4483 22.1691 56.9202C22.1691 57.0417 22.2049 57.1561 22.2406 57.2777ZM23.6635 52.1654C23.6135 52.1725 23.5706 52.1797 23.5205 52.1868C23.1916 51.5862 22.8627 50.9928 22.5481 50.385C22.2406 49.7987 21.9904 49.6986 21.4041 49.9488C21.3111 49.9846 21.1324 49.9631 21.068 49.8988C20.7892 49.6271 20.5532 49.3125 20.2744 49.0336C20.0456 48.8048 19.8025 48.5045 19.5164 48.433C18.9587 48.29 18.6227 48.7405 18.5226 49.3697C18.4225 50.0203 18.6799 50.578 18.973 51.1215C19.1303 51.4075 19.1875 51.6506 18.8586 51.8794C18.4868 52.1439 18.494 52.4371 18.8658 52.6802C19.259 52.9376 19.6809 53.1521 20.0885 53.3952C20.4674 53.624 20.8535 53.8313 20.7606 54.4033C20.7391 54.5321 20.9393 54.768 21.0895 54.8395C21.7258 55.1184 22.3765 55.3758 23.0343 55.5974C23.2917 55.6832 23.5777 55.6618 23.8566 55.6904C23.8637 55.6546 23.8709 55.6189 23.8709 55.5831C23.1129 55.0755 22.1691 54.8896 21.354 54.2675C21.5971 54.2031 21.733 54.1602 21.926 54.1102C21.8402 54.0315 21.7902 53.9743 21.7258 53.9386C21.1181 53.5382 20.5032 53.1378 19.8954 52.7302C19.8382 52.6945 19.8311 52.5872 19.8025 52.5157C19.874 52.5157 19.9598 52.5014 20.0098 52.53C20.4031 52.766 20.7892 53.0162 21.1896 53.2522C21.2968 53.3165 21.4327 53.3451 21.5542 53.388C21.5685 53.3594 21.59 53.3308 21.6043 53.3022C21.0966 52.8804 20.589 52.4514 20.017 51.9723C20.2458 51.908 20.3745 51.8722 20.5246 51.8293C20.1028 51.336 19.6952 50.8641 19.2948 50.3921C19.3162 50.3707 19.3377 50.3564 19.3663 50.3349C19.4807 50.3564 19.5951 50.3707 19.7667 50.3993C19.6308 50.0775 19.5236 49.8273 19.3806 49.4841C19.9097 49.7129 20.2029 50.0132 20.4031 50.4279C20.4746 50.5709 20.6462 50.7854 20.7391 50.7639C21.0609 50.6996 21.1252 50.8641 21.1967 51.1072C21.2897 51.4361 21.4184 51.7507 21.5328 52.0724C21.5685 52.0653 21.6114 52.0581 21.6472 52.051C21.6901 51.9652 21.733 51.8865 21.7973 51.7578C21.9689 52.1082 22.1191 52.4013 22.2621 52.7016C22.3121 52.6873 22.3622 52.6659 22.4122 52.6516C22.3693 52.3298 22.3264 52.0081 22.2764 51.6863C22.3264 51.672 22.3836 51.6577 22.4337 51.6434C22.641 52.2297 22.8484 52.8232 23.0557 53.4095C23.0843 53.4023 23.1058 53.3952 23.1344 53.388C23.0915 53.102 23.0486 52.8232 23.0057 52.5729C23.2702 52.6802 23.542 52.7803 23.7922 52.909C23.8852 52.959 23.9495 53.0806 23.9853 53.1878C24.114 53.5882 24.2069 54.0029 24.3571 54.3962C24.4357 54.5964 24.6073 54.7609 24.736 54.9468C24.7718 54.9253 24.8075 54.8967 24.8433 54.8753C24.7932 54.6965 24.7503 54.5177 24.7003 54.339C24.6574 54.1674 24.6216 53.9886 24.5787 53.8099C25.4296 55.5259 25.7728 55.5045 26.2804 55.4187C26.2804 55.3972 26.2876 55.3686 26.2804 55.3543C25.88 54.1102 25.2794 52.959 24.6216 51.8365C24.4429 51.529 24.0568 51.5505 23.8494 51.8436C23.7994 51.9509 23.735 52.0581 23.6635 52.1654ZM18.3939 51.2645C18.2938 50.8783 18.1937 50.5637 18.1436 50.2491C18.0936 49.9131 17.8648 49.6557 17.5216 49.6414C17.3571 49.6342 17.1712 49.6843 17.0282 49.6271C16.8638 49.5627 16.6493 49.434 16.6064 49.291C16.4562 48.7834 16.1917 48.5403 15.684 48.6761C15.3122 48.7762 15.019 48.669 14.7187 48.4974C14.3898 48.3115 14.0609 48.1899 13.6748 48.2185C13.1958 48.2543 12.8955 48.4974 12.9312 48.9764C12.9741 49.5127 13.1028 50.0346 13.1958 50.5852C13.1529 50.6209 13.0885 50.671 13.0242 50.7139C12.5308 51.0857 12.5022 51.3288 12.8669 51.8508C12.8955 51.8865 12.9455 51.9151 12.9598 51.958C13.1028 52.3012 13.303 52.6373 13.3602 52.9948C13.4389 53.4953 13.5604 53.6168 14.0538 53.4452C14.1467 53.4095 14.2397 53.3809 14.3326 53.3523C14.2897 53.2164 14.2611 53.1092 14.2111 52.959C14.6615 53.1235 14.9976 53.4309 15.5481 53.3308C15.2407 53.0949 15.0119 52.9233 14.7831 52.7445C14.7974 52.7088 14.8188 52.673 14.8331 52.6301C15.0977 52.6802 15.3622 52.7374 15.6339 52.7874C15.6482 52.7588 15.6625 52.7302 15.6768 52.7016C15.4766 52.5515 15.2764 52.4013 15.0905 52.2369C15.0262 52.1797 14.9332 52.0867 14.9475 52.0295C15.019 51.7292 14.8331 51.6148 14.6401 51.4647C14.4113 51.2788 14.0466 51.1143 14.3398 50.6996C14.3684 50.6638 14.3326 50.5637 14.304 50.4994C14.1825 50.1633 14.0538 49.8273 13.9251 49.4912C13.9465 49.4769 13.968 49.4626 13.9823 49.4483C14.2683 49.6414 14.5471 49.8416 14.9046 50.0847C14.9046 49.8058 14.9046 49.6056 14.9046 49.4054C14.9475 49.3983 14.9904 49.3911 15.0262 49.384C15.1334 49.7129 15.255 50.0346 15.3336 50.3707C15.4266 50.7353 15.4552 51.1286 15.8842 51.3932C15.8484 50.9999 15.8127 50.6853 15.7841 50.3635C15.8055 50.3635 15.8341 50.3564 15.8556 50.3564C16.1059 50.9356 16.3561 51.5076 16.5992 52.0867C16.6493 52.0724 16.6922 52.0581 16.7422 52.0438C16.7351 51.4361 16.4062 50.8712 16.3561 50.2134C16.8352 50.528 16.8781 50.9785 16.9853 51.4146C17.064 51.7292 17.1998 52.0224 17.3071 52.3298C17.3571 52.3155 17.4072 52.3012 17.4572 52.2869C17.4286 52.0224 17.4072 51.7507 17.3786 51.4861C17.35 51.2502 17.2999 51.0142 17.257 50.7782C17.2928 50.7711 17.3285 50.764 17.3643 50.7568C17.4358 50.8927 17.493 51.0285 17.5716 51.1644C17.9506 51.8222 17.9506 51.8222 18.3939 51.2645ZM52.5713 53.2808C52.7501 53.767 52.9503 53.91 53.2506 53.8099C53.5652 53.7026 53.6939 53.4023 53.5938 53.0377C53.5795 52.9805 53.5795 52.9018 53.6081 52.8518C53.8154 52.4871 53.9942 52.101 54.2516 51.7721C54.5805 51.3503 54.6163 51.3574 54.2516 50.9713C53.9728 50.6782 53.9513 50.3421 54.0014 49.9774C54.0443 49.6914 54.1015 49.3983 54.1015 49.1051C54.0943 48.719 53.6581 48.3258 53.3435 48.433C52.9574 48.5617 52.5856 48.7405 52.221 48.9264C51.9278 49.0694 51.6633 49.2195 51.3987 48.8835C51.2128 48.6475 51.0484 48.8191 50.9268 48.9407C50.6623 49.1981 50.4192 49.4698 50.1832 49.7558C50.0545 49.9131 49.9258 49.9488 49.7542 49.8487C49.5325 49.72 49.3323 49.7629 49.1893 49.9631C49.0606 50.1419 48.9248 50.3349 48.8461 50.5351C48.6817 50.9427 48.5601 51.3717 48.8175 51.7936C48.9391 52.0009 49.0892 52.0152 49.2251 51.8079C49.3323 51.6506 49.4396 51.4861 49.554 51.3217C49.5897 51.336 49.6326 51.3431 49.6684 51.3574C49.5969 51.7364 49.5325 52.1225 49.461 52.5014C49.5039 52.5086 49.5468 52.5157 49.5897 52.53C50.176 51.9008 50.1403 50.9642 50.648 50.292C50.6122 50.6281 50.5121 50.9499 50.4549 51.2788C50.3906 51.6077 50.362 51.9366 50.3191 52.2655C50.3691 52.2798 50.4192 52.2869 50.4692 52.3012C50.9125 51.7578 51.0198 51.0571 51.2557 50.4207C51.2915 50.4279 51.3201 50.4422 51.3558 50.4493C51.3058 50.7783 51.2557 51.1 51.2128 51.4289C51.2486 51.4361 51.2915 51.4504 51.3272 51.4575C51.5417 50.9356 51.7562 50.4136 51.9993 49.813C52.078 50.0275 52.1209 50.1705 52.1852 50.3492C52.5213 50.099 52.8287 49.863 53.1648 49.6056C53.0146 50.0489 52.8144 50.4207 52.7572 50.8212C52.7072 51.2144 52.5856 51.4861 52.2424 51.6863C52.0851 51.7793 51.9779 51.958 51.8492 52.0939C51.8778 52.1153 51.8992 52.1368 51.9278 52.1654C52.2782 52.0009 52.6285 51.8365 52.9789 51.672C53.0003 51.7078 53.0218 51.7507 53.0432 51.7864C52.5713 52.3727 51.7562 52.5443 51.2557 53.0949C51.2772 53.1235 51.2915 53.1521 51.3129 53.1807C51.6561 53.052 51.9993 52.9233 52.3354 52.8017C52.3497 52.8375 52.364 52.8732 52.3783 52.9018C52.1137 53.0734 51.842 53.2522 51.5775 53.4238C51.5846 53.4524 51.5918 53.481 51.5989 53.5096C51.9207 53.4238 52.2353 53.3523 52.5713 53.2808ZM8.1478 45.1011C8.205 44.9152 8.2765 44.765 8.29795 44.6077C8.45525 43.428 7.84749 42.5127 7.18969 41.6404C6.78928 41.1113 6.16007 40.904 5.58806 40.6251C5.25201 40.4607 4.88021 40.3677 4.51555 40.2748C4.24385 40.2104 4.07939 40.3177 4.1223 40.6323C4.1938 41.1328 4.2224 41.6404 4.34395 42.1338C4.48695 42.7272 4.65855 43.3135 4.88021 43.8784C5.20911 44.6935 5.64527 45.4443 6.20297 46.1307C6.63198 46.6526 7.11103 47.0816 7.79744 47.2247C7.96905 46.5883 7.84749 46.3023 7.23259 46.052C6.87508 45.909 6.57478 45.6159 6.25302 45.3871C6.27447 45.3513 6.29592 45.3156 6.32452 45.2798C6.82503 45.4514 7.32554 45.6302 7.82604 45.8018C7.26834 45.0868 6.60338 44.4933 6.13862 43.7712C5.09471 42.1409 4.97316 41.7262 5.13761 41.3902C5.43076 41.9193 5.71677 42.4269 6.03137 42.9846C6.11717 42.8273 6.15292 42.7415 6.20297 42.6629C6.24587 42.5914 6.29592 42.5199 6.36742 42.4198C6.64628 43.1205 6.51043 43.9428 7.29694 44.4361C7.33269 44.1716 7.35414 43.9785 7.38274 43.764C7.66874 44.1859 7.47569 44.8723 8.1478 45.1011ZM6.18152 37.3075C6.11002 36.6997 6.05997 36.1492 5.97417 35.6129C5.85262 34.8979 5.71677 34.1829 5.55946 33.475C5.40931 32.8029 5.38786 32.095 5.03036 31.473C4.67285 30.8438 4.18665 30.3862 3.45019 30.1431C3.35724 30.3433 3.24998 30.5149 3.20708 30.7079C3.12128 31.1226 3.14988 31.5659 3.00688 31.952C2.75663 32.6242 3.11413 33.2605 3.05693 33.9183C3.02833 34.283 3.14273 34.6619 3.24283 35.0266C3.52169 36.0562 3.90064 37.0501 4.4512 37.9581C4.7086 38.3871 5.05181 38.7661 5.36641 39.1593C5.41646 39.2165 5.53086 39.2237 5.60951 39.2523C5.63096 39.1808 5.68817 39.0807 5.65957 39.0378C5.44506 38.6445 5.25201 38.2441 4.98746 37.8866C4.7372 37.5577 4.40115 37.3003 4.11514 37C3.85059 36.7212 3.85774 36.5281 4.1509 36.3494C4.37255 36.664 4.5942 36.9714 4.81585 37.286C4.85876 37.2574 4.90881 37.236 4.95171 37.2074C4.6371 36.5567 4.3225 35.9132 4.00789 35.2482C4.1938 35.2482 4.3082 35.2482 4.42975 35.2482C4.40115 35.1195 4.394 34.9765 4.3511 34.855C4.1509 34.3044 3.93639 33.761 3.72189 33.1962C3.86489 33.1533 3.99359 33.1104 4.08654 33.0818C4.05794 32.7815 4.02934 32.5098 4.00074 32.2381C4.17235 32.5312 4.2796 32.8315 4.3368 33.139C4.3797 33.3964 4.48695 33.5465 4.77295 33.5179C4.77295 33.8182 4.77295 34.0899 4.77295 34.3616C4.77295 34.6476 4.7515 34.9336 4.78725 35.2196C4.80155 35.3626 4.87305 35.57 4.98031 35.6272C5.20196 35.7487 5.23056 35.9061 5.23056 36.1277C5.21626 36.8213 5.37356 37.0358 6.18152 37.3075ZM63.9614 30.4219C63.2464 30.5864 62.796 31.0726 62.4242 31.6088C61.9094 32.3525 61.8522 33.2677 61.6663 34.1185C61.5304 34.7334 61.5304 35.3841 61.4518 36.0133C61.4089 36.3708 61.3731 36.7426 61.2587 37.0787C61.1443 37.4147 61.2801 37.6078 61.4946 37.8294C61.559 37.665 61.5733 37.4719 61.6734 37.4076C61.9666 37.2145 61.988 36.9285 61.9952 36.6354C62.0023 36.2707 61.9952 35.8989 61.9952 35.5271C62.081 35.6558 62.1811 35.7988 62.3169 35.9919C62.6315 34.6834 62.9318 33.4464 63.2393 32.1665C63.6468 32.4883 63.1678 32.8673 63.3894 33.2105C63.4967 33.0675 63.5896 32.9602 63.6754 32.8458C63.4824 33.854 62.8532 34.7406 62.8675 35.8703C63.0677 35.6701 63.2107 35.5342 63.3465 35.3984C63.368 35.4198 63.3894 35.4413 63.4109 35.4556C63.3465 35.5628 63.2822 35.6772 63.2107 35.7845C62.9461 36.1849 62.653 36.571 62.4099 36.9857C62.1954 37.3504 62.0953 37.7508 62.3813 38.1583C62.0595 38.4944 61.6448 38.7875 61.845 39.4382C62.3813 38.6731 63.0105 38.0582 63.4538 37.3075C63.4252 37.286 63.3966 37.2574 63.3751 37.236C63.1034 37.4147 62.8389 37.5935 62.5672 37.7651C62.5386 37.7293 62.51 37.6936 62.4814 37.6578C62.6959 37.4719 62.8818 37.2217 63.132 37.1001C63.8542 36.7569 64.1616 36.1063 64.1902 35.427C64.2403 33.8897 64.1473 32.3453 64.1044 30.8009C64.1044 30.6793 64.0115 30.5506 63.9614 30.4219ZM16.7851 42.7916C16.7851 41.2686 16.7851 39.7457 16.778 38.2227C16.778 38.1011 16.7208 37.9081 16.6421 37.8723C16.4562 37.7937 16.2346 37.7722 16.0201 37.7651C15.6125 37.7436 15.4337 37.9295 15.4337 38.3371C15.4337 39.4096 15.4337 40.4821 15.4337 41.5475C15.4337 43.2134 15.3765 44.8866 15.4623 46.5454C15.5124 47.4678 15.5481 47.7252 16.4419 47.6751C16.7422 47.6608 16.7923 47.5464 16.7923 47.289C16.7851 45.7946 16.7851 44.2931 16.7851 42.7916ZM28.9903 47.6251C29.4622 47.7037 29.5337 47.6537 29.5337 47.239C29.5337 45.9662 29.5337 44.6935 29.5337 43.4137C29.5337 43.1419 29.5266 42.8845 29.7411 42.6557C29.8412 42.5485 29.8698 42.3483 29.8698 42.191C29.8698 41.8835 29.7911 41.5832 29.7911 41.2758C29.8054 40.5036 29.8698 39.7385 29.8698 38.9663C29.8769 36.3136 29.8769 33.6538 29.8698 31.0011C29.8698 30.9153 29.8841 30.8295 29.8626 30.7508C29.8483 30.6936 29.8054 30.615 29.7482 30.5935C29.3192 30.4005 28.9832 30.615 28.9832 31.0654C28.9832 36.4495 28.9832 41.8263 28.9832 47.2104C28.9903 47.3462 28.9903 47.4749 28.9903 47.6251ZM61.0013 45.766C60.6009 46.002 60.2291 46.195 59.8787 46.4238C59.6642 46.5597 59.464 46.7313 59.2924 46.9244C59.2281 46.9958 59.2567 47.1674 59.2781 47.289C59.2853 47.3248 59.4283 47.382 59.4783 47.3605C59.6785 47.2676 59.9002 47.1818 60.0646 47.0316C60.5723 46.5525 61.0799 46.0806 61.5304 45.5515C61.845 45.1797 62.131 44.7507 62.3169 44.3003C62.5958 43.6353 62.8103 42.9346 62.9747 42.2267C63.0891 41.7334 63.0891 41.2043 63.1392 40.6823C62.8818 40.6966 62.6959 40.6895 62.51 40.7252C61.8093 40.8468 61.1228 40.9755 60.6366 41.5904C60.3292 41.9836 59.9788 42.3411 59.6428 42.6986C58.9778 43.4137 58.6275 44.2288 58.8992 45.2226C58.9206 45.3084 58.9707 45.3799 59.0064 45.4586C59.0851 45.4014 59.2138 45.3585 59.2424 45.287C59.3425 45.001 59.414 44.7078 59.4998 44.4147C59.5641 44.2002 59.6356 43.9857 59.7071 43.7712C59.7429 43.7783 59.7715 43.7855 59.8072 43.7855C59.8072 43.9928 59.8001 44.2002 59.8144 44.4147C59.8144 44.4719 59.8787 44.5362 59.9288 44.5648C59.9574 44.5791 60.0432 44.5362 60.0718 44.4933C60.322 44.1215 60.5365 43.7497 60.5937 43.2778C60.6438 42.8917 60.8225 42.527 60.9441 42.1481C61.0013 42.1624 61.0656 42.1767 61.1228 42.191C61.0656 42.5127 61.0013 42.8273 60.9512 43.1491C60.9369 43.2134 60.9655 43.285 60.9727 43.3564C61.0227 43.3279 61.1014 43.3064 61.13 43.2635C61.3946 42.8273 61.6448 42.3912 61.9094 41.955C61.9737 41.8406 62.0738 41.7477 62.1525 41.6476C61.7592 43.3922 60.8011 44.7936 59.4926 46.052C60.1218 46.2236 60.4078 45.4729 61.0013 45.766ZM39.6797 39.1379C39.6797 36.4209 39.6797 33.711 39.6869 30.9939C39.6869 30.7008 39.6225 30.5792 39.2936 30.5649C38.9004 30.5506 38.8789 30.7437 38.8789 31.044C38.8861 34.6047 38.8861 38.1655 38.8789 41.7262C38.8789 42.1981 38.8789 42.6486 39.1506 43.0561C39.2007 43.1348 39.2007 43.2635 39.2007 43.3636C39.2007 44.6506 39.2007 45.9376 39.2007 47.2247C39.2007 47.3176 39.1721 47.432 39.215 47.5035C39.2579 47.575 39.3651 47.6537 39.4438 47.6537C39.5153 47.6537 39.6368 47.5607 39.6583 47.4892C39.694 47.3534 39.6797 47.2032 39.6797 47.0602C39.6797 44.4218 39.6797 41.7763 39.6797 39.1379ZM52.1137 46.3952C52.1495 46.4167 52.1852 46.431 52.221 46.4524C52.4355 46.1807 52.6357 45.8876 52.8788 45.6373C53.2077 45.3013 53.3435 44.9152 53.3364 44.4576C53.3292 42.5485 53.3364 40.6466 53.3292 38.7375C53.3221 37.7007 53.4865 37.8795 52.4426 37.8509C52.1423 37.8437 52.0851 37.9581 52.0851 38.2298C52.0923 40.8468 52.0851 43.4709 52.0851 46.0878C52.0923 46.1879 52.1066 46.288 52.1137 46.3952ZM4.07224 25.0236C4.61565 25.0022 4.5942 24.6875 4.5942 24.3586C4.60135 24.137 4.6371 23.9082 4.7229 23.708C4.8087 23.5078 5.08756 23.5078 5.16621 23.708C5.27346 23.9725 5.40216 24.2299 5.26631 24.5517C5.10901 24.9307 5.00176 25.3454 5.42361 25.6886C5.50226 25.7529 5.47366 25.9674 5.45936 26.1033C5.42361 26.4036 5.35211 26.7039 5.30206 27.0113C5.50226 26.9827 5.62382 26.9112 5.73822 26.8397C6.26017 26.5037 6.28162 25.9388 6.31022 25.424C6.36742 24.3586 6.11717 23.3433 5.73822 22.3566C5.64527 22.1064 5.49511 21.8704 5.35211 21.6345C5.22341 21.4343 5.05181 21.3914 4.89451 21.6059C4.70145 21.8704 4.5084 22.135 4.34395 22.421C3.65754 23.6007 3.70044 24.9092 3.80769 26.1891C3.87919 26.997 4.14375 27.7907 4.32965 28.5844C4.3797 28.7989 4.4655 29.0134 4.537 29.2207C4.68 29.1278 4.77295 29.0277 4.77295 28.9347C4.78725 27.6262 4.93026 26.2892 4.07224 25.0236ZM12.5666 52.959C12.6953 52.4943 12.5737 52.1082 12.3521 51.7936C11.8015 50.9999 11.158 50.3135 10.1641 50.0489C9.65647 49.9131 9.19171 49.9202 8.71266 50.099C8.5482 50.1633 8.491 50.2634 8.56965 50.4636C8.74841 50.8712 8.88426 51.3002 9.04156 51.7149C9.63502 53.2665 10.729 54.2746 12.3449 54.6965C12.8454 54.8324 13.16 54.625 13.1457 54.196C13.1314 53.8385 12.8669 53.8385 12.6166 53.8027C12.0947 53.7312 11.5655 53.6669 11.0436 53.5882C10.9363 53.5739 10.8505 53.4667 10.7504 53.4023C10.7647 53.3737 10.7719 53.3451 10.7862 53.3165C11.1794 53.3451 11.5798 53.3737 12.0518 53.4023C11.5512 52.6444 10.6289 52.8089 10.014 52.194C10.3143 52.1582 10.5145 52.1153 10.7147 52.1082C11.3224 52.0939 11.3224 52.0939 11.208 51.5147C11.208 51.5004 11.2366 51.4861 11.2795 51.4289C11.7014 51.9366 11.7371 52.766 12.5666 52.959ZM56.2179 53.6311C56.2322 53.674 56.2465 53.7241 56.2536 53.767C56.1321 53.8242 56.0105 53.91 55.8818 53.9314C55.3384 54.0172 54.7879 54.0959 54.2373 54.1459C53.8154 54.1888 53.6796 54.4105 53.8727 54.7823C53.9871 55.004 54.1158 55.1255 54.3732 54.9825C54.459 54.9396 54.5877 54.9754 54.6878 54.9468C55.1311 54.8109 55.6316 54.7466 56.0105 54.4963C57.4119 53.5811 57.984 52.1153 58.4988 50.5923C58.3629 50.528 58.2628 50.4422 58.1556 50.435C57.5406 50.3707 56.9329 50.385 56.3323 50.6138C55.6173 50.8855 55.1168 51.4075 54.6663 51.9938C54.3303 52.4228 54.3446 52.8875 54.6806 53.2665C55.0882 53.0091 55.2455 52.5944 55.4028 52.1725C55.4671 51.9938 55.51 51.8079 55.603 51.6506C55.6387 51.5862 55.7674 51.5648 55.8532 51.529C55.8604 51.6148 55.8747 51.6935 55.8747 51.7793C55.8604 51.9723 55.8389 52.1654 55.8175 52.3584C55.8461 52.3727 55.8818 52.387 55.9104 52.3942C56.4967 51.9437 56.5539 51.0285 57.319 50.6782C57.3118 50.8283 57.3047 50.9427 57.2975 51.1C57.462 51.1 57.605 51.1 57.8338 51.1C57.3118 51.5505 56.8542 51.9437 56.3394 52.3942C56.5825 52.4371 56.6969 52.4585 56.8113 52.48C56.8185 52.5086 56.8256 52.5372 56.8328 52.5658C56.1106 52.9376 55.3885 53.3022 54.6663 53.674C54.6806 53.7098 54.6878 53.7455 54.7021 53.7813C55.2026 53.7098 55.7102 53.674 56.2179 53.6311ZM62.131 27.6477C62.1239 27.519 62.1596 27.3688 62.1024 27.2687C61.9094 26.9184 61.9952 26.6109 62.1882 26.3035C62.367 26.0175 62.3884 25.71 62.2883 25.3811C62.1525 24.9164 62.0381 24.4444 61.9094 23.9439C62.0667 24.0011 62.1739 24.044 62.3169 24.1012C62.3455 23.8653 62.3598 23.6722 62.3813 23.4863C62.4242 23.472 62.4599 23.4649 62.5028 23.4506C62.6244 23.7294 62.8031 24.0011 62.8603 24.2943C62.9247 24.6017 62.8746 24.9378 62.8746 25.2882C63.0605 25.2095 63.1606 25.1595 63.2679 25.1166C62.4671 26.425 62.703 27.8336 62.6744 29.2922C62.7888 29.1921 62.8532 29.1635 62.8675 29.1206C63.0319 28.6344 63.2321 28.1482 63.3465 27.6477C63.5467 26.804 63.5825 25.946 63.5825 25.0737C63.5825 23.9296 63.1678 22.9572 62.6816 21.9777C62.5886 21.7846 62.4242 21.6917 62.274 21.9062C62.0238 22.2494 61.6806 22.5854 61.5876 22.9715C61.3874 23.8152 61.1586 24.659 61.2015 25.5527C61.2301 26.375 61.5089 27.0685 62.131 27.6477ZM9.15596 15.85C9.22746 16.1646 9.02726 16.3291 8.88426 16.515C8.66976 16.8081 8.44095 17.0941 8.24075 17.3945C8.1907 17.466 8.2336 17.6018 8.2336 17.7591C8.55535 17.5518 8.81991 17.4159 9.04156 17.23C9.25606 17.0441 9.58497 16.8224 9.59927 16.5936C9.66362 15.6927 9.64217 14.7847 9.61357 13.8838C9.60642 13.7336 9.44912 13.5191 9.30611 13.4548C9.20601 13.4118 8.97721 13.5406 8.86996 13.655C8.24075 14.3056 7.56864 14.9348 7.30409 15.85C7.08243 16.6079 6.78213 17.3587 6.64628 18.1381C6.51758 18.8817 6.56048 19.6467 6.54618 20.4046C6.54618 20.5262 6.61053 20.6477 6.64628 20.7693C6.68203 20.7693 6.71778 20.7693 6.75353 20.7693C6.80358 20.6763 6.86078 20.5762 6.90368 20.4761C7.06098 20.1186 7.21829 19.7611 7.36129 19.4036C7.43994 19.2034 7.52574 18.9889 7.52574 18.7744C7.52574 18.4384 7.46854 18.1095 7.42564 17.7448C7.84034 17.7806 7.86894 17.5661 7.87609 17.2586C7.89039 16.7152 7.9619 16.1718 8.0048 15.6355C8.1335 15.7142 8.2336 15.7785 8.3337 15.8429C8.4767 15.5855 8.59825 15.3781 8.71981 15.1708C8.76271 15.1922 8.79846 15.2065 8.84136 15.228C8.81991 15.4568 8.79846 15.6856 8.76986 15.9501C8.92716 15.9144 9.02726 15.8858 9.15596 15.85ZM60.6438 21.1054C60.6938 21.0982 60.7439 21.0911 60.7939 21.0911C60.8368 20.9481 60.9083 20.8122 60.9083 20.6692C60.9155 19.7111 60.9083 18.7601 60.7224 17.8092C60.5222 16.7509 60.2076 15.7428 59.5999 14.8633C59.2853 14.4057 58.9063 13.9696 58.3629 13.7408C57.2689 15.4282 57.7266 17.3373 59.2853 18.0594C59.1065 17.3373 58.5202 16.8796 58.4058 16.1932C58.556 16.3219 58.7061 16.4578 58.9135 16.6437C58.9135 16.3434 58.9278 16.1432 58.9135 15.943C58.8992 15.7499 58.8563 15.564 58.8205 15.2852C59.2138 15.5998 58.9778 16.2361 59.5713 16.2576C59.6499 16.7652 59.7143 17.2801 59.8072 17.7877C59.8716 18.1452 59.986 18.4884 60.0432 18.8459C60.0932 19.1963 60.0718 19.5466 60.2648 19.8755C60.3935 20.0972 60.3935 20.3903 60.4722 20.6477C60.5008 20.805 60.5794 20.9552 60.6438 21.1054ZM22.8555 43.0061C22.8555 41.5403 22.8484 40.0746 22.8627 38.6088C22.8698 38.2513 22.6553 38.287 22.4265 38.2727C22.1906 38.2656 22.0547 38.2942 22.0547 38.5945C22.0619 41.4903 22.0619 44.3861 22.0547 47.2819C22.0547 47.6108 22.2192 47.668 22.5052 47.6751C22.8055 47.6823 22.8627 47.5607 22.8627 47.2962C22.8484 45.8661 22.8555 44.4361 22.8555 43.0061ZM48.6817 43.0061C48.6817 44.4361 48.6888 45.8661 48.6745 47.2962C48.6674 47.6394 48.8247 47.6751 49.1035 47.6823C49.4038 47.6894 49.4825 47.5822 49.4825 47.289C49.4753 44.4576 49.4753 41.619 49.4753 38.7875C49.4753 38.5301 49.4682 38.2942 49.125 38.287C48.8247 38.287 48.6817 38.4443 48.6817 38.7947C48.6817 40.1961 48.6817 41.6047 48.6817 43.0061ZM21.7258 47.6251C21.7258 47.4821 21.7258 47.3462 21.7258 47.2175C21.7258 45.7088 21.7258 44.193 21.7258 42.6843C21.7258 41.3759 21.733 40.0674 21.7187 38.7589C21.7187 38.6374 21.6615 38.4515 21.5828 38.4157C21.1753 38.2441 20.9322 38.43 20.9322 38.8662C20.9322 41.5904 20.9322 44.3146 20.9322 47.0459C20.9322 47.6823 21.0037 47.7395 21.7258 47.6251ZM13.2673 12.1463C13.303 12.1677 13.3388 12.182 13.3745 12.2035C13.5533 11.9747 13.732 11.753 13.9036 11.5242C14.5257 10.7163 15.019 9.8797 15.1835 8.82149C15.3193 7.94203 15.0405 7.91343 14.3755 8.12078C14.254 8.15653 14.1324 8.22088 14.0252 8.29238C13.4317 8.67849 12.8955 9.12179 12.4665 9.7081C11.923 10.4517 11.4726 11.2168 11.2724 12.1177C11.2366 12.2821 11.2867 12.468 11.2938 12.6396C11.3367 12.6468 11.3796 12.6611 11.4225 12.6682C11.78 12.132 12.1519 11.6029 12.4951 11.0523C12.8454 10.4875 13.1743 9.90115 13.5318 9.2934C13.5604 9.42925 13.5747 9.5222 13.6105 9.68665C13.9894 9.322 14.3326 8.99309 14.6758 8.66419C14.7187 8.69279 14.7545 8.72139 14.7974 8.74999C14.7473 8.85724 14.7187 8.98594 14.6401 9.07174C14.3755 9.35775 14.0752 9.6223 13.825 9.9226C13.6963 10.0799 13.5533 10.3159 13.5819 10.4803C13.6319 10.7592 13.5318 10.9022 13.3459 11.0452C13.1886 11.1739 13.0242 11.2883 12.874 11.4241C12.7239 11.5671 12.5952 11.7316 12.4522 11.8889C12.4808 11.9175 12.5022 11.9532 12.5308 11.9818C12.7382 11.9103 12.9455 11.8317 13.1672 11.753C13.2172 11.9246 13.2387 12.039 13.2673 12.1463ZM52.6071 8.32098C52.1852 9.465 53.6152 12.1677 54.459 12.4037C54.4232 12.0104 54.4232 12.0176 54.8451 12.0891C54.938 12.1034 55.0381 12.0819 55.2097 12.0676C54.6592 11.6243 54.1801 11.2454 53.6867 10.845C53.8727 10.6734 54.1301 10.5161 53.8941 10.2086C53.8941 10.2086 54.0371 10.0442 54.0872 10.0585C54.1944 10.0942 54.3017 10.1729 54.366 10.2587C54.5734 10.5733 54.7593 10.9022 54.9666 11.2168C55.0381 11.324 55.1311 11.4098 55.2169 11.5099C55.2455 11.4956 55.2741 11.4813 55.3027 11.467C55.317 11.3097 55.3313 11.1596 55.3456 11.0023C55.3742 10.9951 55.4028 10.988 55.4314 10.9808C55.5315 11.3598 55.6316 11.7387 55.7317 12.1105C55.8318 12.4895 55.9533 12.8541 56.4109 12.9614C56.604 11.1882 54.2302 8.59269 52.6071 8.32098ZM24.3571 42.9346C24.3571 44.4004 24.3571 45.859 24.3499 47.3248C24.3499 47.5893 24.4214 47.6751 24.6931 47.6751C25.0006 47.6823 25.0721 47.5536 25.0649 47.2747C25.0578 44.4075 25.0578 41.5403 25.0649 38.6731C25.0649 38.4157 25.0149 38.2799 24.7146 38.2727C24.4214 38.2656 24.3499 38.38 24.3571 38.6517C24.3642 40.0817 24.3571 41.5117 24.3571 42.9346ZM46.029 42.9989C46.029 44.429 46.0361 45.859 46.0218 47.289C46.0218 47.5822 46.1005 47.6823 46.4008 47.6823C46.7655 47.6894 46.7369 47.4606 46.7369 47.239C46.7369 44.4147 46.7369 41.5904 46.744 38.7661C46.744 38.5158 46.7011 38.3013 46.3937 38.2942C46.0576 38.287 46.029 38.523 46.029 38.7804C46.0361 40.1818 46.029 41.5904 46.029 42.9989ZM43.8196 43.0061C43.8196 44.4361 43.8268 45.8661 43.8196 47.2962C43.8196 47.5607 43.884 47.6751 44.1771 47.6751C44.4774 47.6751 44.5275 47.5536 44.5275 47.289C44.5203 44.4433 44.5203 41.5904 44.5203 38.7446C44.5203 38.6874 44.5418 38.6088 44.5132 38.573C44.4202 38.4658 44.313 38.2942 44.2129 38.3013C44.0842 38.3013 43.934 38.43 43.8411 38.5444C43.7839 38.6088 43.8196 38.7518 43.8196 38.859C43.8196 40.2462 43.8196 41.6261 43.8196 43.0061ZM23.2559 42.9346C23.2488 42.9346 23.2488 42.9346 23.2559 42.9346C23.2488 44.4004 23.2559 45.859 23.2488 47.3248C23.2488 47.5822 23.3203 47.6823 23.592 47.6751C23.8351 47.668 23.9567 47.6322 23.9567 47.3462C23.9495 44.4433 23.9495 41.5403 23.9567 38.6374C23.9567 38.3871 23.8995 38.2799 23.6206 38.2727C23.3274 38.2727 23.2559 38.38 23.2559 38.6517C23.2559 40.0817 23.2559 41.5046 23.2559 42.9346ZM8.76271 49.2124C8.82706 49.2052 8.88426 49.1981 8.94861 49.1909C9.06301 48.5546 9.18456 47.9111 9.29896 47.2747C9.39907 46.7027 9.44197 46.1021 9.61357 45.5515C9.86382 44.7579 10.1856 43.9714 10.5359 43.2206C10.7576 42.7558 10.779 42.3197 10.6003 41.8692C10.5717 41.8049 10.3286 41.7334 10.2785 41.7763C9.77087 42.2339 9.35616 42.7701 9.17741 43.4423C9.02011 44.0429 8.91286 44.6578 8.77701 45.2655C8.68406 45.6659 8.5339 46.0592 8.5053 46.4596C8.45525 47.0888 8.46955 47.7252 8.5053 48.3544C8.5339 48.6332 8.67691 48.9192 8.76271 49.2124ZM57.0044 41.8049C56.5396 42.0408 56.2608 42.6986 56.4395 43.1562C56.7184 43.8713 57.0187 44.572 57.319 45.2798C57.6837 46.1378 57.9411 47.0244 57.9411 47.9683C57.9411 48.3758 57.9339 48.7762 57.9482 49.1838C57.9482 49.2624 58.0269 49.3411 58.0769 49.4197C58.1484 49.3768 58.2485 49.3482 58.2986 49.2839C58.6132 48.8477 58.8062 48.3758 58.7347 47.8253C58.7133 47.6394 58.6346 47.4606 58.606 47.2819C58.5274 46.7813 58.4988 46.2737 58.3772 45.7875C58.1842 45.0153 57.9625 44.2502 57.7051 43.4995C57.512 42.9203 57.2403 42.3697 57.0044 41.8049ZM45.6286 43.0061C45.6286 41.5689 45.6286 40.1246 45.6286 38.6874C45.6286 38.4801 45.6429 38.287 45.3283 38.2727C45.0137 38.2584 44.9207 38.3657 44.9207 38.6803C44.9279 41.5475 44.9279 44.4218 44.9279 47.289C44.9279 47.3391 44.9064 47.3963 44.935 47.432C45.0065 47.5178 45.078 47.6465 45.171 47.6608C45.5642 47.7252 45.6286 47.6608 45.6286 47.2604C45.6286 45.8447 45.6286 44.429 45.6286 43.0061ZM27.2386 42.9703C27.2386 41.526 27.2314 40.0889 27.2386 38.6445C27.2386 38.4086 27.2099 38.2727 26.9168 38.2727C26.6165 38.2656 26.5664 38.4014 26.5664 38.6588C26.5736 41.5403 26.5736 44.4218 26.5664 47.3105C26.5664 47.5536 26.595 47.6751 26.8882 47.6823C27.1885 47.6823 27.2386 47.5679 27.2386 47.3033C27.2314 45.859 27.2386 44.4147 27.2386 42.9703ZM47.1802 47.6322C47.8237 47.7109 47.8308 47.7109 47.8308 47.1174C47.8308 44.3432 47.8308 41.5689 47.8308 38.7947C47.8308 38.2441 47.7593 38.1941 47.1802 38.3442C47.1802 41.4331 47.1802 44.5219 47.1802 47.6322ZM43.4049 42.9775C43.4049 41.526 43.3978 40.0746 43.4121 38.6231C43.4121 38.3585 43.3263 38.2799 43.0617 38.2799C42.7257 38.2727 42.7328 38.4729 42.7328 38.6946C42.7328 39.7528 42.74 40.811 42.74 41.8692C42.74 43.6425 42.74 45.4157 42.74 47.1889C42.74 47.4678 42.7757 47.6823 43.1404 47.6751C43.5122 47.6751 43.4049 47.4106 43.4049 47.2247C43.4121 45.8089 43.4049 44.3932 43.4049 42.9775ZM41.646 47.6322C42.3109 47.718 42.311 47.718 42.3181 47.1103C42.3181 45.3585 42.3181 43.6067 42.3181 41.8621C42.3181 40.8039 42.3252 39.7457 42.3109 38.6803C42.3109 38.5587 42.2323 38.3585 42.1465 38.3371C42.0249 38.3013 41.8319 38.3514 41.7389 38.4443C41.6603 38.523 41.6531 38.7017 41.6531 38.8376C41.646 41.2043 41.6531 43.5781 41.6531 45.9448C41.646 46.4953 41.646 47.053 41.646 47.6322ZM20.0956 43.0561C20.0956 41.6261 20.0885 40.1961 20.1028 38.7732C20.1028 38.5015 20.0313 38.3871 19.7381 38.3871C19.402 38.3871 19.3949 38.5873 19.3949 38.8304C19.3949 41.6547 19.402 44.4719 19.3949 47.2962C19.3949 47.5607 19.4449 47.6823 19.7453 47.6823C20.0384 47.6823 20.1028 47.5822 20.1028 47.3105C20.0885 45.8876 20.0956 44.4719 20.0956 43.0561ZM25.4725 43.0418C25.4725 44.4719 25.4796 45.9019 25.4653 47.3319C25.4653 47.5965 25.5511 47.6751 25.8157 47.6823C26.1875 47.6894 26.1446 47.4463 26.1446 47.2247C26.1446 44.4147 26.1446 41.6047 26.1446 38.7947C26.1446 38.5587 26.1231 38.38 25.8085 38.38C25.4868 38.38 25.4725 38.5516 25.4725 38.7947C25.4796 40.2033 25.4725 41.6261 25.4725 43.0418ZM18.6298 37.8938C18.1722 37.8223 18.1079 37.8723 18.1079 38.287C18.1079 41.2114 18.1079 44.143 18.1079 47.0674C18.1079 47.1889 18.0793 47.3176 18.115 47.4177C18.1508 47.5107 18.2437 47.6322 18.3367 47.6537C18.6298 47.7252 18.6513 47.5321 18.6513 47.3033C18.6441 44.2788 18.6441 41.2543 18.6441 38.237C18.6513 38.1226 18.637 38.001 18.6298 37.8938ZM9.63502 48.2042C9.63502 48.4402 9.60642 48.6833 9.64932 48.9121C9.67792 49.0622 9.81377 49.1909 9.89957 49.3268C9.99252 49.1695 10.0855 49.0122 10.1713 48.8477C10.1784 48.8263 10.1713 48.7977 10.1713 48.7762C10.2213 48.3615 10.2213 47.9254 10.3357 47.5321C10.636 46.5096 11.0007 45.5015 11.3296 44.4862C11.4654 44.0643 11.8515 43.6425 11.4011 43.1777C11.3439 43.1133 11.2867 43.049 11.2223 42.9846C11.1508 43.049 11.0436 43.1062 11.0078 43.1848C10.8005 43.621 10.6074 44.0643 10.4144 44.5076C9.90672 45.6874 9.65647 46.9243 9.63502 48.2042ZM56.8256 49.6199C57.3762 49.5198 57.4691 49.3768 57.3619 48.9407C57.3333 48.812 57.2975 48.6833 57.2975 48.5617C57.2904 47.7037 57.3547 46.8314 57.0616 46.002C56.7899 45.2369 56.5253 44.479 56.2322 43.7211C56.1821 43.5924 55.9891 43.5281 55.8604 43.428C55.7817 43.5567 55.7031 43.6854 55.6316 43.8141C55.6101 43.8641 55.6244 43.9285 55.6173 43.9928C55.5243 44.5434 55.8747 44.9652 56.0463 45.4371C56.4467 46.5454 56.8113 47.6608 56.8256 48.8549C56.8256 49.098 56.8256 49.3411 56.8256 49.6199ZM59.6714 26.3249C59.8716 26.282 59.9931 26.2534 60.1147 26.2248C60.0789 26.1104 60.0432 25.9889 60.0003 25.8745C59.986 25.8316 59.9359 25.8101 59.9002 25.7744C59.5999 25.4312 59.2924 25.088 58.9492 24.6947C59.6785 24.5588 59.1351 24.0083 59.321 23.6436C59.8072 23.9797 59.9645 24.473 60.1576 24.9879C60.5008 24.7376 60.2863 24.4301 60.2362 24.2657C59.9931 23.4649 59.5141 22.8428 58.606 22.5425C58.5488 22.7427 58.4702 22.9143 58.463 23.0931C58.4416 23.7866 58.4845 24.473 58.6775 25.1595C58.9063 25.9817 59.2567 26.7325 59.75 27.4189C59.8001 27.4904 59.8859 27.5333 59.9574 27.5905C59.9788 27.569 60.0003 27.5547 60.0217 27.5333C59.9145 27.1186 59.7929 26.711 59.6714 26.3249ZM50.6551 47.6751C50.6694 47.5321 50.6909 47.432 50.6909 47.3248C50.6909 44.3503 50.6909 41.3687 50.6837 38.3943C50.6837 38.2298 50.6122 38.0654 50.5693 37.9009C50.5264 37.8938 50.4764 37.8866 50.4335 37.8795C50.3691 38.0225 50.2404 38.1655 50.2404 38.3085C50.2261 41.2758 50.2332 44.2431 50.2332 47.2032C50.2332 47.4678 50.3548 47.5965 50.6551 47.6751ZM54.4447 41.1471C54.4375 40.1675 54.4447 39.1951 54.4304 38.2155C54.4304 38.094 54.316 37.9724 54.2588 37.8509C54.1372 37.9367 53.9871 38.001 53.8941 38.1154C53.8298 38.1941 53.8298 38.3371 53.8298 38.4515C53.8298 40.2033 53.8298 41.955 53.8298 43.7068C53.8298 43.8141 53.8012 43.9499 53.8512 44.0214C53.9656 44.1573 54.1229 44.2574 54.2588 44.3718C54.3231 44.2359 54.4304 44.1072 54.4304 43.9714C54.4518 43.0347 54.4447 42.0909 54.4447 41.1471ZM7.40419 27.3545C7.55434 27.2044 7.67589 27.1043 7.76169 26.9756C7.9476 26.7182 8.1478 26.4608 8.26935 26.1676C8.49815 25.6099 8.74841 25.0451 8.84851 24.4587C8.94861 23.8653 8.87711 23.2504 8.86996 22.6426C8.86996 22.3495 8.68406 22.2279 8.4338 22.3709C7.79744 22.7427 7.33984 23.279 7.09674 23.9725C7.04668 24.1227 7.13964 24.3229 7.16109 24.4945C7.28979 24.3944 7.43994 24.3086 7.54004 24.1799C7.70449 23.9654 7.81889 23.7151 7.9905 23.5078C8.0477 23.4363 8.21215 23.4077 8.3051 23.4291C8.35515 23.4434 8.39805 23.6079 8.39805 23.7008C8.39805 24.3229 8.18355 24.8377 7.66874 25.2167C7.54004 25.3096 7.47569 25.4955 7.36844 25.6671C7.61869 25.6385 7.78314 25.6171 7.94045 25.6028C7.86179 25.7672 7.79744 25.9317 7.71164 26.0961C7.68304 26.1605 7.61869 26.2034 7.58294 26.2677C7.43994 26.5895 7.21114 26.8683 7.40419 27.3545ZM14.6687 45.5944C14.733 45.5873 14.7974 45.5801 14.8617 45.573C14.8832 45.43 14.9118 45.287 14.9118 45.144C14.9189 42.8702 14.9189 40.5965 14.9118 38.3299C14.9118 38.237 14.9332 38.1226 14.8903 38.0511C14.8474 37.9653 14.7402 37.8652 14.6615 37.8652C14.5829 37.8723 14.4971 37.9796 14.4399 38.0654C14.4041 38.1154 14.4327 38.2012 14.4327 38.2727C14.4327 40.3749 14.4184 42.4841 14.4399 44.5863C14.447 44.9295 14.59 45.2584 14.6687 45.5944ZM8.4624 41.2758C8.89856 41.476 8.71981 41.8192 8.74126 42.0837C8.76986 42.384 8.74841 42.6843 8.74841 43.0561C9.18456 42.5771 9.17741 42.0408 9.04871 41.5904C8.71981 40.4535 8.1049 39.5025 7.01093 38.9234C6.26732 38.5301 6.28877 38.523 6.26732 39.3595C6.26017 39.7671 6.46753 40.0531 6.72493 40.3391C6.69633 40.2033 6.66773 40.0603 6.63913 39.9244C6.93228 39.8029 7.15394 39.8958 7.25404 40.1103C7.38274 40.3749 7.53289 40.4392 7.82604 40.2891C7.9333 40.8611 8.04055 41.3973 8.14065 41.9336C8.16925 41.9264 8.19785 41.9193 8.2336 41.9121C8.3051 41.7119 8.3766 41.5117 8.4624 41.2758ZM13.9966 46.0806C13.9966 46.4667 13.9322 46.7885 14.0109 47.0674C14.0895 47.3462 14.3183 47.575 14.683 47.6751C14.683 47.4749 14.7187 47.3176 14.6758 47.1746C14.4041 46.2165 13.8464 45.4443 13.1028 44.7936C12.9312 44.6435 12.8097 44.6649 12.7096 44.858C12.4879 45.2798 12.3163 45.7231 12.3521 46.2093C12.3807 46.6097 12.4164 47.003 12.4736 47.3963C12.5165 47.6465 12.7239 47.7109 12.9384 47.6465C13.1958 47.5679 13.0742 47.3963 13.0099 47.2461C12.7882 46.7456 12.8097 46.6169 13.1886 46.2808C13.5104 46.6598 13.6891 46.2665 13.9966 46.0806ZM59.4068 40.5179C59.5498 40.5608 59.6428 40.5894 59.7286 40.618C59.9288 40.2891 60.1075 39.9816 60.3149 39.6384C60.4507 39.9101 60.5508 40.1103 60.6509 40.3105C60.6867 40.3034 60.7296 40.2962 60.7653 40.2819C60.8154 39.8601 60.8583 39.4382 60.9155 38.9377C60.7081 39.0163 60.5937 39.0449 60.4936 39.1021C59.4783 39.6956 58.699 40.5036 58.2414 41.6047C57.984 42.2267 58.0626 42.8345 58.4273 43.4494C58.4916 43.1562 58.5774 42.9274 58.5917 42.6843C58.606 42.3697 58.7061 42.2625 59.0136 42.4555C59.1566 41.7977 59.2781 41.1757 59.4068 40.5179ZM12.066 44.4933C11.9373 44.6077 11.7657 44.7007 11.6871 44.8437C11.0722 45.9233 10.7218 47.0888 10.7147 48.3401C10.7147 48.4974 10.6718 48.6618 10.6289 48.8191C10.5073 49.2267 10.6217 49.4912 10.9935 49.6199C11.1651 48.9121 11.3296 48.1971 11.5155 47.4892C11.73 46.6812 11.9302 45.8733 12.1948 45.0868C12.2806 44.8294 12.2448 44.6935 12.066 44.4933ZM47.2088 6.1116C47.2302 6.09015 47.2588 6.07585 47.2803 6.0544C47.2016 5.91855 47.1444 5.76125 47.0443 5.6397C46.4294 4.93184 45.6429 4.58863 44.7205 4.53143C44.6347 4.52428 44.4703 4.66013 44.4703 4.71733C44.4846 4.93899 44.5132 5.17494 44.6061 5.36799C44.8993 5.9686 45.2711 6.51916 45.793 6.94101C45.9575 7.06971 46.222 7.16267 46.4151 7.13407C46.6082 7.09832 46.7726 6.88381 47.0086 6.69791C46.5295 6.49056 46.2006 6.34756 45.8502 6.20455C46.029 5.654 45.364 5.68975 45.2353 5.31079C45.6572 5.32509 46.0576 5.18209 46.408 5.56104C46.6225 5.78985 46.9371 5.93285 47.2088 6.1116ZM56.1321 49.7844C56.1535 49.7987 56.175 49.8058 56.2036 49.8201C56.2751 49.3911 56.368 48.9621 56.4109 48.526C56.4252 48.3901 56.2894 48.24 56.2822 48.0898C56.2536 47.0102 55.9891 45.9948 55.4171 45.0725C55.3313 44.9295 55.1668 44.8294 55.0381 44.715C54.9309 44.8651 54.8022 45.001 54.7307 45.1654C54.6949 45.2441 54.7521 45.3728 54.7879 45.4657C55.0739 46.2236 55.3956 46.9744 55.6387 47.7395C55.8532 48.4116 55.9748 49.1051 56.1321 49.7844ZM7.46139 33.4822C7.50429 33.5036 7.54004 33.5179 7.58294 33.5394C7.71879 33.2748 7.91185 33.0246 7.9762 32.7457C8.18355 31.8376 8.205 30.9224 7.98335 30.0144C7.95475 29.9071 7.87609 29.7212 7.82604 29.7284C7.69019 29.7355 7.51144 29.7856 7.42564 29.8785C7.16109 30.1788 6.91798 30.5006 6.68203 30.8223C6.44608 31.1512 6.47468 31.5731 6.78928 31.9949C6.86793 31.7661 6.96088 31.5945 6.97518 31.4229C6.99663 31.0726 7.18254 30.8509 7.39704 30.7151C7.53289 30.9224 7.65444 31.1083 7.78314 31.3085C7.03953 32.5169 7.08243 32.3239 7.46139 33.4822ZM60.5222 32.0593C60.8082 31.8805 60.9155 31.616 60.7725 31.38C60.5437 31.0082 60.3006 30.6436 60.0217 30.3075C59.9216 30.1931 59.6714 30.093 59.5498 30.1359C59.414 30.186 59.271 30.4076 59.2567 30.5578C59.1995 31.2013 59.128 31.8591 59.178 32.5026C59.2066 32.8887 59.4426 33.2677 59.607 33.6395C59.6356 33.7038 59.7572 33.7253 59.8358 33.761C59.8716 33.6824 59.9288 33.6037 59.9359 33.5251C59.9574 33.2748 59.9002 33.0103 59.9717 32.7815C60.0575 32.5169 59.9645 32.3382 59.8716 32.1165C59.7715 31.8734 59.7357 31.6017 59.6928 31.3443C59.6785 31.2585 59.7357 31.0869 59.7858 31.0726C59.8859 31.0511 60.0289 31.0869 60.1075 31.1512C60.2076 31.237 60.272 31.3729 60.3292 31.5016C60.4078 31.6732 60.4507 31.8519 60.5222 32.0593ZM22.4337 5.08199C22.4551 5.11774 22.4694 5.15349 22.4909 5.18924C22.3336 5.27504 22.162 5.35369 22.019 5.46094C21.8903 5.56104 21.7044 5.70405 21.6972 5.8256C21.6901 6.10445 21.5328 6.19025 21.3397 6.2832C21.0037 6.44766 20.9608 6.61926 21.2396 6.99821C21.2897 7.06256 21.5399 6.99106 21.6901 6.95531C21.7616 6.94101 21.8402 6.87666 21.8903 6.81946C22.2049 6.48341 22.5552 6.1688 22.8055 5.78985C23.0486 5.41804 23.1916 4.98189 23.3846 4.57433C23.356 4.54573 23.3274 4.51713 23.2988 4.48853C23.0343 4.52428 22.7697 4.57433 22.5052 4.59578C21.9189 4.64583 21.4112 4.88179 20.9608 5.23214C20.8321 5.33224 20.7963 5.56104 20.7248 5.73265C20.7606 5.76125 20.8035 5.7827 20.8392 5.8113C21.2611 5.33224 21.7473 4.96044 22.4337 5.08199ZM53.9799 47.8181C54.3088 47.9111 54.6377 47.6966 54.6306 47.4034C54.6091 46.7098 54.5734 46.0091 54.5376 45.3156C54.5305 45.2369 54.4947 45.1583 54.459 45.0868C54.3517 44.8437 54.1944 44.8222 54.0228 45.0153C53.8583 45.2012 53.701 45.3942 53.558 45.5944C53.222 46.0663 52.8716 46.5239 52.5856 47.0244C52.3425 47.432 52.5642 47.7252 53.0861 47.7395C53.0933 47.525 53.0933 47.3176 53.1219 47.1031C53.1505 46.9029 53.2077 46.7098 53.2649 46.4739C53.3578 46.5811 53.4222 46.6669 53.5151 46.7813C53.6367 46.6383 53.7368 46.5096 53.844 46.3881C54.2373 46.5954 54.2802 47.0316 53.9799 47.8181ZM51.8635 9.465C51.8635 8.52833 50.4549 7.04826 49.3538 6.86236C49.2465 8.06358 49.7899 8.96449 50.5622 9.751C50.7266 9.62945 50.8553 9.5365 50.9769 9.44355C50.7195 9.20044 50.4978 9.00024 50.2976 8.78574C50.2404 8.72854 50.176 8.60699 50.1975 8.54978C50.3262 8.24948 50.1546 8.04928 50.0116 7.83477C49.9329 7.72037 49.8757 7.59167 49.8042 7.46297C49.8328 7.44152 49.8615 7.42722 49.8972 7.40577C50.2547 7.89198 50.8768 8.16368 51.0198 8.82864C51.0341 8.88584 51.1056 8.94304 51.1556 8.97879C51.3916 9.15039 51.6204 9.30054 51.8635 9.465ZM18.258 6.64071C18.2223 6.62641 18.1794 6.60496 18.1436 6.59066C18.0149 6.66216 17.8862 6.73366 17.7647 6.80516C17.0068 7.26992 16.3275 7.81332 15.92 8.62844C15.8484 8.77859 15.8198 8.95019 15.7769 9.11464C15.8055 9.12894 15.8341 9.14324 15.8699 9.16469C15.9843 8.93589 16.1202 8.74999 16.3847 8.91444C16.7422 8.43538 16.7851 7.69892 17.5716 7.64887C17.4358 8.23518 17.4644 8.87869 16.8352 9.33629C17.2785 9.34344 17.5359 9.22189 17.6646 8.92159C17.829 8.53548 17.9935 8.13508 18.1007 7.73467C18.1865 7.37717 18.2008 7.00536 18.258 6.64071ZM6.20297 28.4271C6.23157 28.4271 6.26732 28.4342 6.29592 28.4342C6.23872 29.1206 6.18867 29.7999 6.13147 30.4863C6.16722 30.4934 6.20297 30.5006 6.23872 30.5077C6.36742 30.3147 6.53188 30.1359 6.61053 29.9214C6.88938 29.185 6.75353 28.4199 6.73923 27.662C6.73923 27.4546 6.61768 27.3688 6.36742 27.4618C5.80972 27.6834 5.54516 28.0981 5.43076 28.6487C5.58806 28.756 5.73107 28.8561 5.90267 28.9848C6.01707 28.7846 6.11002 28.6058 6.20297 28.4271ZM28.068 3.96657C27.0669 3.48752 24.879 4.13103 24.4572 4.94614C25.0149 4.82458 25.4081 4.09527 26.1875 4.48138C25.9229 4.71733 25.7156 4.90324 25.5082 5.08199C25.5297 5.12489 25.5511 5.17494 25.5726 5.21784C25.8729 5.14634 26.1875 5.11774 26.4592 4.99619C26.7881 4.84603 27.0884 4.63153 27.3959 4.43133C27.6104 4.28833 27.8177 4.13818 28.068 3.96657ZM39.787 3.87362C40.0587 4.81028 41.4815 5.53244 42.0035 5.15349C41.9248 4.88179 41.8605 4.65298 41.7818 4.42418C41.7532 4.33838 41.7389 4.22398 41.6746 4.18823C41.1026 3.83787 40.4805 3.75922 39.787 3.87362ZM60.6152 27.7907C60.4936 28.5987 60.6366 29.4209 60.7153 30.2718C61.0728 30.1931 61.1657 30.0573 61.1014 29.7141C61.0156 29.2779 61.0442 28.8203 61.0227 28.3699C61.0585 28.3627 61.1014 28.3556 61.1371 28.3556C61.4017 28.9776 61.9451 29.4924 61.8021 30.3218C62.081 30.1574 62.3169 30.0716 62.224 29.7784C62.1382 29.4853 62.0309 29.1993 61.8951 28.9276C61.6377 28.3842 61.4375 27.7621 60.6152 27.7907ZM8.78416 38.6588C8.86996 38.8233 8.94146 38.952 8.99151 39.0807C9.06301 39.2523 9.21316 39.4668 9.15596 39.5955C8.97721 40.0388 9.23461 40.3677 9.38477 40.7181C9.40622 40.7753 9.49917 40.8039 9.59927 40.8682C9.72797 39.7957 9.52062 38.8662 8.96291 38.0225C8.85566 37.8652 8.64831 37.7722 8.4624 37.6364C8.205 38.1297 7.9619 38.5444 8.12635 39.1164C8.3623 38.9591 8.5625 38.8161 8.78416 38.6588ZM58.7419 37.8652C58.5417 38.1083 58.3844 38.2799 58.2557 38.4729C57.891 39.002 57.4691 39.5097 57.5978 40.239C57.6407 40.475 57.5907 40.7467 57.9125 40.761C57.9482 40.761 58.0412 40.4035 58.0483 40.2104C58.0483 39.9602 57.9911 39.7099 57.9554 39.4596C58.3343 39.4811 58.6418 39.5025 58.9421 39.5168C59.1137 39.524 59.2138 39.4596 59.1494 39.2523C59.0136 38.8376 58.8992 38.4229 58.7419 37.8652ZM34.2957 17.945C34.2885 18.0809 34.2814 18.1953 34.2814 18.3025C34.2814 19.4108 34.2814 20.519 34.2814 21.6202C34.2814 21.7775 34.2456 21.9419 34.2957 22.0778C34.3314 22.185 34.4744 22.2565 34.5674 22.3423C34.6246 22.2565 34.7318 22.1636 34.7318 22.0778C34.7461 20.8551 34.7461 19.6253 34.739 18.4026C34.7318 18.1524 34.6031 17.9879 34.2957 17.945ZM36.9698 24.8306C36.9269 24.852 36.884 24.8806 36.8411 24.9021C36.8411 26.3535 36.8411 27.8121 36.8411 29.2636C36.884 29.2779 36.9269 29.2994 36.9698 29.3137C37.0628 29.1564 37.2272 28.9991 37.2344 28.8418C37.2558 27.6691 37.2558 26.4894 37.2344 25.3168C37.2272 25.1595 37.0628 24.995 36.9698 24.8306ZM33.3948 22.328C33.738 22.2851 33.8309 22.1135 33.8309 21.8347C33.8238 20.7049 33.8309 19.5681 33.8309 18.4384C33.8309 18.3526 33.8452 18.2453 33.8023 18.1953C33.7165 18.0952 33.595 18.0308 33.4806 17.9522C33.4448 18.0523 33.3733 18.1524 33.3733 18.2596C33.3662 19.4966 33.3662 20.7407 33.3733 21.9777C33.3733 22.0849 33.3876 22.1922 33.3948 22.328ZM61.5376 31.8734C61.4875 31.8519 61.4446 31.8305 61.3946 31.809C61.0942 32.331 60.7367 32.8315 60.5079 33.3821C60.3363 33.8039 60.3006 34.2973 60.2434 34.7549C60.2005 35.0766 60.322 35.3412 60.6009 35.477C60.7439 34.8407 60.8797 34.2258 61.0299 33.618C61.0871 33.3892 61.1371 33.1175 61.2873 32.9459C61.5876 32.617 61.6019 32.2667 61.5376 31.8734ZM5.65242 31.3228C5.61666 31.3514 5.58091 31.38 5.54516 31.4086C6.23872 32.6027 6.46753 33.9183 6.55333 35.3698C6.68203 35.2125 6.75353 35.141 6.80358 35.0552C7.10388 34.5976 7.08958 34.0613 6.93943 33.618C6.68918 32.8816 6.29592 32.188 5.93842 31.4873C5.90267 31.4015 5.75252 31.38 5.65242 31.3228ZM31.786 24.852C31.7431 24.8663 31.6931 24.8806 31.6502 24.8949C31.6073 25.4526 31.5286 26.0175 31.5286 26.5752C31.5286 27.1257 31.6073 27.6763 31.6359 28.2268C31.6502 28.5272 31.6359 28.8275 31.6359 29.1349C31.6859 29.1492 31.7288 29.1707 31.7789 29.185C31.8504 29.0634 31.9862 28.9419 31.9862 28.8203C32.0005 27.662 32.0005 26.5108 31.9862 25.3525C31.9791 25.1881 31.8504 25.0165 31.786 24.852ZM10.7075 16.2361C11.1437 16.3505 11.4082 16.2147 11.6585 15.9787C11.873 15.7714 12.1161 15.5998 12.3449 15.4067C12.3735 15.4282 12.395 15.4496 12.4236 15.4711C12.3306 15.6713 12.1948 15.8643 12.1662 16.0717C12.1376 16.2647 12.2234 16.4721 12.2591 16.6794C12.3163 16.6866 12.3664 16.6866 12.4236 16.6937C12.7096 16.0645 12.9884 15.4353 13.2959 14.7489C12.2019 14.9277 11.494 15.564 10.7075 16.2361ZM36.0832 24.8735C36.0475 24.9307 36.026 24.9521 36.026 24.9736C36.0189 26.0175 36.0117 27.0614 36.0189 28.1053C36.0189 28.377 36.2119 28.4199 36.4622 28.3484C36.4622 27.3116 36.4693 26.2963 36.4622 25.2739C36.4622 25.0451 36.3263 24.9164 36.0832 24.8735ZM56.6683 16.5793C56.4538 16.0645 55.0381 15.0635 54.5448 15.0921C54.5448 15.2137 54.5162 15.3495 54.5519 15.4639C54.6878 15.8786 54.8308 16.2862 54.9952 16.6866C55.0453 16.8081 55.1811 16.9797 55.2812 16.9869C55.4099 16.994 55.5458 16.851 55.6816 16.7724C55.4028 16.3863 55.1668 16.0574 54.9094 15.6999C55.4528 15.5783 55.5958 15.657 55.8175 16.1003C56.0105 16.5078 56.225 16.6294 56.6683 16.5793ZM35.6042 18.0523C35.547 18.0594 35.4969 18.0594 35.4397 18.0666C35.4111 18.2167 35.3682 18.374 35.3682 18.5242C35.3611 19.6038 35.3611 20.6835 35.3682 21.7703C35.3682 21.9205 35.4254 22.0635 35.4612 22.2136C35.5112 22.2136 35.5541 22.2136 35.6042 22.2208C35.6399 22.0992 35.7114 21.9777 35.7114 21.8561C35.7186 20.7192 35.7186 19.5752 35.7114 18.4384C35.7043 18.3025 35.6399 18.181 35.6042 18.0523ZM15.9986 10.0156C15.7698 10.1371 15.5696 10.1872 15.4695 10.3087C15.3122 10.5161 15.2693 10.8092 15.1048 11.0023C14.7902 11.3884 14.4256 11.7459 14.0752 12.0962C13.9036 12.2678 13.7034 12.4037 13.4818 12.5896C14.8474 12.4108 15.6339 11.6172 15.9986 10.0156ZM7.64729 22.2637C8.05485 21.7703 8.04055 21.1983 7.67589 20.8837C7.61154 20.8337 7.45424 20.8336 7.36844 20.8766C6.84648 21.1554 6.55333 21.6273 6.28162 22.1636C7.12533 22.3638 7.24689 21.7131 7.47569 21.1697C7.53289 21.5558 7.58294 21.8633 7.64729 22.2637ZM35.6614 25.5456C35.6256 25.5313 35.597 25.517 35.5613 25.5027C35.454 25.6671 35.2681 25.8316 35.261 26.0032C35.2252 26.6324 35.2324 27.2616 35.2538 27.8908C35.261 27.9909 35.4397 28.091 35.547 28.1911C35.6042 28.091 35.7043 27.9909 35.7043 27.8836C35.7186 27.1829 35.7114 26.4822 35.7114 25.7815C35.7043 25.7029 35.6757 25.6242 35.6614 25.5456ZM34.2385 25.5313C33.881 25.6743 33.8238 25.7386 33.8238 26.0604C33.8166 26.6681 33.8166 27.2759 33.8238 27.8836C33.8238 27.9837 33.8738 28.091 33.9024 28.1911C33.9525 28.1982 34.0025 28.2125 34.0454 28.2197C34.1241 28.0338 34.2671 27.8479 34.2742 27.6548C34.31 27.0614 34.2957 26.4679 34.2885 25.8673C34.2885 25.7672 34.2528 25.6528 34.2385 25.5313ZM34.5888 26.8326C34.5745 26.8326 34.5674 26.8326 34.5531 26.8326C34.5888 27.2187 34.6174 27.6048 34.6746 27.9837C34.6889 28.0624 34.8319 28.1196 34.9178 28.1911C34.9678 28.0981 35.0536 28.0052 35.0608 27.9051C35.0822 27.6119 35.0822 27.3116 35.0608 27.0185C35.0393 26.6252 34.9964 26.2248 34.9464 25.8316C34.9392 25.7601 34.8176 25.7029 34.7533 25.6385C34.7032 25.7172 34.6031 25.7887 34.6031 25.8745C34.5817 26.1891 34.5888 26.5108 34.5888 26.8326ZM33.5235 26.9112C33.5163 26.568 33.5378 26.2177 33.5092 25.8816C33.4949 25.7601 33.359 25.6528 33.2804 25.5384C33.2017 25.6528 33.073 25.7672 33.0587 25.8888C33.0301 26.2892 33.0516 26.6967 33.0516 27.0971C33.0516 27.3617 33.023 27.6262 33.0587 27.8765C33.0802 27.9909 33.2375 28.0838 33.3376 28.1911C33.4019 28.0838 33.5092 27.9837 33.5235 27.8693C33.5449 27.5547 33.5235 27.233 33.5235 26.9112ZM12.1376 12.754C12.0875 12.7683 11.9373 12.7898 11.8015 12.8541C11.5655 12.9685 11.3653 13.4905 11.5298 13.5763C11.7657 13.705 11.8158 13.8838 11.8515 14.1197C11.8587 14.1626 12.0517 14.2413 12.0803 14.2127C12.2019 14.1054 12.3235 13.9767 12.3807 13.8337C12.4593 13.6192 12.4665 13.3761 12.5308 13.1473C12.6381 12.7612 12.6309 12.7469 12.1376 12.754ZM34.4315 23.1145C34.0597 23.1217 33.931 23.2718 33.9382 23.6865C33.9453 23.9797 34.2313 24.3157 34.4887 24.3229C34.7175 24.33 35.0608 23.9725 35.0679 23.7366C35.0679 23.3219 34.8462 23.1074 34.4315 23.1145ZM16.5134 32.8959C16.4848 32.9888 16.4419 33.0603 16.4419 33.139C16.4348 33.6895 16.4276 34.2329 16.4491 34.7835C16.4562 34.8979 16.5992 35.0051 16.6779 35.1124C16.7565 34.9908 16.8924 34.8764 16.8995 34.7549C16.9281 34.3187 16.8995 33.8754 16.9138 33.4321C16.9281 33.1461 16.7851 33.0031 16.5134 32.8959ZM49.7971 10.7663C49.6541 10.4732 49.5182 10.2015 49.3681 9.92975C49.3323 9.85825 49.2251 9.75815 49.175 9.77245C48.9176 9.82965 48.6745 9.9226 48.4243 10.0084C48.5315 10.1943 48.6245 10.3802 48.7389 10.559C48.7746 10.6162 48.839 10.6591 48.8962 10.702C49.1893 10.9451 49.5468 10.9522 49.7971 10.7663ZM55.6888 13.9124C55.796 13.9052 55.8961 13.9052 55.9819 13.8838C56.0749 13.8623 56.1678 13.8123 56.2608 13.7765C56.1964 13.6907 56.1535 13.5835 56.0749 13.5191C55.8461 13.326 55.603 13.1401 55.3599 12.9614C55.2955 12.9185 55.2169 12.8756 55.1454 12.8756C55.1096 12.8756 55.0596 12.9757 55.0524 13.04C54.9523 13.5906 55.2169 13.9982 55.5958 14.4343C55.6244 14.3056 55.6387 14.2341 55.653 14.1555C55.6602 14.084 55.6745 14.0053 55.6888 13.9124ZM16.1345 33.8111C16.1488 33.5823 15.8913 33.3606 15.6053 33.3392C15.3479 33.3249 14.9475 33.6252 15.0262 33.8325C15.1263 34.0971 15.305 34.3688 15.5267 34.5404C15.6697 34.6476 16.1202 34.0971 16.1345 33.8111ZM59.75 21.3056C60.1647 21.8633 60.5365 22.3638 60.9298 22.8929C61.2229 22.4353 61.2086 22.1135 60.8583 21.7846C60.5723 21.5129 60.3149 21.1268 59.75 21.3056ZM32.6512 28.4271C32.6941 28.2268 32.7441 28.091 32.7441 27.9551C32.7513 27.0971 32.7584 26.2391 32.7513 25.3811C32.7513 25.2524 32.6726 25.1237 32.6154 24.945C32.3294 25.3239 32.3652 28.0409 32.6512 28.4271ZM53.2649 34.5261C53.5938 34.4403 53.8512 34.2186 53.8512 34.0041C53.8512 33.761 53.4079 33.3392 53.1505 33.332C52.9646 33.332 52.5642 33.7896 52.6714 33.9541C52.8144 34.1829 53.0647 34.3402 53.2649 34.5261ZM52.2639 35.1624C52.3139 35.1481 52.364 35.1267 52.4069 35.1124C52.4069 34.5118 52.4069 33.9112 52.3997 33.3177C52.3997 33.2391 52.3568 33.1533 52.3068 33.0889C52.2496 33.0246 52.1638 32.9817 52.0923 32.9245C52.0494 33.0103 51.9636 33.0889 51.9636 33.1747C51.9493 33.6609 51.935 34.1543 51.9707 34.6333C51.9922 34.8192 52.1638 34.9908 52.2639 35.1624ZM17.8433 10.5375C18.0721 10.8235 18.2938 10.8092 18.5297 10.6162C18.6298 10.5375 18.7728 10.5018 18.8515 10.4088C18.9873 10.2587 19.0874 10.0799 19.209 9.91545C19.0588 9.8511 18.9087 9.78675 18.7657 9.7224C18.7514 9.71525 18.7442 9.7081 18.7371 9.7081C18.5655 9.71525 18.401 9.72955 18.2294 9.7367C18.258 9.88685 18.2938 10.037 18.3295 10.2015C18.1794 10.3016 18.0221 10.416 17.8433 10.5375ZM53.6438 12.7111C53.6724 12.6611 53.701 12.6182 53.7296 12.5681C53.6224 12.4966 53.5151 12.4323 53.4222 12.3536C53.2005 12.182 52.8716 12.0462 52.8001 11.8317C52.7215 11.6029 52.5856 11.4599 52.4569 11.2883C52.2782 11.0452 52.1352 10.7806 51.9636 10.5304C51.9207 10.466 51.8277 10.4231 51.7634 10.3731C51.7491 10.4517 51.7062 10.5304 51.7276 10.6019C51.8992 11.2954 52.364 11.8031 52.8716 12.2678C53.0861 12.4537 53.3864 12.561 53.6438 12.7111ZM34.7175 30.5077C34.7175 30.8438 34.7247 31.1512 34.7175 31.4515C34.7104 31.6517 34.7962 31.7089 34.9893 31.7232C35.2896 31.7447 35.4397 31.6589 35.3968 31.33C35.3754 31.1798 35.3754 31.0225 35.3968 30.8652C35.4397 30.5435 35.3039 30.4291 34.9964 30.4791C34.9178 30.4934 34.8462 30.5006 34.7175 30.5077ZM33.2732 33.1604C33.2732 33.2677 33.2804 33.3749 33.2732 33.4822C33.2446 33.7467 33.3876 33.7968 33.6164 33.8039C33.881 33.8111 33.9882 33.7181 33.9739 33.4536C33.9596 33.2677 33.9596 33.0746 33.9739 32.8816C33.9954 32.617 33.8595 32.5527 33.6307 32.5598C33.4091 32.567 33.2518 32.6027 33.2804 32.8744C33.2804 32.9674 33.2732 33.0675 33.2732 33.1604ZM33.2732 31.1369C33.2732 31.2084 33.2804 31.2799 33.2732 31.3514C33.2518 31.6088 33.3233 31.7375 33.6236 31.7304C33.9239 31.7232 33.9882 31.5874 33.9668 31.3371C33.9596 31.2656 33.9668 31.1941 33.9668 31.1226C33.9668 30.8509 34.0311 30.5149 33.6307 30.5077C33.2089 30.5006 33.2732 30.8581 33.2732 31.1369ZM45.1495 55.9764C45.2854 56.3482 45.5785 56.3196 45.7716 56.2481C46.2078 56.0908 46.601 55.8262 46.6654 55.2256C46.1648 55.4759 45.6643 55.7261 45.1495 55.9764ZM10.4501 16.9583C10.2714 17.0512 10.0926 17.1156 9.94247 17.2229C9.86382 17.2801 9.82807 17.4088 9.80662 17.5089C9.79232 17.6233 9.82092 17.7448 9.82807 17.8664C9.83522 18.0237 9.82807 18.1738 9.82807 18.3669C10.5216 17.9307 10.729 17.4588 10.4501 16.9583ZM19.6737 8.33528C19.7667 8.22088 19.8883 8.09933 19.9884 7.95633C20.0885 7.82047 20.1743 7.67032 20.2672 7.52017C19.5593 7.33427 18.8801 7.55592 18.7085 8.07788C18.9301 8.02068 19.1303 7.90628 19.2948 7.94203C19.4306 7.97063 19.5307 8.17798 19.6737 8.33528ZM34.0025 35.1481C33.9596 35.0266 33.9453 34.762 33.8238 34.6977C33.4949 34.5261 33.2804 34.6977 33.2732 35.0838C33.2732 35.1767 33.2732 35.2768 33.2732 35.3698C33.2732 35.7559 33.3304 35.7916 33.7022 35.763C34.1169 35.7344 33.9024 35.4127 34.0025 35.1481ZM34.7318 34.6548C34.7318 35.0552 34.7318 35.3841 34.7318 35.806C34.9535 35.7487 35.2824 35.7344 35.311 35.6343C35.3968 35.3626 35.3897 35.048 35.3325 34.7692C35.3182 34.6977 34.9607 34.6977 34.7318 34.6548ZM34.7175 33.189C34.7175 33.2963 34.7175 33.3749 34.7175 33.4607C34.7247 33.6037 34.6746 33.8254 34.9106 33.7825C35.0822 33.7539 35.2753 33.6395 35.3682 33.5036C35.4469 33.3892 35.3825 33.1819 35.3897 33.0174C35.404 32.7815 35.3182 32.7028 35.0679 32.6742C34.5674 32.6242 34.7533 32.9817 34.7175 33.189ZM60.2291 35.7702C60.2863 36.521 60.1218 37.2074 60.5222 37.8437C60.8654 37.4362 60.7224 36.2922 60.2291 35.7702ZM56.9186 15.9215C56.94 15.4925 56.5468 14.9992 56.1178 14.8776C56.0391 14.8562 55.9104 14.8562 55.8675 14.9062C55.8246 14.9563 55.8461 15.0778 55.8747 15.1565C56.0534 15.6284 56.4967 15.7285 56.9186 15.9215ZM31.5644 24.3086C31.5858 24.3515 31.6001 24.3872 31.6216 24.4301C32.1078 24.4301 32.5868 24.4373 33.073 24.423C33.1731 24.4158 33.2661 24.3086 33.3662 24.2514C33.2732 24.1942 33.1803 24.0869 33.0873 24.0869C32.7084 24.0655 32.3294 24.0583 31.9576 24.0869C31.8146 24.0941 31.6931 24.2299 31.5644 24.3086ZM36.3049 24.0726C36.3049 24.0798 36.3049 24.0798 36.3049 24.0726C36.0904 24.0798 35.8759 24.0726 35.6614 24.0798C35.6113 24.0798 35.5613 24.1513 35.5112 24.1942C35.5613 24.2442 35.6113 24.33 35.6685 24.33C36.0904 24.3729 36.5122 24.4015 36.9341 24.4158C37.0056 24.4158 37.0771 24.3157 37.1557 24.2657C37.0842 24.2013 37.0199 24.0869 36.9484 24.0798C36.7339 24.0583 36.5122 24.0726 36.3049 24.0726ZM10.6646 15.4496C11.0936 15.6212 11.7443 15.0707 11.73 14.5273C11.2366 14.6703 10.872 14.9706 10.6646 15.4496ZM6.96803 35.5986C6.55333 35.8918 6.41748 36.8499 6.71063 37.2503C6.98948 36.7355 7.03238 36.1992 6.96803 35.5986ZM57.5907 18.4956C57.6336 18.4741 57.6765 18.4598 57.7194 18.4384C57.6121 18.2239 57.5049 18.0165 57.369 17.7448C57.6265 17.802 57.8195 17.8521 58.0126 17.895C58.0269 17.8592 58.0412 17.8306 58.0555 17.7949C57.7337 17.5947 57.4191 17.4016 57.0973 17.2014C57.0687 17.2228 57.0473 17.2443 57.0187 17.2658C57.226 17.6733 57.1331 18.2096 57.5907 18.4956ZM24.2498 6.78371C23.9638 6.52631 23.0557 6.68361 22.9771 6.96961C22.9556 7.04111 23.1415 7.24847 23.1773 7.23417C23.5348 7.10547 23.878 6.94101 24.2498 6.78371ZM47.4447 7.63457C47.6807 7.97778 48.2527 8.13508 48.6316 7.96348C48.3528 7.61312 47.9524 7.50587 47.4447 7.63457ZM58.3272 17.9951C58.32 18.6958 58.699 19.0175 59.0565 18.7744C58.8348 18.5313 58.5989 18.2882 58.3272 17.9951ZM34.4601 28.6559C34.5674 28.9276 34.2957 29.2422 34.6675 29.3852C34.7604 29.4209 35.0393 29.235 35.0393 29.1421C35.0465 28.8275 34.8033 28.7202 34.4601 28.6559ZM23.9853 55.054C24.0139 54.9682 24.0353 54.9325 24.0282 54.9253C23.685 54.6035 23.3489 54.2818 22.9985 53.9672C22.9771 53.9457 22.8984 53.9958 22.8484 54.0101C22.8698 54.0744 22.8698 54.1602 22.9127 54.196C23.2559 54.482 23.6063 54.7537 23.9853 55.054ZM43.219 6.46196C43.6194 6.46196 43.9769 6.46196 44.3845 6.46196C44.0341 6.0973 43.5837 6.0687 43.219 6.46196ZM37.2201 23.6579C37.2344 23.186 37.1629 23.1074 36.834 23.1074C36.5909 23.1074 36.5551 23.2432 36.5909 23.422C36.6624 23.8724 36.977 23.5793 37.2201 23.6579ZM34.2885 28.6416C34.1527 28.6916 34.024 28.6916 33.9954 28.7488C33.9239 28.8918 33.8595 29.0563 33.8595 29.2064C33.8595 29.2636 34.0311 29.328 34.1241 29.3852C34.1813 29.2636 34.2528 29.1421 34.2814 29.0134C34.31 28.9133 34.2885 28.7917 34.2885 28.6416ZM9.25606 17.6948C9.20601 17.6733 9.15596 17.6519 9.10591 17.6304C8.95576 17.8163 8.79131 18.0022 8.65546 18.2024C8.6197 18.2525 8.64115 18.4026 8.69121 18.4455C8.73411 18.4884 8.90571 18.4741 8.92716 18.4312C9.05586 18.1953 9.14881 17.9379 9.25606 17.6948ZM31.6645 23.136C31.6645 23.329 31.6645 23.4792 31.6645 23.6222C32.2007 23.708 32.2579 23.6436 32.1221 23.1288C32.0434 23.1217 31.9648 23.1145 31.8861 23.1145C31.8146 23.1145 31.7503 23.1288 31.6645 23.136ZM44.742 7.34857C44.5632 6.94101 44.2629 6.83376 43.9197 7.02681C44.1843 7.13407 44.4345 7.22702 44.742 7.34857Z" fill="#EE7537"></path><path d="M34.117 63.2768C34.2457 63.048 34.3601 62.812 34.5103 62.6047C34.6604 62.3902 34.8535 62.2186 35.0036 62.0041C35.2753 61.6108 35.1824 61.1747 34.782 60.903C34.546 60.7385 34.2958 60.6027 34.0741 60.4311C33.8382 60.2451 33.7524 60.0092 33.8811 59.7089C33.9669 59.5158 34.0169 59.3085 34.0741 59.1083C34.2243 58.6149 34.3959 58.4862 34.9035 58.4719C35.068 58.4648 35.2396 58.4719 35.404 58.4719C35.9761 58.4791 35.9761 58.4791 35.8974 59.0654C35.6543 59.1083 35.3969 59.144 35.1466 59.2084C34.9679 59.2513 34.782 59.3085 34.6247 59.4014C34.5603 59.4372 34.5317 59.6588 34.5746 59.7017C34.6962 59.8304 34.8606 59.9448 35.0251 60.0163C35.9689 60.4168 36.3193 61.3248 35.7115 62.2043C35.3254 62.7834 34.7748 63.191 34.117 63.2768Z" fill="#EE7537"></path><path d="M38.9576 58.4642C38.879 58.7502 38.8218 59.0004 38.7288 59.2364C38.7074 59.2864 38.5501 59.315 38.4571 59.3079C38.214 59.2793 37.9709 59.2435 37.7278 59.1863C37.5133 59.1363 37.3775 59.2435 37.3775 59.4151C37.3775 59.5438 37.4847 59.7154 37.5991 59.7941C37.8851 59.9943 38.2569 60.0944 38.4929 60.3375C39.2007 61.0739 39.0792 61.603 38.5501 62.3467C38.3213 62.6756 37.9495 62.9115 37.6134 63.1475C37.4132 63.2833 37.163 63.3048 36.9556 62.9902C37.1773 62.7971 37.3918 62.5755 37.6349 62.411C38.2355 62.0178 38.45 61.4457 38.0996 60.9452C37.9566 60.7379 37.6706 60.6306 37.4561 60.4733C37.306 60.3661 37.1415 60.2588 37.0128 60.123C36.9413 60.0443 36.8984 59.9013 36.9198 59.8012C36.9699 59.551 37.1057 59.3222 37.1272 59.0719C37.1701 58.6072 37.5276 58.5357 37.8565 58.4856C38.1997 58.4284 38.5572 58.4642 38.9576 58.4642Z" fill="#EE7537"></path><path d="M30.1271 63.0275C29.7767 63.0275 29.4192 63.0275 29.0045 63.0275C29.1189 61.6261 29.1976 60.2533 28.9402 58.859C29.0546 58.8089 29.1976 58.7589 29.3334 58.6945C29.7267 58.5086 29.9627 58.6445 29.9627 59.0735C29.9698 59.9172 29.9483 60.7609 29.9769 61.6046C29.9912 62.0694 30.0699 62.5341 30.1271 63.0275Z" fill="#EE7537"></path><path d="M31.5286 63.6115C31.5214 63.4184 31.4642 63.2182 31.5071 63.0466C31.7574 62.0384 32.0362 61.0303 32.3079 60.0293C32.3437 59.8863 32.4223 59.7576 32.5224 59.5359C32.1435 59.5359 31.8217 59.5574 31.5143 59.5288C31.3713 59.5145 31.1425 59.4143 31.1139 59.3071C31.0424 59.0497 31.0495 58.7422 31.3427 58.5992C31.5071 58.5206 31.7073 58.4848 31.8861 58.4777C32.3723 58.4634 32.8585 58.4705 33.4162 58.4705C33.3161 58.7708 33.2517 59.0211 33.1516 59.2499C32.9657 59.7075 32.7441 60.1508 32.5796 60.6156C32.2722 61.4521 31.9862 62.2958 31.9719 63.211C31.9719 63.3541 31.8003 63.4971 31.7145 63.6401C31.6501 63.6258 31.5858 63.6186 31.5286 63.6115Z" fill="#EE7537"></path><path d="M31.7501 45.5436C31.7501 44.9358 31.7501 44.3281 31.7501 43.7203C31.7501 43.5344 31.7286 43.3556 32.0075 43.3699C32.2649 43.3771 32.415 43.4772 32.415 43.7489C32.415 44.4139 32.415 45.0788 32.415 45.7509C32.415 46.3015 32.415 46.8449 32.415 47.3954C32.415 47.6386 32.3149 47.7673 32.0575 47.7816C31.8287 47.7959 31.7429 47.7172 31.7429 47.4741C31.7572 46.8306 31.7501 46.1871 31.7501 45.5436Z" fill="#EE7537"></path><path d="M32.8729 47.7456C32.8729 47.4668 32.8729 47.2094 32.8729 46.952C32.8729 45.9009 32.8729 44.857 32.8729 43.8059C32.8729 43.5843 32.8586 43.3555 33.1875 43.3698C33.5021 43.3769 33.5021 43.6057 33.5021 43.8274C33.5021 44.9714 33.5021 46.1154 33.5021 47.2594C33.5021 47.81 33.5021 47.81 32.8729 47.7456Z" fill="#EE7537"></path><path d="M35.168 47.739C35.168 47.0598 35.168 46.3948 35.168 45.7299C35.168 45.115 35.168 44.4929 35.168 43.878C35.168 43.642 35.118 43.3632 35.4898 43.3775C35.8473 43.3918 35.8044 43.6706 35.8044 43.8994C35.8044 44.9934 35.8044 46.0874 35.8044 47.1742C35.8044 47.1956 35.8044 47.2242 35.8044 47.2457C35.8044 47.8177 35.8044 47.8177 35.168 47.739Z" fill="#EE7537"></path><path d="M30.5633 45.5813C30.5633 44.9736 30.5633 44.3658 30.5633 43.7652C30.5633 43.5579 30.5848 43.372 30.8565 43.3791C31.1139 43.3863 31.1997 43.5293 31.1997 43.7724C31.1997 45.0093 31.1925 46.2463 31.2068 47.4761C31.2068 47.755 31.0781 47.7764 30.8565 47.7836C30.6134 47.7979 30.5562 47.6906 30.5562 47.469C30.5705 46.8398 30.5633 46.2105 30.5633 45.5813Z" fill="#EE7537"></path><path d="M34.0097 43.4128C34.5889 43.327 34.5817 43.327 34.5817 43.8775C34.5817 45.0287 34.5817 46.1799 34.5889 47.331C34.5889 47.567 34.5531 47.7958 34.2671 47.7672C34.1527 47.7529 33.974 47.567 33.974 47.4597C33.9525 46.1513 33.9668 44.85 33.9668 43.5415C33.974 43.4914 34.0026 43.4485 34.0097 43.4128Z" fill="#EE7537"></path><path d="M38.1212 45.6525C38.1212 46.2674 38.1068 46.8894 38.1283 47.5044C38.1354 47.7475 38.0353 47.7832 37.8423 47.7832C37.6492 47.7832 37.4919 47.7904 37.4919 47.5187C37.4991 46.2459 37.4991 44.9804 37.4991 43.7077C37.4991 43.4932 37.5849 43.3716 37.8208 43.3859C38.0425 43.4002 38.1283 43.5218 38.1283 43.7363C38.1211 44.3726 38.1212 45.009 38.1212 45.6525Z" fill="#EE7537"></path><path d="M36.8841 45.6222C36.8841 46.2371 36.8698 46.8591 36.8912 47.474C36.8984 47.7171 36.8054 47.7743 36.5838 47.7815C36.3406 47.7886 36.2834 47.6957 36.2834 47.4669C36.2906 46.2299 36.2834 45.0001 36.2834 43.7631C36.2834 43.5558 36.312 43.3842 36.5766 43.3699C36.8769 43.3556 36.8912 43.5486 36.8912 43.7703C36.8841 44.3923 36.8841 45.0073 36.8841 45.6222Z" fill="#EE7537"></path><path d="M45.4856 53.6755C46.0004 53.3394 46.5081 53.0034 47.0229 52.6602C46.8584 53.2465 45.9933 53.8185 45.5356 53.7684C45.5213 53.7398 45.4999 53.7041 45.4856 53.6755Z" fill="#EE7537"></path><path d="M10.4929 51.9159C10.0853 51.5799 9.67779 51.2438 9.19873 50.8577C9.66349 50.6432 9.94234 50.8792 10.1997 51.0222C10.5 51.1866 10.5501 51.5155 10.6001 51.823C10.5644 51.8516 10.5286 51.8873 10.4929 51.9159Z" fill="#EE7537"></path></svg> 