<?xml version="1.0" encoding="UTF-8"?> <svg xmlns="http://www.w3.org/2000/svg" width="68" height="68" viewBox="0 0 68 68" fill="none"><path d="M64.3411 30.4584C63.9563 30.4593 63.5741 30.523 63.2097 30.6471L51.4693 10.2268C51.7614 9.97238 52.0092 9.67067 52.2022 9.33416C52.461 8.88827 52.6198 8.39103 52.6675 7.87714C52.7152 7.36325 52.6508 6.8451 52.4786 6.35881C52.3064 5.87253 52.0307 5.42984 51.6706 5.06163C51.3106 4.69342 50.8749 4.40856 50.3939 4.22693C49.913 4.0453 49.3984 3.97127 48.886 4.01001C48.3736 4.04874 47.8758 4.19931 47.4274 4.45121C46.9789 4.7031 46.5905 5.05026 46.2894 5.46845C45.9883 5.88665 45.7816 6.36581 45.6838 6.87251H22.2123C22.1111 6.36955 21.9024 5.89465 21.6006 5.48067C21.2988 5.06669 20.9111 4.72349 20.4643 4.47482C20.0175 4.22615 19.5222 4.07793 19.0127 4.04042C18.5033 4.00291 17.9918 4.077 17.5137 4.25758C17.0355 4.43815 16.6021 4.72089 16.2434 5.08625C15.8848 5.45161 15.6094 5.89086 15.4363 6.37363C15.2633 6.8564 15.1967 7.37117 15.2412 7.88233C15.2856 8.3935 15.4401 8.88886 15.6939 9.33416C15.8818 9.6623 16.1216 9.95757 16.4039 10.2084L4.46657 30.5826C3.94242 30.4381 3.39213 30.4171 2.85855 30.5212C2.32498 30.6252 1.82252 30.8516 1.39029 31.1826C0.958066 31.5137 0.607742 31.9405 0.366598 32.4298C0.125455 32.9191 0 33.4577 0 34.0037C0 34.5496 0.125455 35.0882 0.366598 35.5775C0.607742 36.0668 0.958066 36.4936 1.39029 36.8247C1.82252 37.1557 2.32498 37.3821 2.85855 37.4862C3.39213 37.5902 3.94242 37.5692 4.46657 37.4247L16.4039 57.7989C16.1217 58.0481 15.8819 58.3418 15.6939 58.6686C15.2493 59.4817 15.1395 60.4373 15.388 61.3308C15.6365 62.2242 16.2235 62.9844 17.0232 63.4483C17.8229 63.9123 18.7718 64.0431 19.6664 63.8128C20.561 63.5824 21.3302 63.0093 21.8092 62.2161C22.0007 61.8798 22.1368 61.5147 22.2123 61.1348H45.6838C45.7593 61.5147 45.8954 61.8798 46.087 62.2161C46.3423 62.6637 46.6917 63.05 47.1108 63.348C47.53 63.646 48.0088 63.8487 48.514 63.9418C49.0191 64.0348 49.5384 64.0162 50.0356 63.887C50.5328 63.7579 50.9959 63.5213 51.3928 63.1939C51.7897 62.8665 52.1107 62.4561 52.3334 61.9913C52.5562 61.5266 52.6754 61.0186 52.6827 60.5028C52.69 59.987 52.5852 59.4757 52.3756 59.0048C52.1661 58.5338 51.8568 58.1145 51.4693 57.7759L63.2097 37.3557C63.5733 37.4834 63.9558 37.5487 64.3411 37.5489C64.8153 37.5661 65.2881 37.4871 65.7312 37.3166C66.1743 37.1462 66.5787 36.8878 66.9202 36.5569C67.2617 36.226 67.5333 35.8294 67.7189 35.3907C67.9044 34.952 68 34.4803 68 34.0037C68 33.527 67.9044 33.0553 67.7189 32.6166C67.5333 32.1779 67.2617 31.7813 66.9202 31.4504C66.5787 31.1195 66.1743 30.8611 65.7312 30.6907C65.2881 30.5202 64.8153 30.4412 64.3411 30.4584ZM60.8827 33.3112H49.834V26.3955L61.0018 32.8695C60.9519 33.0091 60.9121 33.1521 60.8827 33.2974V33.3112ZM48.4598 33.3112H37.4111C37.2587 32.5446 36.8576 31.8504 36.2705 31.3372L41.804 21.7253L48.4643 25.5857L48.4598 33.3112ZM46.4855 58.1164L35.2765 51.6747L41.2955 48.1823L46.8428 57.7759C46.7166 57.8817 46.5973 57.9954 46.4855 58.1164ZM33.8977 50.8603L27.2511 47.032L32.812 37.3695C33.5532 37.6315 34.3612 37.6315 35.1024 37.3695L40.6267 46.986L33.8977 50.8603ZM21.0717 57.7621L26.5685 48.2146L32.5234 51.6471L21.4061 58.0888C21.3014 57.979 21.1914 57.8745 21.0762 57.7759L21.0717 57.7621ZM21.4015 9.88171L32.5189 16.3234L26.5639 19.7559L21.0671 10.2038C21.1872 10.1093 21.3005 10.0062 21.4061 9.89551L21.4015 9.88171ZM33.8931 17.1286L40.6038 21.0213L35.0795 30.6333C34.3372 30.3777 33.5314 30.3777 32.7891 30.6333L27.2281 20.9707L33.8931 17.1286ZM46.8153 10.2268L41.2909 19.8388L35.2719 16.351L46.4809 9.90931C46.5948 10.0226 46.7157 10.1287 46.8428 10.2268H46.8153ZM42.4819 20.529L48.0063 10.917C48.1557 10.9686 48.3088 11.0086 48.4643 11.0366V23.9937L42.4819 20.529ZM45.7984 8.69459L33.8885 15.5504L22.1069 8.70379C22.1576 8.55313 22.1989 8.39946 22.2306 8.24367H45.7067C45.7299 8.39575 45.7621 8.54632 45.8029 8.69459H45.7984ZM19.4318 11.0366C19.5873 11.0086 19.7404 10.9686 19.8898 10.917L25.3867 20.4645L19.4318 23.8832V11.0366ZM26.0555 21.6609L31.621 31.3234C31.034 31.8366 30.6328 32.5308 30.4804 33.2974H19.4363V25.4753L26.0555 21.6609ZM18.0621 33.2974H7.01802C6.97549 33.1003 6.91885 32.9065 6.84854 32.7176L18.0621 26.2759V33.2974ZM7.01802 34.6777H18.0621V41.7222L6.84854 35.2805C6.92125 35.0845 6.97793 34.8829 7.01802 34.6777ZM19.4363 34.6777H30.485C30.6374 35.4443 31.0385 36.1385 31.6256 36.6517L26.0601 46.3142L19.4363 42.4952V34.6777ZM25.3913 47.5244L19.8944 57.0719C19.7443 57.0226 19.5914 56.9826 19.4363 56.9523V44.1195L25.3913 47.5244ZM22.1069 59.3035L33.9206 52.4523L45.8304 59.3127C45.7818 59.4633 45.7435 59.617 45.7159 59.7728H22.2123C22.1876 59.6142 22.1524 59.4574 22.1069 59.3035ZM48.4781 56.9661C48.3231 56.9964 48.1701 57.0364 48.02 57.0857L42.4957 47.4738L48.4506 44.0136L48.4781 56.9661ZM41.804 46.282L36.2796 36.6655C36.8637 36.1505 37.2629 35.4569 37.4157 34.6915H48.4643V42.417L41.804 46.282ZM49.834 34.6777H60.8827C60.91 34.8341 60.9498 34.9879 61.0018 35.1379L49.834 41.6164V34.6777ZM62.0187 31.3234C61.9031 31.428 61.793 31.5386 61.6889 31.6547L49.834 24.7759V11.0366C49.989 11.0065 50.142 10.9665 50.292 10.917L62.0187 31.3234ZM17.5857 10.894C17.7353 10.9475 17.8883 10.9906 18.0438 11.0228V24.6655L6.09272 31.5673C5.96791 31.4328 5.83148 31.3096 5.68503 31.1992L17.5857 10.894ZM5.69877 36.7989C5.8442 36.6856 5.98052 36.561 6.10647 36.4262L18.0576 43.328V56.9707C17.9021 57.0029 17.749 57.046 17.5995 57.0995L5.69877 36.7989ZM50.2737 57.0765C50.1244 57.0247 49.9712 56.9847 49.8156 56.9569V43.1992L61.6705 36.325C61.7747 36.4396 61.8848 36.5486 62.0004 36.6517L50.2737 57.0765Z" fill="#EE7538"></path></svg> 